<svg xmlns="http://www.w3.org/2000/svg" viewBox="0 0 347.16 125.54"><defs><style>.cls-1{fill:#fff;}</style></defs><title>10101-white</title><g id="Layer_2" data-name="Layer 2"><g id="_10101" data-name="10101"><path class="cls-1" d="M347.16,125.31h-24.7V26.6H310.15V1.9h37Z"/><g id="_10" data-name="10"><path id="_0_O" data-name="0\O" class="cls-1" d="M149.41,62.8c0,6.15.21,12.3-.34,18.44a47.06,47.06,0,0,1-10,25.48c-8.38,10.6-19.34,17-32.79,18.47-15.07,1.65-28.38-2.59-39.51-13.1A47.86,47.86,0,0,1,51.89,82.55a60.21,60.21,0,0,1-.44-7.36c-.05-8.2-.07-16.4,0-24.61a51.79,51.79,0,0,1,4.37-21.7,48.47,48.47,0,0,1,27-25.58A45.74,45.74,0,0,1,100.29,0c12.91.17,24.29,4.43,33.76,13.44A47.72,47.72,0,0,1,148.92,43C149.75,49.54,149.38,56.18,149.41,62.8Zm-26.6.11c0-2.4,0-4.8,0-7.2-.06-3.57.33-7.16-.2-10.7C121.06,34.76,111.42,26,99.43,26.44,88,26.9,78.09,36.41,78,47.84c0,10,0,19.91,0,29.87a18.32,18.32,0,0,0,2,8.64c4.43,8.49,11.35,12.88,21.1,12.75A22,22,0,0,0,122.8,77.49C122.82,72.63,122.81,67.77,122.81,62.91Z"/><path class="cls-1" d="M37,125.31H12.31V26.6H0V1.9H37Z"/></g><g id="_10-2" data-name="10"><path id="_0_O-2" data-name="0\O" class="cls-1" d="M304.49,62.8c-.05,6.15.21,12.3-.34,18.44a47.22,47.22,0,0,1-10,25.48c-8.38,10.6-19.34,17-32.8,18.47-15.07,1.65-28.37-2.59-39.5-13.1A47.76,47.76,0,0,1,207,82.55a60.21,60.21,0,0,1-.45-7.36q-.08-12.3,0-24.61c0-7.51,1.18-14.81,4.37-21.7a48.44,48.44,0,0,1,27-25.58A45.69,45.69,0,0,1,255.36,0c12.91.17,24.3,4.43,33.77,13.44A47.82,47.82,0,0,1,304,43C304.82,49.54,304.45,56.18,304.49,62.8Zm-26.61.11c0-2.4,0-4.8,0-7.2-.07-3.57.32-7.16-.21-10.7C276.13,34.76,266.49,26,254.51,26.44c-11.46.46-21.34,10-21.39,21.4-.05,10,0,19.91,0,29.87a18.32,18.32,0,0,0,2,8.64c4.43,8.49,11.36,12.88,21.11,12.75a22,22,0,0,0,21.66-21.61C277.9,72.63,277.88,67.77,277.88,62.91Z"/><path class="cls-1" d="M192.08,125.31h-24.7V26.6H155.07V1.9h37Z"/></g></g></g></svg>