<svg xmlns="http://www.w3.org/2000/svg" viewBox="0 0 344.58 125.54"><title>10101-black</title><g id="Layer_2" data-name="Layer 2"><g id="_10101_black" data-name="10101 black"><path d="M344.58,125.31h-23V33.46H310.15v-23h34.43Z"/><g id="_10" data-name="10"><g id="_0_O" data-name="0\O"><path d="M146,62.8c0,6.15.21,12.3-.34,18.44a47.06,47.06,0,0,1-10,25.48c-8.38,10.6-19.33,17-32.79,18.47-15.07,1.65-28.37-2.59-39.51-13.1A47.86,47.86,0,0,1,48.46,82.55,62.27,62.27,0,0,1,48,75.19q-.08-12.3,0-24.61c.06-7.51,1.19-14.81,4.37-21.7a48.51,48.51,0,0,1,27-25.58A45.74,45.74,0,0,1,96.86,0c12.91.17,24.29,4.43,33.77,13.44A47.82,47.82,0,0,1,145.5,43C146.32,49.54,146,56.18,146,62.8Zm-26.6.11c0-2.4,0-4.8,0-7.2-.06-3.57.33-7.16-.2-10.7C117.63,34.76,108,26,96,26.44c-11.45.46-21.34,10-21.39,21.4,0,10,0,19.91,0,29.87a18.32,18.32,0,0,0,2,8.64C81,94.84,88,99.23,97.71,99.1a21.94,21.94,0,0,0,21.66-21.61C119.4,72.63,119.38,67.77,119.38,62.91Z"/></g><path d="M34.43,125.31h-23V33.46H0v-23H34.43Z"/></g><g id="_10-2" data-name="10"><g id="_0_O-2" data-name="0\O"><path d="M301.06,62.8c0,6.15.21,12.3-.34,18.44a47.14,47.14,0,0,1-10,25.48c-8.38,10.6-19.34,17-32.8,18.47-15.07,1.65-28.37-2.59-39.5-13.1a47.81,47.81,0,0,1-14.84-29.54,60.21,60.21,0,0,1-.45-7.36q-.08-12.3,0-24.61a51.79,51.79,0,0,1,4.37-21.7,48.44,48.44,0,0,1,27-25.58A45.69,45.69,0,0,1,251.93,0c12.91.17,24.3,4.43,33.77,13.44A47.82,47.82,0,0,1,300.57,43C301.39,49.54,301,56.18,301.06,62.8Zm-26.61.11c0-2.4,0-4.8,0-7.2-.07-3.57.32-7.16-.21-10.7C272.7,34.76,263.07,26,251.08,26.44c-11.46.46-21.34,10-21.39,21.4,0,10,0,19.91,0,29.87a18.31,18.31,0,0,0,2,8.64c4.44,8.49,11.36,12.88,21.11,12.75a22,22,0,0,0,21.66-21.61C274.47,72.63,274.45,67.77,274.45,62.91Z"/></g><path d="M189.51,125.31h-23V33.46H155.07v-23h34.44Z"/></g></g></g></svg>