<?xml version="1.0" encoding="utf-8"?>
<!-- Generator: Adobe Illustrator 19.0.0, SVG Export Plug-In . SVG Version: 6.00 Build 0)  -->
<svg version="1.1" id="Layer_1" xmlns="http://www.w3.org/2000/svg" xmlns:xlink="http://www.w3.org/1999/xlink" x="0px" y="0px"
	 viewBox="-359 372.9 279.9 257.1" style="enable-background:new -359 372.9 279.9 257.1;" xml:space="preserve">
<style type="text/css">
	.st0{fill:#FFDD57;}
	.st1{fill:#666666;}
</style>
<title>logo-text</title>
<g id="Layer_1_1_">
	<path class="st0" d="M-293.6,435l-6-4c2-2,3-5,6-6l17-5c4-1,6-2,8-6l11-18c-22-18-48-24-74-23l5,32c2,13-6,24-11,35l-2,4l-1,7h1
		l-5,8c10,7,21,11,31,16l1-1c4-9,4-9,13-5l4,1c18,1,33,8,47,18l14-20l-22-16C-267.6,445-281.6,441-293.6,435z M-114.6,542l-2-9
		c-1-3-3-4-6-4c-19,3-35-5-50-16l-6-4l-3,2v1l-11,8h-3l-7-7h-1l-11-6c-3-1-1-3-1-3l2-2l2-2v-1h-4c-4,1-8,2-12,0v1l8,3l-8-3l6,4l1,1
		c6.7,5.7,13.3,11.3,20,17l13,9c8,6,18,11,27,15l32,15c6,2,7,2,11-3S-112.6,548-114.6,542z M-135.6,545v-5h5l2,6L-135.6,545z"/>
	<path class="st1" d="M-211.6,503c-1,1-1,2,1,3c2.7,1.3,5.3,2.7,8,4l2-1l14-16l1-2v-2l-6-7h-3l-5,6L-211.6,503z M-175.6,500l-5-6
		l-2-1l-1,1l-15,17v2l4,4h2l17-14V500z M-229.6,475l8,3l3,1l1-1l1-2l5-7v-3l-7-6l-2-1l-2,1l-8,11v1C-231.6,473-231.6,474-229.6,475z
		 M-214.6,481l5,3l2,3v6l1-1l9-12v-2l-8-8h-4l-6,10L-214.6,481z"/>
	<path class="st1" d="M-192.6,542l5-8l-3-2c-13.2-8.5-25.6-18.2-37-29l-5-2l-2-1l3-1c2-1,2-1,2-3l-2-4l1-1v1l3,3c2,2,4,2,7,2l7-1
		c2,0,3-1,3-2l1-5c0.2-1.4-0.8-2.8-2.2-3c-0.3,0-0.5,0-0.8,0l-21-10c-2-1-2,0-4,1l-16,23v3l1,2l21,32c1,1,2,2,1,4l-3,27l-4,24
		c15.3,5,31.7,5,47,0l-2-21V542z"/>
</g>
<g id="Layer_2">
	<path class="st1" d="M-335.4,627.1c0,1-0.1,1.9-0.3,2.9h-5.8c-0.2-0.9-0.3-1.9-0.3-2.9c0-1,0.1-1.9,0.3-2.9h-2.9
		c-0.2-0.9-0.3-1.9-0.3-2.9c0-1,0.1-1.9,0.3-2.9h-8.6c0.2,0.9,0.3,1.9,0.3,2.9c0,1-0.1,1.9-0.3,2.9h8.6c0.2,0.9,0.3,1.9,0.3,2.9
		c0,1-0.1,1.9-0.3,2.9h-11.5c-0.2-0.9-0.3-1.9-0.3-2.9c0-1,0.1-1.9,0.3-2.9h-2.9c-0.2-0.9-0.3-1.9-0.3-2.9c0-1,0.1-1.9,0.3-2.9h2.9
		c-0.2-0.9-0.3-1.9-0.3-2.9c0-1,0.1-1.9,0.3-2.9h11.5c-0.2-0.9-0.3-1.9-0.3-2.8c0-1,0.1-1.9,0.3-2.9h-10.1c-0.2-0.9-0.3-1.9-0.3-2.9
		c0-1,0.1-1.9,0.3-2.9h13c0.2,0.9,0.3,1.9,0.3,2.9c0,1-0.1,1.9-0.3,2.9h2.8c0.2,0.9,0.3,1.9,0.3,2.9c0,1-0.1,1.9-0.3,2.9
		c0.2,0.9,0.3,1.9,0.3,2.9c0,1-0.1,1.9-0.3,2.9c0.2,0.9,0.3,1.9,0.3,2.9c0,1-0.1,1.9-0.3,2.9h2.9
		C-335.5,625.2-335.4,626.2-335.4,627.1z"/>
	<path class="st1" d="M-306.9,618.5c0.2,0.9,0.3,1.9,0.3,2.9c0,1-0.1,1.9-0.3,2.9h-2.9c0.2,0.9,0.3,1.9,0.3,2.9c0,1-0.1,1.9-0.3,2.9
		h-14.4c-0.2-0.9-0.3-1.9-0.3-2.9c0-1,0.1-1.9,0.3-2.9h-2.9c-0.2-0.9-0.3-1.9-0.3-2.9c0-1,0.1-1.9,0.3-2.9h-2.9
		c-0.2-0.9-0.3-1.9-0.3-2.9c0-1,0.1-1.9,0.3-2.9h2.9c-0.2-0.9-0.3-1.9-0.3-2.9c0-1,0.1-1.9,0.3-2.9h2.9c-0.2-0.9-0.3-1.9-0.3-2.9
		c0-1,0.1-1.9,0.3-2.9h14.4c0.2,0.9,0.3,1.9,0.3,2.9c0,1-0.1,1.9-0.3,2.9h2.9c0.2,1,0.3,1.9,0.3,2.9c0,1-0.1,1.9-0.3,2.9h-5.7
		c-0.2-0.9-0.3-1.9-0.3-2.9c0-1,0.1-1.9,0.3-2.9h-8.7c0.2,0.9,0.3,1.9,0.3,2.9c0,1-0.1,1.9-0.3,2.9h-2.9c0.2,0.9,0.3,1.9,0.3,2.9
		c0,1-0.1,1.9-0.3,2.9h2.9c0.2,0.9,0.3,1.9,0.3,2.9c0,1-0.1,1.9-0.3,2.9h8.7c-0.2-0.9-0.3-1.9-0.3-2.9c0-1,0.1-1.9,0.3-2.9
		L-306.9,618.5z"/>
	<path class="st1" d="M-295.4,607h2.2c0.2,0.9,0.3,1.9,0.3,2.9c0,1-0.1,1.9-0.3,2.9h-2.2c0.2,0.9,0.3,1.9,0.3,2.9
		c0,1-0.1,1.9-0.3,2.9c0.2,0.9,0.3,1.9,0.3,2.9c0,1-0.1,1.9-0.3,2.9c0.2,0.9,0.3,1.9,0.3,2.9c0,1-0.1,1.9-0.3,2.9h-5.8
		c-0.2-0.9-0.3-1.9-0.3-2.9c0-1,0.1-1.9,0.3-2.9c-0.2-0.9-0.3-1.9-0.3-2.9c0-1,0.1-1.9,0.3-2.9c-0.2-0.9-0.3-1.9-0.3-2.9
		c0-1,0.1-1.9,0.3-2.9c-0.2-0.9-0.3-1.9-0.3-2.8c0-1,0.1-1.9,0.3-2.9c-0.2-0.9-0.3-1.9-0.3-2.9c0-1,0.1-1.9,0.3-2.9
		c-0.2-0.9-0.3-1.9-0.3-2.9c0-1,0.1-1.9,0.3-2.9c-0.2-0.9-0.3-1.9-0.3-2.9c0-1,0.1-1.9,0.3-2.9h5.8c0.2,0.9,0.3,1.9,0.3,2.9
		c0,1-0.1,1.9-0.3,2.9c0.2,0.9,0.3,1.9,0.3,2.9c0,1-0.1,1.9-0.3,2.9c0.2,0.9,0.3,1.9,0.3,2.9C-295.1,605.1-295.2,606-295.4,607z
		 M-277.8,615.6c0,1-0.1,1.9-0.3,2.9c0.2,0.9,0.3,1.9,0.3,2.9c0,1-0.1,1.9-0.3,2.9c0.2,0.9,0.3,1.9,0.3,2.9c0,1-0.1,1.9-0.3,2.9
		h-5.8c-0.2-0.9-0.3-1.9-0.3-2.9c0-1,0.1-1.9,0.3-2.9c-0.2-0.9-0.3-1.9-0.3-2.9c0-1,0.1-1.9,0.3-2.9c-0.2-0.9-0.3-1.9-0.3-2.9
		c0-1,0.1-1.9,0.3-2.9c-0.2-0.9-0.3-1.9-0.3-2.9c0-1,0.1-1.9,0.3-2.9h-9.4c-0.2-0.9-0.3-1.9-0.3-2.9c0-1,0.1-1.9,0.3-2.9h11.5
		c0.2,0.9,0.3,1.9,0.3,2.9c0,1-0.1,1.9-0.3,2.9h3.6c0.2,0.9,0.3,1.9,0.3,2.9c0,1-0.1,1.9-0.3,2.9
		C-277.9,613.7-277.8,614.6-277.8,615.6L-277.8,615.6z"/>
	<path class="st1" d="M-251.9,627.1c0,1-0.1,1.9-0.3,2.9h-17.3c-0.2-0.9-0.3-1.9-0.3-2.9c0-1,0.1-1.9,0.3-2.9h5.8
		c-0.2-0.9-0.3-1.9-0.3-2.9c0-1,0.1-1.9,0.3-2.9c-0.2-0.9-0.3-1.9-0.3-2.9c0-1,0.1-1.9,0.3-2.9c-0.2-0.9-0.3-1.9-0.3-2.9
		c0-1,0.1-1.9,0.3-2.9h-4.3c-0.2-0.9-0.3-1.9-0.3-2.9c0-1,0.1-1.9,0.3-2.9h10.1c0.2,0.9,0.3,1.9,0.3,2.9c0,1-0.1,1.9-0.3,2.9
		c0.2,1,0.3,1.9,0.3,2.9c0,1-0.1,1.9-0.3,2.9c0.2,0.9,0.3,1.9,0.3,2.9c0,1-0.1,1.9-0.3,2.9c0.2,0.9,0.3,1.9,0.3,2.9
		c0,1-0.1,1.9-0.3,2.9h5.8C-251.9,625.2-251.8,626.2-251.9,627.1z M-263.7,595.4c-0.2-0.9-0.3-1.9-0.3-2.9c0-1,0.1-1.9,0.3-2.9h5.8
		c0.2,0.9,0.3,1.9,0.3,2.9c0,1-0.1,1.9-0.3,2.9H-263.7z"/>
	<path class="st1" d="M-220.5,612.7c0.2,0.9,0.3,1.9,0.3,2.9c0,1-0.1,1.9-0.3,2.9h-15.1c0.2,0.9,0.3,1.9,0.3,2.9
		c0,1-0.1,1.9-0.3,2.9h12.2c0.2,0.9,0.3,1.9,0.3,2.9c0,1-0.1,1.9-0.3,2.9h-14.4c-0.2-0.9-0.3-1.9-0.3-2.9c0-1,0.1-1.9,0.3-2.9h-3.6
		c-0.2-0.9-0.3-1.9-0.3-2.9c0-1,0.1-1.9,0.3-2.9h-2.2c-0.2-0.9-0.3-1.9-0.3-2.9c0-1,0.1-1.9,0.3-2.9h2.2c-0.2-0.9-0.3-1.9-0.2-2.8
		c0-1,0.1-1.9,0.3-2.9h3.6c-0.2-0.9-0.3-1.9-0.3-2.9c0-1,0.1-1.9,0.3-2.9h14.4c0.2,0.9,0.3,1.9,0.3,2.9c0,1-0.1,1.9-0.3,2.9h2.9
		c0.2,0.9,0.3,1.9,0.3,2.9C-220.2,610.8-220.3,611.8-220.5,612.7z M-226.5,609.8c0-1,0.1-1.9,0.3-2.9h-9.4c0.2,0.9,0.3,1.9,0.3,2.9
		c0,1-0.1,1.9-0.3,2.9h9.4C-226.4,611.8-226.5,610.8-226.5,609.8L-226.5,609.8z"/>
	<path class="st1" d="M-191.7,607h-2.2c0.2,0.9,0.3,1.9,0.3,2.9c0,1-0.1,1.9-0.3,2.9h-2.2c0.2,0.9,0.3,1.9,0.3,2.9
		c0,1-0.1,1.9-0.3,2.9h-1.4c0.2,0.9,0.3,1.9,0.3,2.9c0,1-0.1,1.9-0.3,2.9h-2.9c0.2,0.9,0.3,1.9,0.3,2.9c0,1-0.1,1.9-0.3,2.9h-5.8
		c-0.2-0.9-0.3-1.9-0.3-2.9c0-1,0.1-1.9,0.3-2.9h-2.9c-0.2-0.9-0.3-1.9-0.3-2.9c0-1,0.1-1.9,0.3-2.9h-1.4c-0.2-0.9-0.3-1.9-0.3-2.9
		c0-1,0.1-1.9,0.3-2.9h-2.2c-0.2-0.9-0.3-1.9-0.3-2.9c0-1,0.1-1.9,0.3-2.9h-2.2c-0.2-0.9-0.3-1.9-0.3-2.9c0-1,0.1-1.9,0.3-2.9h5.8
		c0.2,0.9,0.3,1.9,0.3,2.9c0,1-0.1,1.9-0.3,2.9h2.2c0.2,0.9,0.3,1.9,0.3,2.9c0,1-0.1,1.9-0.3,2.9h2.2c0.2,0.9,0.3,1.9,0.3,2.9
		c0,1-0.1,1.9-0.3,2.9h2.9c-0.2-0.9-0.3-1.9-0.3-2.9c0-1,0.1-1.9,0.3-2.9h2.1c-0.2-0.9-0.3-1.9-0.3-2.9c0-1,0.1-1.9,0.3-2.9h2.2
		c-0.2-0.9-0.3-1.9-0.3-2.9c0-1,0.1-1.9,0.3-2.9h5.8c0.2,0.9,0.3,1.9,0.3,2.9C-191.4,605-191.5,606-191.7,607z"/>
	<path class="st1" d="M-165.5,627.1c0,1-0.1,1.9-0.3,2.9H-183c-0.2-0.9-0.3-1.9-0.3-2.9c0-1,0.1-1.9,0.3-2.9h5.8
		c-0.2-0.9-0.3-1.9-0.3-2.9c0-1,0.1-1.9,0.3-2.9c-0.2-0.9-0.3-1.9-0.3-2.9c0-1,0.1-1.9,0.3-2.9c-0.2-0.9-0.3-1.9-0.3-2.8
		c0-1,0.1-1.9,0.3-2.9h-4.3c-0.2-0.9-0.3-1.9-0.3-2.9c0-1,0.1-1.9,0.3-2.9h10.1c0.2,0.9,0.3,1.9,0.3,2.9c0,1-0.1,1.9-0.3,2.9
		c0.2,0.9,0.3,1.9,0.3,2.9c0,1-0.1,1.9-0.3,2.9c0.2,0.9,0.3,1.9,0.3,2.9c0,1-0.1,1.9-0.3,2.9c0.2,0.9,0.3,1.9,0.3,2.9
		c0,1-0.1,1.9-0.3,2.9h5.8C-165.6,625.2-165.5,626.2-165.5,627.1z M-177.3,595.4c-0.2-0.9-0.3-1.9-0.3-2.9c0-1,0.1-1.9,0.3-2.9h5.8
		c0.2,0.9,0.3,1.9,0.3,2.9c0,1-0.1,1.9-0.3,2.9H-177.3z"/>
	<path class="st1" d="M-151.1,621.4c0,1-0.1,1.9-0.3,2.9h-2.9c0.2,0.9,0.3,1.9,0.3,2.9c0,1-0.1,1.9-0.3,2.9h-2.9
		c-0.2-0.9-0.3-1.9-0.3-2.9c0-1,0.1-1.9,0.3-2.9c-0.2-0.9-0.3-1.9-0.3-2.9c0-1,0.1-1.9,0.3-2.9c-0.2-0.9-0.3-1.9-0.3-2.9
		c0-1,0.1-1.9,0.3-2.9c-0.2-0.9-0.3-1.9-0.3-2.9c0-1,0.1-1.9,0.3-2.9c-0.2-0.9-0.3-1.9-0.3-2.9c0-1,0.1-1.9,0.3-2.9
		c-0.2-0.9-0.3-1.9-0.3-2.9c0-1,0.1-1.9,0.3-2.9c-0.2-0.9-0.3-1.9-0.3-2.9c0-1,0.1-1.9,0.3-2.9h5.8c0.2,0.9,0.3,1.9,0.3,2.9
		c0,1-0.1,1.9-0.3,2.9c0.2,0.9,0.3,1.9,0.3,2.9c0,1-0.1,1.9-0.3,2.9c0.2,0.9,0.3,1.9,0.3,2.9c0,1-0.1,1.9-0.3,2.9h2.9
		c0.2,0.9,0.3,1.9,0.3,2.9c0,1-0.1,1.9-0.3,2.9h-2.9c0.2,0.9,0.3,1.9,0.3,2.9c0,1-0.1,1.9-0.3,2.9
		C-151.1,619.4-151.1,620.4-151.1,621.4z M-151.4,624.2h8.6c0.2,0.9,0.3,1.9,0.3,2.9c0,1-0.1,1.9-0.3,2.9h-8.6
		c-0.2-0.9-0.3-1.9-0.3-2.9C-151.7,626.2-151.6,625.2-151.4,624.2z M-134.1,618.5h-2.9c0.2,0.9,0.3,1.9,0.3,2.9c0,1-0.1,1.9-0.3,2.9
		h-5.8c-0.2-0.9-0.3-1.9-0.3-2.9c0-1,0.1-1.9,0.3-2.9h2.9c-0.2-0.9-0.3-1.9-0.3-2.9c0-1,0.1-1.9,0.3-2.9h-2.9
		c-0.2-0.9-0.3-1.9-0.3-2.9c0-1,0.1-1.9,0.3-2.9h-5.8c-0.2-0.9-0.3-1.9-0.3-2.9c0-1,0.1-1.9,0.3-2.9h8.6c0.2,0.9,0.3,1.9,0.3,2.9
		c0,1-0.1,1.9-0.3,2.9h2.9c0.2,0.9,0.3,1.9,0.3,2.9c0,1-0.1,1.9-0.3,2.9h2.9c0.2,0.9,0.3,1.9,0.3,2.9
		C-133.8,616.6-133.9,617.5-134.1,618.5L-134.1,618.5z"/>
	<path class="st1" d="M-107.9,627.1c0,1-0.1,1.9-0.3,2.9h-17.3c-0.2-0.9-0.3-1.9-0.3-2.9c0-1,0.1-1.9,0.3-2.9h5.8
		c-0.2-0.9-0.3-1.9-0.3-2.9c0-1,0.1-1.9,0.3-2.9c-0.2-0.9-0.3-1.9-0.3-2.9c0-1,0.1-1.9,0.3-2.9c-0.2-0.9-0.3-1.9-0.3-2.9
		c0-1,0.1-1.9,0.3-2.9h-4.3c-0.2-0.9-0.3-1.9-0.3-2.9c0-1,0.1-1.9,0.3-2.9h10.1c0.2,0.9,0.3,1.9,0.3,2.9c0,1-0.1,1.9-0.3,2.9
		c0.2,1,0.3,1.9,0.3,2.9c0,1-0.1,1.9-0.3,2.9c0.2,0.9,0.3,1.9,0.3,2.9c0,1-0.1,1.9-0.3,2.9c0.2,0.9,0.3,1.9,0.3,2.9
		c0,1-0.1,1.9-0.3,2.9h5.8C-107.9,625.2-107.8,626.2-107.9,627.1z M-119.7,595.4c-0.2-0.9-0.3-1.9-0.3-2.9c0-1,0.1-1.9,0.3-2.9h5.8
		c0.2,0.9,0.3,1.9,0.3,2.9c0,1-0.1,1.9-0.3,2.9H-119.7z"/>
	<path class="st1" d="M-79.4,624.2c0.2,0.9,0.3,1.9,0.3,2.9c0,1-0.1,1.9-0.3,2.9h-11.5c-0.2-0.9-0.3-1.9-0.3-2.9
		c0-1,0.1-1.9,0.3-2.9h-2.9c-0.2-0.9-0.3-1.9-0.3-2.9c0-1,0.1-1.9,0.3-2.9c-0.2-0.9-0.3-1.9-0.3-2.9c0-1,0.1-1.9,0.3-2.9
		c-0.2-0.9-0.3-1.9-0.3-2.9c0-1,0.1-1.9,0.3-2.9h-5.8c-0.2-0.9-0.3-1.9-0.3-2.9c0-1,0.1-1.9,0.3-2.9h5.8c-0.2-0.9-0.3-1.9-0.3-2.9
		c0-1,0.1-1.9,0.3-2.9c-0.2-0.9-0.3-1.9-0.3-2.9c0-1,0.1-1.9,0.3-2.9h5.8c0.2,0.9,0.3,1.9,0.3,2.9c0,1-0.1,1.9-0.3,2.9
		c0.2,0.9,0.3,1.9,0.3,2.9c0,1-0.1,1.9-0.3,2.9h8.6c0.2,0.9,0.3,1.9,0.3,2.9c0,1-0.1,1.9-0.3,2.9H-88c0.2,0.9,0.3,1.9,0.3,2.9
		c0,1-0.1,1.9-0.3,2.9c0.2,0.9,0.3,1.9,0.3,2.9c0,1-0.1,1.9-0.3,2.9c0.2,0.9,0.3,1.9,0.3,2.9c0,1-0.1,1.9-0.3,2.9H-79.4z"/>
</g>
</svg>
