<svg xmlns="http://www.w3.org/2000/svg" viewBox="0 0 279.93 257.11"><title>logo-text</title><g id="Layer_1" data-name="Layer 1"><path d="M71,65.11l-6-4c2-2,3-5,6-6l17-5c4-1,6-2,8-6l11-18c-22-18-48-24-74-23l5,32c2,13-6,24-11,35l-2,4-1,7h1l-5,8c10,7,21,11,31,16l1-1c4-9,4-9,13-5l4,1c18,1,33,8,47,18l14-20-22-16C97,75.11,83,71.11,71,65.11Zm179,107-2-9c-1-3-3-4-6-4-19,3-35-5-50-16l-6-4-3,2v1l-11,8h-3l-7-7h-1l-11-6c-3-1-1-3-1-3l2-2,2-2v-1h-4c-4,1-8,2-12,0v1l8,3-8-3,6,4,1,1q10,8.5,20,17l13,9c8,6,18,11,27,15l32,15c6,2,7,2,11-3S252,178.11,250,172.11Zm-21,3v-5h5l2,6Z" transform="translate(-5.6 -3)" style="fill:#ffdd57"/><path d="M153,133.11c-1,1-1,2,1,3q4,2,8,4l2-1,14-16,1-2v-2l-6-7h-3l-5,6Zm36-3-5-6-2-1-1,1-15,17v2l4,4h2l17-14Zm-54-25,8,3,3,1,1-1,1-2,5-7v-3l-7-6-2-1-2,1-8,11v1C133,103.11,133,104.11,135,105.11Zm15,6,5,3,2,3v6l1-1,9-12v-2l-8-8h-4l-6,10Z" transform="translate(-5.6 -3)"/><path d="M172,172.11l5-8-3-2a262.43,262.43,0,0,1-37-29l-5-2-2-1,3-1c2-1,2-1,2-3l-2-4,1-1v1l3,3c2,2,4,2,7,2l7-1c2,0,3-1,3-2l1-5a2.65,2.65,0,0,0-3-3l-21-10c-2-1-2,0-4,1l-16,23v3l1,2,21,32c1,1,2,2,1,4l-3,27-4,24a76.09,76.09,0,0,0,47,0l-2-21v-29Z" transform="translate(-5.6 -3)"/></g><g id="Layer_2" data-name="Layer 2"><path d="M29.21,257.23a12.29,12.29,0,0,1-.29,2.88H23.17a12.29,12.29,0,0,1-.29-2.88,11.62,11.62,0,0,1,.29-2.88H20.28a12.89,12.89,0,0,1-.28-2.88,12.18,12.18,0,0,1,.28-2.88H11.65a12.18,12.18,0,0,1,.28,2.88,12.89,12.89,0,0,1-.28,2.88h8.63a11.62,11.62,0,0,1,.29,2.88,12.29,12.29,0,0,1-.29,2.88H8.76a12.89,12.89,0,0,1-.28-2.88,12.18,12.18,0,0,1,.28-2.88H5.88a12.89,12.89,0,0,1-.28-2.88,12.18,12.18,0,0,1,.28-2.88H8.76a12.92,12.92,0,0,1-.28-2.89,12.14,12.14,0,0,1,.28-2.87H20.28A12.89,12.89,0,0,1,20,240a12.18,12.18,0,0,1,.28-2.88H10.21a12.29,12.29,0,0,1-.29-2.88,11.62,11.62,0,0,1,.29-2.88h13a12.18,12.18,0,0,1,.28,2.88,12.89,12.89,0,0,1-.28,2.88H26a11.62,11.62,0,0,1,.29,2.88,12.29,12.29,0,0,1-.29,2.88,11.58,11.58,0,0,1,.29,2.87,12.32,12.32,0,0,1-.29,2.89,11.62,11.62,0,0,1,.29,2.88,12.29,12.29,0,0,1-.29,2.88h2.88A11.62,11.62,0,0,1,29.21,257.23Z" transform="translate(-5.6 -3)"/><path d="M57.72,248.59a11.62,11.62,0,0,1,.29,2.88,12.29,12.29,0,0,1-.29,2.88H54.84a11.62,11.62,0,0,1,.29,2.88,12.29,12.29,0,0,1-.29,2.88H40.44a12.89,12.89,0,0,1-.28-2.88,12.18,12.18,0,0,1,.28-2.88H37.56a12.89,12.89,0,0,1-.28-2.88,12.18,12.18,0,0,1,.28-2.88H34.68a12.92,12.92,0,0,1-.28-2.89,12.14,12.14,0,0,1,.28-2.87h2.88a12.89,12.89,0,0,1-.28-2.88,12.18,12.18,0,0,1,.28-2.88h2.88a12.89,12.89,0,0,1-.28-2.88,12.18,12.18,0,0,1,.28-2.88h14.4a11.62,11.62,0,0,1,.29,2.88,12.29,12.29,0,0,1-.29,2.88h2.88A11.62,11.62,0,0,1,58,240a12.29,12.29,0,0,1-.29,2.88H52a12.89,12.89,0,0,1-.28-2.88,12.18,12.18,0,0,1,.28-2.88H43.32a11.62,11.62,0,0,1,.29,2.88,12.29,12.29,0,0,1-.29,2.88H40.44a11.58,11.58,0,0,1,.29,2.87,12.32,12.32,0,0,1-.29,2.89h2.88a11.62,11.62,0,0,1,.29,2.88,12.29,12.29,0,0,1-.29,2.88H52a12.89,12.89,0,0,1-.28-2.88,12.18,12.18,0,0,1,.28-2.88Z" transform="translate(-5.6 -3)"/><path d="M69.24,237.07H71.4a12.12,12.12,0,0,1,.29,2.88,12.85,12.85,0,0,1-.29,2.88H69.24a12.08,12.08,0,0,1,.29,2.87,12.88,12.88,0,0,1-.29,2.89,12.12,12.12,0,0,1,.29,2.88,12.85,12.85,0,0,1-.29,2.88,12.12,12.12,0,0,1,.29,2.88,12.85,12.85,0,0,1-.29,2.88H63.48a12.89,12.89,0,0,1-.28-2.88,12.18,12.18,0,0,1,.28-2.88,12.89,12.89,0,0,1-.28-2.88,12.18,12.18,0,0,1,.28-2.88,12.92,12.92,0,0,1-.28-2.89,12.14,12.14,0,0,1,.28-2.87A12.89,12.89,0,0,1,63.2,240a12.18,12.18,0,0,1,.28-2.88,12.89,12.89,0,0,1-.28-2.88,12.18,12.18,0,0,1,.28-2.88,12.89,12.89,0,0,1-.28-2.88,12.18,12.18,0,0,1,.28-2.88,12.92,12.92,0,0,1-.28-2.89,12.14,12.14,0,0,1,.28-2.87h5.76a12.08,12.08,0,0,1,.29,2.87,12.88,12.88,0,0,1-.29,2.89,12.12,12.12,0,0,1,.29,2.88,12.85,12.85,0,0,1-.29,2.88,12.12,12.12,0,0,1,.29,2.88A12.85,12.85,0,0,1,69.24,237.07Zm17.57,8.63a12.88,12.88,0,0,1-.29,2.89,12.12,12.12,0,0,1,.29,2.88,12.85,12.85,0,0,1-.29,2.88,12.12,12.12,0,0,1,.29,2.88,12.85,12.85,0,0,1-.29,2.88H80.76a12.89,12.89,0,0,1-.28-2.88,12.18,12.18,0,0,1,.28-2.88,12.89,12.89,0,0,1-.28-2.88,12.18,12.18,0,0,1,.28-2.88,12.92,12.92,0,0,1-.28-2.89,12.14,12.14,0,0,1,.28-2.87,12.89,12.89,0,0,1-.28-2.88,12.18,12.18,0,0,1,.28-2.88H71.4a12.89,12.89,0,0,1-.28-2.88,12.18,12.18,0,0,1,.28-2.88H82.92a12.12,12.12,0,0,1,.29,2.88,12.85,12.85,0,0,1-.29,2.88h3.6a12.12,12.12,0,0,1,.29,2.88,12.85,12.85,0,0,1-.29,2.88A12.08,12.08,0,0,1,86.81,245.7Z" transform="translate(-5.6 -3)"/><path d="M112.73,257.23a12.85,12.85,0,0,1-.29,2.88H95.16a12.89,12.89,0,0,1-.28-2.88,12.18,12.18,0,0,1,.28-2.88h5.76a12.89,12.89,0,0,1-.28-2.88,12.18,12.18,0,0,1,.28-2.88,12.92,12.92,0,0,1-.28-2.89,12.14,12.14,0,0,1,.28-2.87,12.89,12.89,0,0,1-.28-2.88,12.18,12.18,0,0,1,.28-2.88H96.6a12.89,12.89,0,0,1-.28-2.88,12.18,12.18,0,0,1,.28-2.88h10.08a12.12,12.12,0,0,1,.29,2.88,12.85,12.85,0,0,1-.29,2.88A12.12,12.12,0,0,1,107,240a12.85,12.85,0,0,1-.29,2.88,12.08,12.08,0,0,1,.29,2.87,12.88,12.88,0,0,1-.29,2.89,12.12,12.12,0,0,1,.29,2.88,12.85,12.85,0,0,1-.29,2.88h5.76A12.12,12.12,0,0,1,112.73,257.23Zm-11.81-31.68a12.92,12.92,0,0,1-.28-2.89,12.14,12.14,0,0,1,.28-2.87h5.76a12.08,12.08,0,0,1,.29,2.87,12.88,12.88,0,0,1-.29,2.89Z" transform="translate(-5.6 -3)"/><path d="M144.12,242.83a12.08,12.08,0,0,1,.29,2.87,12.88,12.88,0,0,1-.29,2.89H129a12.12,12.12,0,0,1,.29,2.88,12.85,12.85,0,0,1-.29,2.88h12.24a12.12,12.12,0,0,1,.29,2.88,12.85,12.85,0,0,1-.29,2.88h-14.4a12.89,12.89,0,0,1-.28-2.88,12.18,12.18,0,0,1,.28-2.88h-3.6a12.89,12.89,0,0,1-.28-2.88,12.18,12.18,0,0,1,.28-2.88h-2.16a12.88,12.88,0,0,1-.29-2.89,12.08,12.08,0,0,1,.29-2.87h2.16A12.89,12.89,0,0,1,123,240a12.18,12.18,0,0,1,.28-2.88h3.6a12.89,12.89,0,0,1-.28-2.88,12.18,12.18,0,0,1,.28-2.88h14.4a12.12,12.12,0,0,1,.29,2.88,12.85,12.85,0,0,1-.29,2.88h2.88a12.12,12.12,0,0,1,.29,2.88A12.85,12.85,0,0,1,144.12,242.83Zm-6-2.88a12.18,12.18,0,0,1,.28-2.88H129a12.12,12.12,0,0,1,.29,2.88,12.85,12.85,0,0,1-.29,2.88h9.36A12.89,12.89,0,0,1,138.08,240Z" transform="translate(-5.6 -3)"/><path d="M172.92,237.07h-2.16a12.12,12.12,0,0,1,.29,2.88,12.85,12.85,0,0,1-.29,2.88H168.6a12.08,12.08,0,0,1,.29,2.87,12.88,12.88,0,0,1-.29,2.89h-1.44a12.12,12.12,0,0,1,.29,2.88,12.85,12.85,0,0,1-.29,2.88h-2.88a12.12,12.12,0,0,1,.29,2.88,12.85,12.85,0,0,1-.29,2.88h-5.76a12.85,12.85,0,0,1-.29-2.88,12.12,12.12,0,0,1,.29-2.88h-2.88a12.85,12.85,0,0,1-.29-2.88,12.12,12.12,0,0,1,.29-2.88H154.2a12.88,12.88,0,0,1-.29-2.89,12.08,12.08,0,0,1,.29-2.87H152a12.85,12.85,0,0,1-.29-2.88,12.12,12.12,0,0,1,.29-2.88h-2.16a12.85,12.85,0,0,1-.29-2.88,12.12,12.12,0,0,1,.29-2.88h5.76a12.12,12.12,0,0,1,.29,2.88,12.85,12.85,0,0,1-.29,2.88h2.16a12.12,12.12,0,0,1,.29,2.88,12.85,12.85,0,0,1-.29,2.88H160a12.08,12.08,0,0,1,.29,2.87,12.88,12.88,0,0,1-.29,2.89h2.88a12.88,12.88,0,0,1-.29-2.89,12.08,12.08,0,0,1,.29-2.87H165a12.85,12.85,0,0,1-.29-2.88,12.12,12.12,0,0,1,.29-2.88h2.16a12.89,12.89,0,0,1-.28-2.88,12.18,12.18,0,0,1,.28-2.88h5.76a12.12,12.12,0,0,1,.29,2.88A12.85,12.85,0,0,1,172.92,237.07Z" transform="translate(-5.6 -3)"/><path d="M199.13,257.23a12.85,12.85,0,0,1-.29,2.88H181.56a12.85,12.85,0,0,1-.29-2.88,12.12,12.12,0,0,1,.29-2.88h5.76a12.85,12.85,0,0,1-.29-2.88,12.12,12.12,0,0,1,.29-2.88,12.88,12.88,0,0,1-.29-2.89,12.08,12.08,0,0,1,.29-2.87A12.85,12.85,0,0,1,187,240a12.12,12.12,0,0,1,.29-2.88H183a12.85,12.85,0,0,1-.29-2.88,12.12,12.12,0,0,1,.29-2.88h10.08a12.12,12.12,0,0,1,.29,2.88,12.85,12.85,0,0,1-.29,2.88,12.12,12.12,0,0,1,.29,2.88,12.85,12.85,0,0,1-.29,2.88,12.08,12.08,0,0,1,.29,2.87,12.88,12.88,0,0,1-.29,2.89,12.12,12.12,0,0,1,.29,2.88,12.85,12.85,0,0,1-.29,2.88h5.76A12.12,12.12,0,0,1,199.13,257.23Zm-11.81-31.68a12.88,12.88,0,0,1-.29-2.89,12.08,12.08,0,0,1,.29-2.87h5.76a12.08,12.08,0,0,1,.29,2.87,12.88,12.88,0,0,1-.29,2.89Z" transform="translate(-5.6 -3)"/><path d="M213.53,251.47a12.85,12.85,0,0,1-.29,2.88h-2.88a12.12,12.12,0,0,1,.29,2.88,12.85,12.85,0,0,1-.29,2.88h-2.88a12.85,12.85,0,0,1-.29-2.88,12.12,12.12,0,0,1,.29-2.88,12.85,12.85,0,0,1-.29-2.88,12.12,12.12,0,0,1,.29-2.88,12.88,12.88,0,0,1-.29-2.89,12.08,12.08,0,0,1,.29-2.87,12.85,12.85,0,0,1-.29-2.88,12.12,12.12,0,0,1,.29-2.88,12.85,12.85,0,0,1-.29-2.88,12.12,12.12,0,0,1,.29-2.88,12.85,12.85,0,0,1-.29-2.88,12.12,12.12,0,0,1,.29-2.88,12.88,12.88,0,0,1-.29-2.89,12.08,12.08,0,0,1,.29-2.87h5.76a12.08,12.08,0,0,1,.29,2.87,12.88,12.88,0,0,1-.29,2.89,12.12,12.12,0,0,1,.29,2.88,12.85,12.85,0,0,1-.29,2.88,12.12,12.12,0,0,1,.29,2.88,12.85,12.85,0,0,1-.29,2.88h2.88a12.12,12.12,0,0,1,.29,2.88,12.85,12.85,0,0,1-.29,2.88h-2.88a12.08,12.08,0,0,1,.29,2.87,12.88,12.88,0,0,1-.29,2.89A12.12,12.12,0,0,1,213.53,251.47Zm-.29,2.88h8.64a12.12,12.12,0,0,1,.29,2.88,12.85,12.85,0,0,1-.29,2.88h-8.64a12.85,12.85,0,0,1-.29-2.88A12.12,12.12,0,0,1,213.24,254.35Zm17.28-5.76h-2.88a12.12,12.12,0,0,1,.29,2.88,12.85,12.85,0,0,1-.29,2.88h-5.76a12.85,12.85,0,0,1-.29-2.88,12.12,12.12,0,0,1,.29-2.88h2.88a12.88,12.88,0,0,1-.29-2.89,12.08,12.08,0,0,1,.29-2.87h-2.88a12.85,12.85,0,0,1-.29-2.88,12.12,12.12,0,0,1,.29-2.88h-5.76a12.85,12.85,0,0,1-.29-2.88,12.12,12.12,0,0,1,.29-2.88h8.64a12.12,12.12,0,0,1,.29,2.88,12.85,12.85,0,0,1-.29,2.88h2.88a12.12,12.12,0,0,1,.29,2.88,12.85,12.85,0,0,1-.29,2.88h2.88a12.08,12.08,0,0,1,.29,2.87A12.88,12.88,0,0,1,230.52,248.59Z" transform="translate(-5.6 -3)"/><path d="M256.73,257.23a12.85,12.85,0,0,1-.29,2.88H239.16a12.85,12.85,0,0,1-.29-2.88,12.12,12.12,0,0,1,.29-2.88h5.76a12.85,12.85,0,0,1-.29-2.88,12.12,12.12,0,0,1,.29-2.88,12.88,12.88,0,0,1-.29-2.89,12.08,12.08,0,0,1,.29-2.87,12.85,12.85,0,0,1-.29-2.88,12.12,12.12,0,0,1,.29-2.88H240.6a12.85,12.85,0,0,1-.29-2.88,12.12,12.12,0,0,1,.29-2.88h10.08a12.12,12.12,0,0,1,.29,2.88,12.85,12.85,0,0,1-.29,2.88A12.12,12.12,0,0,1,251,240a12.85,12.85,0,0,1-.29,2.88,12.08,12.08,0,0,1,.29,2.87,12.88,12.88,0,0,1-.29,2.89,12.12,12.12,0,0,1,.29,2.88,12.85,12.85,0,0,1-.29,2.88h5.76A12.12,12.12,0,0,1,256.73,257.23Zm-11.81-31.68a12.88,12.88,0,0,1-.29-2.89,12.08,12.08,0,0,1,.29-2.87h5.76a12.08,12.08,0,0,1,.29,2.87,12.88,12.88,0,0,1-.29,2.89Z" transform="translate(-5.6 -3)"/><path d="M285.24,254.35a12.12,12.12,0,0,1,.29,2.88,12.85,12.85,0,0,1-.29,2.88H273.72a12.85,12.85,0,0,1-.29-2.88,12.12,12.12,0,0,1,.29-2.88h-2.88a12.85,12.85,0,0,1-.29-2.88,12.12,12.12,0,0,1,.29-2.88,12.88,12.88,0,0,1-.29-2.89,12.08,12.08,0,0,1,.29-2.87,12.85,12.85,0,0,1-.29-2.88,12.12,12.12,0,0,1,.29-2.88h-5.76a12.85,12.85,0,0,1-.29-2.88,12.12,12.12,0,0,1,.29-2.88h5.76a12.85,12.85,0,0,1-.29-2.88,12.12,12.12,0,0,1,.29-2.88,12.88,12.88,0,0,1-.29-2.89,12.08,12.08,0,0,1,.29-2.87h5.76a12.08,12.08,0,0,1,.29,2.87,12.88,12.88,0,0,1-.29,2.89,12.12,12.12,0,0,1,.29,2.88,12.85,12.85,0,0,1-.29,2.88h8.64a12.12,12.12,0,0,1,.29,2.88,12.85,12.85,0,0,1-.29,2.88H276.6a12.12,12.12,0,0,1,.29,2.88,12.85,12.85,0,0,1-.29,2.88,12.08,12.08,0,0,1,.29,2.87,12.88,12.88,0,0,1-.29,2.89,12.12,12.12,0,0,1,.29,2.88,12.85,12.85,0,0,1-.29,2.88Z" transform="translate(-5.6 -3)"/></g></svg>
