<svg xmlns="http://www.w3.org/2000/svg" viewBox="0 0 500 500"><title>Asset 1</title><g id="Layer_2" data-name="Layer 2"><g id="Layer_1-2" data-name="Layer 1"><g id="logo"><path id="circle" d="M235,0h30c6.43.76,12.88,1.36,19.28,2.31,50.77,7.5,95.55,28,133.55,62.6q61,55.56,77.26,136.63c2.19,11,3.3,22.3,4.91,33.46v30c-.3,1.6-.65,3.2-.89,4.81-1.72,11.51-2.71,23.18-5.22,34.51A249.34,249.34,0,0,1,298,495.18c-10.9,2.14-22,3.24-33,4.82H235a30.88,30.88,0,0,0-3.87-.79c-50.89-4-96.57-21.61-136.39-53.47C45.45,406.3,15.11,355.26,3.86,293.06,2.18,283.78,1.27,274.36,0,265V235a46.65,46.65,0,0,0,.87-4.81C2.42,209.85,6,189.87,13,170.71Q63.34,33.26,206.87,3.87C216.13,2,225.62,1.26,235,0ZM25,250.08C25,374.16,125.62,474.83,249.71,475S474.91,374.4,475,250.15,374.3,25,250,25,25,125.79,25,250.08Z"/><path id="middle" d="M355.51,404.09c-12.07-20.88-24-41.27-35.6-61.87-2.52-4.48-5.28-6.11-10.49-6.1-66.65.2-133.31.09-200,.22-4,0-6.23-1.17-8.2-4.7-7.72-13.8-15.79-27.4-23.72-41.09-.9-1.55-1.74-3.14-3-5.41,2.27-.1,4-.25,5.72-.25,22.32,0,44.66-.14,67,.1,4.22,0,6.52-1.25,8.61-4.89Q206,192.86,256.28,105.7c2-3.52,4.22-4.72,8.2-4.67,17.65.21,35.31.09,53.81.09-1,1.94-1.76,3.49-2.62,5-11.14,19.33-22.18,38.71-33.55,57.9-2.28,3.86-2.06,6.62.13,10.39q50.38,86.82,100.57,173.75c1.95,3.36,1.87,5.71-.05,9-8.32,14-16.35,28.24-24.49,42.38C357.47,400.9,356.6,402.29,355.51,404.09Z"/></g></g></g></svg>