<svg xmlns="http://www.w3.org/2000/svg" viewBox="0 0 459.89 125.24"><defs><style>.cls-1{fill:#fff;}.cls-2{fill:#e31b36;}.cls-3{fill:#00a2c9;}.cls-4{fill:#eeb146;}</style></defs><title>long-white</title><g id="Layer_2" data-name="Layer 2"><g id="logo_white" data-name="logo white"><path class="cls-1" d="M22,123.64H0V3.76H22v75.6L54.61,38H79.76L51.33,73.75l28.43,49.89H54.61L37.24,92.49,22,112.67Z"/><path class="cls-2" d="M114.19,14.57A14.05,14.05,0,0,1,113,20.26a14.51,14.51,0,0,1-3.16,4.6A15.47,15.47,0,0,1,105.18,28a14.71,14.71,0,0,1-11.45,0,14.77,14.77,0,0,1-4.64-3.13A14.93,14.93,0,0,1,86,20.26,14.41,14.41,0,0,1,86,8.93a14.58,14.58,0,0,1,7.77-7.77,14.71,14.71,0,0,1,11.45,0,15.63,15.63,0,0,1,4.69,3.12A14.51,14.51,0,0,1,113,8.93,14.13,14.13,0,0,1,114.19,14.57Zm-3.76,109.07h-22V37.88h22Z"/><path class="cls-1" d="M212.93,80a47.74,47.74,0,0,1-3.45,18.42,43.66,43.66,0,0,1-9.36,14.29,41.94,41.94,0,0,1-13.9,9.25,44.4,44.4,0,0,1-17.1,3.28,43.3,43.3,0,0,1-31-12.73,44,44,0,0,1-9.4-14.29A47,47,0,0,1,125.32,80V3.76h21.94v40a20,20,0,0,1,4.29-4A24.61,24.61,0,0,1,157,36.92a35.52,35.52,0,0,1,6-1.73,32.19,32.19,0,0,1,6.08-.6A43,43,0,0,1,186.22,38a42.58,42.58,0,0,1,13.9,9.49,45,45,0,0,1,9.36,14.37A46.75,46.75,0,0,1,212.93,80Zm-22,0a24.55,24.55,0,0,0-1.73-9.25,23.1,23.1,0,0,0-4.68-7.41,21.41,21.41,0,0,0-6.93-4.88,20.47,20.47,0,0,0-8.45-1.76,18.72,18.72,0,0,0-8.44,2,23.2,23.2,0,0,0-6.93,5.2,24.23,24.23,0,0,0-4.64,7.45A23,23,0,0,0,147.42,80a24.61,24.61,0,0,0,1.69,9.21,22.59,22.59,0,0,0,4.64,7.36,21.75,21.75,0,0,0,6.93,4.93,20.71,20.71,0,0,0,16.89,0,21.86,21.86,0,0,0,6.93-4.93,23.19,23.19,0,0,0,4.68-7.36A24.23,24.23,0,0,0,190.91,80Z"/><path class="cls-3" d="M250.81,14.57a13.9,13.9,0,0,1-1.17,5.69,14.51,14.51,0,0,1-3.16,4.6A15.43,15.43,0,0,1,241.8,28a14.71,14.71,0,0,1-11.45,0,14.93,14.93,0,0,1-4.65-3.13,14.74,14.74,0,0,1-3.12-4.6,13.89,13.89,0,0,1-1.16-5.69,14,14,0,0,1,1.16-5.64,14.73,14.73,0,0,1,3.12-4.65,15.08,15.08,0,0,1,4.65-3.12,14.71,14.71,0,0,1,11.45,0,15.58,15.58,0,0,1,4.68,3.12,14.51,14.51,0,0,1,3.16,4.65A14,14,0,0,1,250.81,14.57ZM247,123.64H225V37.88h22Z"/><path class="cls-1" d="M349.54,80a47.92,47.92,0,0,1-3.44,18.42,43.85,43.85,0,0,1-9.37,14.29A41.79,41.79,0,0,1,322.84,122a44.47,44.47,0,0,1-17.1,3.28,43.25,43.25,0,0,1-30.95-12.73,43.83,43.83,0,0,1-9.41-14.29A47,47,0,0,1,261.94,80V3.76h21.94v40a19.76,19.76,0,0,1,4.28-4,24.68,24.68,0,0,1,5.45-2.88,35.42,35.42,0,0,1,6-1.73,32.21,32.21,0,0,1,6.09-.6A43.11,43.11,0,0,1,322.84,38a42.43,42.43,0,0,1,13.89,9.49,45.18,45.18,0,0,1,9.37,14.37A46.93,46.93,0,0,1,349.54,80Zm-22,0a24.55,24.55,0,0,0-1.72-9.25,23.12,23.12,0,0,0-4.69-7.41,21.37,21.37,0,0,0-6.92-4.88,20.51,20.51,0,0,0-8.45-1.76,18.76,18.76,0,0,0-8.45,2,23.46,23.46,0,0,0-6.93,5.2,24.42,24.42,0,0,0-4.64,7.45A23.21,23.21,0,0,0,284,80a24.8,24.8,0,0,0,1.68,9.21,22.75,22.75,0,0,0,4.64,7.36,22,22,0,0,0,6.93,4.93,20.73,20.73,0,0,0,16.9,0,21.82,21.82,0,0,0,6.92-4.93,23.22,23.22,0,0,0,4.69-7.36A24.23,24.23,0,0,0,327.52,80Z"/><path class="cls-4" d="M387.42,14.57a14.05,14.05,0,0,1-1.16,5.69,14.54,14.54,0,0,1-3.17,4.6A15.3,15.3,0,0,1,378.41,28,14.71,14.71,0,0,1,367,28a14.69,14.69,0,0,1-7.77-7.73,14.41,14.41,0,0,1,0-11.33,14.9,14.9,0,0,1,3.12-4.65A15.08,15.08,0,0,1,367,1.16a14.71,14.71,0,0,1,11.45,0,15.46,15.46,0,0,1,4.68,3.12,14.54,14.54,0,0,1,3.17,4.65A14.13,14.13,0,0,1,387.42,14.57Zm-3.77,109.07h-22V37.88h22Z"/><path class="cls-1" d="M443.31,123.64a37.24,37.24,0,0,1-14.89-3A38.77,38.77,0,0,1,408,100.18a37.28,37.28,0,0,1-3-14.9V59.82H394.31V38H405V3.76h21.78V38h33.15V59.82H426.74V85.28A16.15,16.15,0,0,0,428,91.73,16.44,16.44,0,0,0,431.54,97a16.9,16.9,0,0,0,5.29,3.57,16.08,16.08,0,0,0,6.48,1.32h16.58v21.78Z"/></g></g></svg>