<svg xmlns="http://www.w3.org/2000/svg" viewBox="0 0 143.67 186.22"><defs><style>.cls-1{fill:#eeb146;}.cls-2{fill:#00a2c9;}.cls-3{fill:#e31b36;}</style></defs><title>short</title><g id="Layer_2" data-name="Layer 2"><g id="only_symbol" data-name="only symbol"><g id="iii_logo" data-name="iii logo"><g id="warning"><path class="cls-1" d="M143.67,22a21.1,21.1,0,0,1-1.75,8.56,22,22,0,0,1-4.77,6.94,23,23,0,0,1-7.05,4.7,22.13,22.13,0,0,1-17.25,0,22.1,22.1,0,0,1-11.7-11.64,21.66,21.66,0,0,1,0-17.06,22.18,22.18,0,0,1,4.71-7,22.39,22.39,0,0,1,7-4.7,22.13,22.13,0,0,1,17.25,0,23.14,23.14,0,0,1,7.05,4.7,21.84,21.84,0,0,1,4.77,7A21.27,21.27,0,0,1,143.67,22ZM138,186.22H104.83V57.05H138Z"/></g><path id="info" class="cls-2" d="M93.84,48.21a20.67,20.67,0,0,1-1.74,8.47,21.79,21.79,0,0,1-4.77,6.86,23,23,0,0,1-7,4.65,22.37,22.37,0,0,1-17.25,0,21.92,21.92,0,0,1-11.7-11.51,21.2,21.2,0,0,1,0-16.87A21.9,21.9,0,0,1,56,32.89a22.19,22.19,0,0,1,7-4.65,22.37,22.37,0,0,1,17.25,0,23,23,0,0,1,7,4.65,21.61,21.61,0,0,1,4.77,6.92A20.79,20.79,0,0,1,93.84,48.21ZM88.18,186H55V80.06H88.18Z"/><g id="error"><path class="cls-3" d="M44.26,22a20.94,20.94,0,0,1-1.75,8.56,21.84,21.84,0,0,1-4.76,6.94,22.89,22.89,0,0,1-7.06,4.7,21.36,21.36,0,0,1-8.62,1.75,21.36,21.36,0,0,1-8.62-1.75A22,22,0,0,1,1.75,30.51,20.94,20.94,0,0,1,0,22a21.1,21.1,0,0,1,1.75-8.5,22.15,22.15,0,0,1,4.7-7,22.32,22.32,0,0,1,7-4.7A21.36,21.36,0,0,1,22.07,0a21.36,21.36,0,0,1,8.62,1.75,23.07,23.07,0,0,1,7.06,4.7,21.66,21.66,0,0,1,4.76,7A21.1,21.1,0,0,1,44.26,22ZM38.59,186.22H5.43V57.05H38.59Z"/></g></g></g></g></svg>