<svg xmlns="http://www.w3.org/2000/svg" xmlns:xlink="http://www.w3.org/1999/xlink" viewBox="0 0 375.2 375.27"><defs><linearGradient id="tdd1t_gradient" x1="319.18" y1="214.46" x2="319.18" y2="77.25" gradientUnits="userSpaceOnUse"><stop offset="0" stop-color="#8e54e9"/><stop offset="1" stop-color="#4776e6"/></linearGradient><linearGradient id="tdd1t_gradient-2" x1="187.49" y1="214.35" x2="187.49" y2="77.15" xlink:href="#tdd1t_gradient"/><linearGradient id="tdd1t_gradient-3" x1="56.09" y1="214.46" x2="56.09" y2="77.25" xlink:href="#tdd1t_gradient"/></defs><title>Artboard 1</title><g id="background"><rect y="-0.05" width="375.27" height="375.27" style="fill:#353030"/></g><g id="Reconstruct"><g id="bot-face"><text transform="translate(152.21 224.57) rotate(90)" style="font-size:99.25409698486328px;fill:#f5f5f5;font-family:MajorMonoDisplay-Regular, Major Mono Display">D</text><text transform="translate(160.91 183.09) rotate(-90)" style="font-size:40.77295684814453px;fill:#f5f5f5;font-family:MajorMonoDisplay-Regular, Major Mono Display">D</text><text transform="translate(246.91 183.09) rotate(-90)" style="font-size:40.77295684814453px;fill:#f5f5f5;font-family:MajorMonoDisplay-Regular, Major Mono Display">D</text><g id="right_ear" data-name="right ear"><path d="M266,214.46V77.25H317a53.61,53.61,0,0,1,27.69,7.49A56.25,56.25,0,0,1,364.92,105a53.64,53.64,0,0,1,7.49,27.7v26.41a53.64,53.64,0,0,1-7.49,27.7A56.15,56.15,0,0,1,344.71,207a53.52,53.52,0,0,1-27.69,7.5Z" style="fill:url(#tdd1t_gradient)"/></g><g id="eyebrows"><path d="M183.94,214.35V111.84H132.09V77.15H242.88v34.69H191V214.35Z" style="fill:url(#tdd1t_gradient-2)"/></g><g id="ear_left" data-name="ear left"><path d="M58.26,214.46a53.56,53.56,0,0,1-27.7-7.5,56.15,56.15,0,0,1-20.21-20.2,53.64,53.64,0,0,1-7.49-27.7V132.65A53.64,53.64,0,0,1,10.35,105,56.25,56.25,0,0,1,30.56,84.74a53.64,53.64,0,0,1,27.7-7.49h51.05V214.46Z" style="fill:url(#tdd1t_gradient-3)"/></g></g></g></svg>