<svg height="511pt" viewBox="0 -48 511.99961 511" width="511pt" xmlns="http://www.w3.org/2000/svg"><path d="m396.574219 343.757812 105.710937-230.226562c8.25-17.96875-7.601562-37.625-26.910156-33.375l-145.691406 32.089844 13.402344 203.917968zm0 0" fill="#ff9000"/><path d="m379.105469 255.074219-178.417969-133.074219-118.273438-51.105469c-11.164062-4.824219-24.179687-1.40625-31.535156 8.28125l-40.6875 53.605469c-7.246094 9.546875 1.105469 22.992188 12.871094 20.734375l60.675781-11.65625 28.183594 109.71875c4.148437 16.15625 15.417969 29.550781 30.628906 36.402344l263.269531 118.578125c16.265626 7.328125 33.09375-9.070313 26.183594-25.515625zm0 0" fill="#ffbe73"/><path d="m379.105469 255.074219-49.902344-37.222657-76.886719 119.566407 153.503906 69.140625c16.265626 7.328125 33.09375-9.070313 26.183594-25.519532zm0 0" fill="#ffa93f"/><path d="m65.289062 69.578125c-5.597656 1.453125-10.714843 4.734375-14.410156 9.597656l-40.6875 53.605469c-7.246094 9.546875 1.105469 22.992188 12.871094 20.734375l60.675781-11.660156zm0 0" fill="#ffd4a3"/><path d="m281.613281 58.503906-80.925781 63.496094-103.351562 72.796875 14.585937 56.78125c4.148437 16.15625 15.417969 29.550781 30.628906 36.398437l181.46875 81.738282-25.175781-322.582032c-6.023438 3.308594-11.789062 7.105469-17.230469 11.371094zm0 0" fill="#ffd4a3"/><path d="m450.050781 8.574219-117.460937 25.867187c-11.832032 2.605469-23.1875 6.894532-33.746094 12.691406l25.175781 322.582032 55.082031-114.640625 97.859376-213.125c8.25-17.96875-7.601563-37.628907-26.910157-33.375zm0 0" fill="#ffbe73"/><path d="m505.003906 83.804688c-7.539062-9.351563-22.828125-13.367188-34.277344-10.300782l13.050782-28.425781c5.011718-10.917969 3.441406-23.503906-4.097656-32.855469-7.539063-9.351562-19.511719-13.558594-31.242188-10.972656l-117.460938 25.867188c-12.480468 2.75-24.507812 7.273437-35.742187 13.441406-6.40625 3.519531-12.546875 7.570312-18.25 12.046875l-77.417969 60.738281-114.179687-49.332031c-14.367188-6.210938-31.015625-1.839844-40.480469 10.628906l-40.691406 53.605469c-5.195313 6.847656-5.621094 15.984375-1.089844 23.285156 4.535156 7.300781 12.917969 10.976562 21.355469 9.347656l53.75-10.324218 26.425781 102.886718c4.742188 18.46875 17.429688 33.546875 34.8125 41.375l263.273438 118.582032c14.191406 5.296874 24.894531-.242188 30.097656-5.3125 8.042968-7.839844 10.429687-19.59375 6.082031-29.949219l-23.828125-56.734375 43.660156-95.085938c1.726563-3.761718.078125-8.214844-3.6875-9.945312-3.769531-1.726563-8.214844-.074219-9.945312 3.6875l-37.914063 82.566406-19.914062-47.414062 75.585937-164.621094 14.109375-3.105469c6.230469-1.371094 12.335938.773437 16.335938 5.734375 4.003906 4.964844 4.804687 11.386719 2.144531 17.183594l-36.261719 78.980468c-1.726562 3.761719-.09375 8.25 3.6875 9.945313 5.308594 2.375 8.683594-.9375 9.945313-3.691406l36.265625-78.976563c5.007812-10.917968 3.4375-23.507812-4.101563-32.855468zm-170.800781-42.039063 117.460937-25.867187c6.226563-1.371094 12.335938.773437 16.339844 5.738281 4 4.964843 4.800782 11.386719 2.140625 17.179687l-140.816406 302.527344-22.621094-289.863281c8.742188-4.355469 17.96875-7.617188 27.496094-9.714844zm-312.554687 104.382813c-3.492188.667968-5.304688-1.765626-5.777344-2.53125-.476563-.761719-1.855469-3.472657.292968-6.300782 0 0 42.847657-56.089844 44.105469-57.074218l14.230469 55.75zm97.539062 103.5625-28.183594-109.71875c0-.007813-16.222656-63.554688-16.222656-63.554688 1.574219.242188 110.644531 47.136719 110.644531 47.136719l-65.386719 46.054687c-3.382812 2.386719-4.195312 7.0625-1.8125 10.453125 2.386719 3.386719 7.066407 4.199219 10.453126 1.8125l76.328124-53.765625c.105469-.074218 85.234376-66.757812 87.3125-68.1875l23.234376 297.734375-169.925782-76.539062c-13.203125-5.945313-22.84375-17.398438-26.441406-31.425781zm303.179688 147.632812c-3.710938 3.617188-8.746094 4.5-13.46875 2.378906l-74.789063-33.6875 44.535156-92.6875 46.445313 110.59375c2.003906 4.777344.988281 9.789063-2.722656 13.402344zm0 0"/></svg>