<svg width="145" height="144" viewBox="0 0 145 144" fill="none" xmlns="http://www.w3.org/2000/svg">
<path d="M144.852 71.1359H116.861C116.861 83.6833 111.664 94.9685 103.274 103.061C101.121 105.14 98.7455 106.996 96.2954 108.555C96.2954 108.555 96.1469 108.555 96.1469 108.63C93.6969 110.189 91.1726 111.451 88.4997 112.49C88.4997 112.49 88.4255 112.49 88.3512 112.49C85.6784 113.53 82.9314 114.272 80.1843 114.792C66.1521 117.242 51.2289 112.936 40.5376 101.947C40.5376 101.947 40.5376 101.947 40.5376 101.873C38.4588 99.7202 36.6769 97.4186 35.1178 95.0427C35.0435 94.8942 34.895 94.7458 34.8208 94.5973C33.3359 92.2957 32.148 89.8456 31.1828 87.3213C31.1085 87.0985 31.0343 86.8758 30.9601 86.6531C29.9949 84.203 29.3267 81.6044 28.8812 79.0801C28.8812 78.8574 28.807 78.5604 28.7327 78.3377C26.4311 64.4539 30.7373 49.6792 41.6513 39.1364L22.1992 19.0161C7.35023 33.2711 0 52.2035 0 71.1359C0 71.9526 0.0742447 72.8436 0.148489 73.6602C0.148489 74.9967 0.222734 76.3331 0.371224 77.6695C0.445468 78.9316 0.668203 80.1195 0.816692 81.3075C0.965182 82.4211 1.11367 83.5348 1.33641 84.6485C1.55914 85.9849 1.93036 87.247 2.22734 88.5834C2.45008 89.5486 2.67281 90.5138 2.96979 91.479C3.34101 92.8154 3.78648 94.1518 4.3062 95.414C4.60317 96.3049 4.9744 97.1958 5.27138 98.0868C5.79109 99.4232 6.38505 100.685 6.97901 101.947C7.35023 102.764 7.7957 103.655 8.24117 104.472C8.90937 105.808 9.65182 107.07 10.3943 108.333C10.8397 109.075 11.2852 109.817 11.7307 110.56C12.6216 111.896 13.5868 113.233 14.552 114.495C14.9974 115.089 15.3687 115.683 15.8884 116.277C17.0763 117.762 18.3385 119.172 19.6749 120.583C19.9718 120.88 20.1946 121.177 20.4173 121.474C20.4173 121.474 20.5658 121.622 20.64 121.697C22.1992 123.256 23.7583 124.741 25.4659 126.151C25.6144 126.3 25.7629 126.448 25.9857 126.597C38.0876 136.768 53.4562 143.005 70.384 143.525C70.7552 143.525 71.1265 143.525 71.4977 143.525C71.8689 143.525 72.1659 143.525 72.5371 143.525C74.022 143.525 75.4327 143.376 76.8433 143.302C77.4373 143.302 78.0312 143.302 78.5509 143.228C80.3328 143.079 82.1147 142.856 83.8966 142.559C84.4163 142.485 85.0102 142.411 85.53 142.337C87.3118 142.04 89.0195 141.594 90.7271 141.149C91.321 141 91.8408 140.852 92.4347 140.703C94.1423 140.258 95.7757 139.664 97.4091 139.07C98.0031 138.847 98.597 138.624 99.191 138.402C100.75 137.808 102.309 137.065 103.794 136.323C104.388 136.026 105.056 135.729 105.65 135.432C107.135 134.689 108.62 133.798 110.031 132.982C110.625 132.611 111.219 132.314 111.813 131.868C113.297 130.903 114.708 129.864 116.119 128.824C116.639 128.453 117.084 128.082 117.604 127.71C119.163 126.523 120.573 125.186 122.058 123.85C122.355 123.627 122.578 123.404 122.875 123.107C136.462 109.892 145 91.479 145 71.0617L144.852 71.1359Z" fill="#691E6B"/>
<path d="M135.867 43.2189L125.176 42.8477L119.533 51.8313L124.582 61.1119L135.273 61.4831L140.916 52.4995L135.867 43.2189Z" fill="#E0246C"/>
<path d="M88.1333 0.454834H69.9434V18.6448H88.1333V0.454834Z" fill="#FBBC05"/>
<path d="M102.579 16.6097L101.408 26.4894C101.143 28.7289 102.743 30.7596 104.983 31.0251L114.862 32.1962C117.102 32.4616 119.133 30.8613 119.398 28.6218L120.569 18.7421C120.835 16.5026 119.234 14.4719 116.995 14.2064L107.115 13.0353C104.876 12.7699 102.845 14.3702 102.579 16.6097Z" fill="#01BEFE"/>
<path d="M36.1562 15.526C36.1562 20.7231 40.3882 24.9551 45.5853 24.9551C50.7825 24.9551 55.0144 20.7231 55.0144 15.526C55.0144 10.3289 50.7825 6.09692 45.5853 6.09692C40.3882 6.09692 36.1562 10.3289 36.1562 15.526Z" fill="#72F2EB"/>
</svg>
