<svg width="250" height="40" viewBox="0 0 250 40" fill="none" xmlns="http://www.w3.org/2000/svg">
<g clip-path="url(#clip0_1196_685)">
<path d="M40.4772 19.7511H32.6556C32.6556 23.2573 31.2033 26.4108 28.8589 28.6722C28.2573 29.2532 27.5934 29.7718 26.9087 30.2075C26.9087 30.2075 26.8672 30.2075 26.8672 30.2283C26.1826 30.6639 25.4772 31.0166 24.7303 31.3071C24.7303 31.3071 24.7095 31.3071 24.6888 31.3071C23.9419 31.5976 23.1743 31.805 22.4066 31.9503C18.4855 32.6349 14.3154 31.4316 11.3278 28.361C11.3278 28.361 11.3278 28.361 11.3278 28.3403C10.7469 27.7386 10.249 27.0955 9.81328 26.4316C9.79253 26.3901 9.75104 26.3486 9.73029 26.3071C9.31535 25.6639 8.9834 24.9793 8.71369 24.2739C8.69295 24.2117 8.6722 24.1494 8.65145 24.0872C8.38174 23.4025 8.19502 22.6764 8.07054 21.971C8.07054 21.9088 8.04979 21.8258 8.02905 21.7635C7.38589 17.8839 8.58921 13.7552 11.639 10.8092L6.20332 5.18677C2.05394 9.17017 0 14.4606 0 19.7511C0 19.9793 0.0207469 20.2283 0.0414938 20.4565C0.0414938 20.8299 0.0622407 21.2034 0.103734 21.5768C0.124481 21.9295 0.186722 22.2615 0.228216 22.5934C0.26971 22.9046 0.311203 23.2158 0.373444 23.527C0.435685 23.9005 0.539419 24.2532 0.622407 24.6266C0.684647 24.8963 0.746888 25.166 0.829875 25.4357C0.93361 25.8092 1.05809 26.1826 1.20332 26.5353C1.28631 26.7843 1.39004 27.0332 1.47303 27.2822C1.61826 27.6556 1.78423 28.0083 1.95021 28.361C2.05394 28.5893 2.17842 28.8382 2.3029 29.0664C2.48963 29.4399 2.6971 29.7926 2.90456 30.1453C3.02905 30.3527 3.15353 30.5602 3.27801 30.7677C3.52697 31.1411 3.79668 31.5146 4.06639 31.8673C4.19087 32.0332 4.29461 32.1992 4.43983 32.3652C4.77178 32.7801 5.12448 33.1743 5.49793 33.5685C5.58091 33.6515 5.64315 33.7345 5.70539 33.8175C5.70539 33.8175 5.74689 33.859 5.76763 33.8797C6.20332 34.3154 6.639 34.7303 7.11618 35.1245C7.15768 35.166 7.19917 35.2075 7.26141 35.249C10.6432 38.0913 14.9378 39.8341 19.668 39.9793C19.7718 39.9793 19.8755 39.9793 19.9793 39.9793C20.083 39.9793 20.166 39.9793 20.2697 39.9793C20.6846 39.9793 21.0788 39.9378 21.473 39.9171C21.639 39.9171 21.805 39.9171 21.9502 39.8963C22.4481 39.8548 22.9461 39.7926 23.444 39.7096C23.5892 39.6888 23.7552 39.6681 23.9004 39.6473C24.3983 39.5644 24.8755 39.4399 25.3527 39.3154C25.5187 39.2739 25.6639 39.2324 25.8299 39.1909C26.3071 39.0664 26.7635 38.9005 27.2199 38.7345C27.3859 38.6722 27.5519 38.61 27.7178 38.5478C28.1535 38.3818 28.5892 38.1743 29.0041 37.9668C29.1701 37.8839 29.3568 37.8009 29.5228 37.7179C29.9378 37.5104 30.3527 37.2615 30.7469 37.0332C30.9129 36.9295 31.0788 36.8465 31.2448 36.722C31.6597 36.4523 32.0539 36.1619 32.4481 35.8714C32.5934 35.7677 32.7178 35.6639 32.8631 35.5602C33.2988 35.2283 33.6929 34.8548 34.1079 34.4814C34.1909 34.4191 34.2531 34.3569 34.3361 34.2739C38.1328 30.581 40.5187 25.4357 40.5187 19.7303L40.4772 19.7511Z" fill="white"/>
<path d="M37.9671 11.9499L34.9796 11.8462L33.4028 14.3566L34.8136 16.9499L37.8012 17.0537L39.3779 14.5433L37.9671 11.9499Z" fill="#E0246C"/>
<path d="M24.6273 0H19.5443V5.08299H24.6273V0Z" fill="#FBBC05"/>
<path d="M28.6647 4.5143L28.3374 7.27506C28.2633 7.90088 28.7105 8.46834 29.3363 8.54252L32.097 8.86977C32.7228 8.94395 33.2903 8.49676 33.3645 7.87094L33.6917 5.11018C33.7659 4.48436 33.3187 3.9169 32.6929 3.84272L29.9322 3.51547C29.3063 3.44129 28.7389 3.88848 28.6647 4.5143Z" fill="#01BEFE"/>
<path d="M10.1041 4.21151C10.1041 5.6638 11.2867 6.84637 12.739 6.84637C14.1913 6.84637 15.3738 5.6638 15.3738 4.21151C15.3738 2.75923 14.1913 1.57666 12.739 1.57666C11.2867 1.57666 10.1041 2.75923 10.1041 4.21151Z" fill="#72F2EB"/>
<path d="M65.7054 23.5478C63.195 23.5478 61.4315 21.8673 61.4315 19.4399C61.4315 17.0125 63.195 15.332 65.7054 15.332C68.2157 15.332 69.9792 17.0332 69.9792 19.4399C69.9792 21.8465 68.2157 23.5478 65.7054 23.5478ZM69.9792 11.6806V13.8382L69.5436 13.2988C68.444 11.9295 66.8672 11.2241 64.8755 11.2241C60.4149 11.2241 56.9294 14.8341 56.9294 19.4399C56.9294 24.0457 60.4149 27.6557 64.8755 27.6557C66.8672 27.6557 68.444 26.9503 69.5436 25.581L69.9792 25.0415V27.2822C69.9792 29.7096 68.527 31.0996 65.9751 31.0996C63.6514 31.0996 62.6556 30.0623 62.0747 29.0872L58.2365 31.3071C59.6888 33.693 62.3651 35.0001 65.8091 35.0001C68.112 35.0001 70.2074 34.3569 71.722 33.1743C73.444 31.8258 74.3568 29.7718 74.3568 27.2822V11.7013H69.9792V11.6806Z" fill="white"/>
<path d="M185.83 24.0872C183.32 24.0872 181.618 22.3445 181.618 19.7718C181.618 17.1992 183.32 15.4565 185.83 15.4565C188.34 15.4565 190.042 17.1992 190.042 19.7718C190.042 22.3445 188.34 24.0872 185.83 24.0872ZM186.826 11.2241C184.772 11.2241 183.174 11.888 182.054 13.1743L181.618 13.6723V11.7013H177.116V34.5436H181.618V25.8922L182.054 26.3901C183.174 27.6764 184.793 28.3403 186.826 28.3403C191.162 28.3403 194.544 24.5851 194.544 19.7926C194.544 15.0001 191.162 11.2449 186.826 11.2449" fill="white"/>
<path d="M237.178 18.2781L237.261 17.9669C237.759 16.1619 239.128 15.1453 241.12 15.1453C243.111 15.1453 244.398 16.1619 244.896 17.9669L244.979 18.2781H237.157H237.178ZM249.377 19.7718C249.377 14.8963 245.85 11.2241 241.161 11.2241C236.161 11.2241 232.531 14.8133 232.531 19.7718C232.531 24.7303 236.223 28.3196 241.514 28.3196C244.501 28.3196 246.825 27.2822 248.423 25.2075L244.833 23.1328C244.066 23.9005 242.862 24.3362 241.597 24.3362C239.398 24.3362 237.966 23.5063 237.365 21.8465L237.24 21.5146H249.232C249.335 20.9544 249.398 20.3735 249.398 19.7511" fill="white"/>
<path d="M224.418 28.3196C219.522 28.3196 215.829 24.6474 215.829 19.7718C215.829 14.8963 219.522 11.2241 224.418 11.2241C227.427 11.2241 230.145 12.7179 231.618 15.1453L227.676 17.4274C227.033 16.3071 225.808 15.664 224.356 15.664C222.033 15.664 220.352 17.3859 220.352 19.7718C220.352 22.1577 222.033 23.8797 224.356 23.8797C225.808 23.8797 227.074 23.2158 227.696 22.1162L231.618 24.3569C230.165 26.805 227.427 28.3196 224.418 28.3196Z" fill="white"/>
<path d="M204.771 24.0872C202.26 24.0872 200.559 22.3444 200.559 19.7718C200.559 17.1992 202.26 15.4565 204.771 15.4565C207.281 15.4565 208.982 17.1992 208.982 19.7718C208.982 22.3444 207.281 24.0872 204.771 24.0872ZM208.982 11.6805V13.6515L208.547 13.1536C207.426 11.8673 205.808 11.2034 203.775 11.2034C199.439 11.2034 196.057 14.9586 196.057 19.7511C196.057 24.5436 199.439 28.2988 203.775 28.2988C205.829 28.2988 207.426 27.6349 208.547 26.3486L208.982 25.8507V27.8216H213.484V11.6391H208.982V11.6805Z" fill="white"/>
<path d="M168.257 28.3195C164.958 28.3195 162.656 27.0955 161.411 24.6888L165.29 22.4689C165.809 23.693 166.826 24.3361 168.257 24.3361C170.041 24.3361 170.311 23.527 170.311 23.0498C170.311 22.1992 169.149 21.888 167.697 21.4731C165.332 20.8092 162.095 19.9171 162.095 16.4108C162.095 12.9046 165.249 11.1826 168.382 11.1826C170.996 11.1826 173.216 12.3652 174.544 14.4191L170.726 16.4731C170.166 15.5395 169.398 15.083 168.402 15.083C167.407 15.083 166.763 15.5187 166.763 16.2656C166.763 17.137 167.905 17.4274 169.336 17.8009C171.701 18.4233 174.958 19.2739 174.958 23.0498C174.958 26.8258 171.494 28.2781 168.278 28.2781" fill="white"/>
<path d="M96.3064 23.942C93.9412 23.942 92.2192 22.1785 92.2192 19.7511C92.2192 17.3237 93.9412 15.581 96.3064 15.581C98.6715 15.581 100.394 17.3444 100.394 19.7511C100.394 22.1577 98.6715 23.942 96.3064 23.942ZM96.3064 11.2034C91.4931 11.2034 87.7172 14.9586 87.7172 19.7511C87.7172 24.5436 91.4931 28.2988 96.3064 28.2988C101.12 28.2988 104.896 24.5436 104.896 19.7511C104.896 14.9586 101.12 11.2034 96.3064 11.2034Z" fill="white"/>
<path d="M138.589 28.0498C136.244 28.0498 134.585 27.5727 133.526 26.5976C132.51 25.6639 132.012 24.2324 132.012 22.1992V8.52701L136.514 7.17847V11.7635H140.601V16.0789H136.514V22.22C136.514 23.7552 138.319 23.942 139.688 23.942C139.979 23.942 140.269 23.9419 140.622 23.9212V27.9668C139.896 28.0291 139.211 28.0706 138.589 28.0706" fill="white"/>
<path d="M154.729 27.8423V18.5892C154.729 16.1618 153.11 15.3112 151.575 15.3112C149.459 15.3112 148.235 16.6598 148.235 18.9834V27.8423H143.733V5.02075H148.235V13.7552L148.671 13.1535C149.563 11.9295 151.243 11.2241 153.235 11.2241C156.222 11.2241 159.231 13.278 159.231 17.8838V27.8631H154.729V27.8423Z" fill="white"/>
<path d="M120.229 27.8422L117.387 18.3402L114.544 27.8422H110.229L105.063 11.6804H109.876L112.449 21.2862L115.229 11.6804H119.544L122.325 21.2862L124.918 11.6804H129.71L124.544 27.8422H120.229Z" fill="white"/>
<path d="M77.1151 27.8424V17.6972C77.1151 13.2366 80.5591 11.2449 83.9616 11.2449C85.1856 11.2449 86.3682 11.4731 87.2603 11.888L86.223 15.6017C85.7251 15.3943 85.1442 15.2698 84.584 15.2698C83.2769 15.2698 81.7624 16.0582 81.7624 18.2573V27.8424H77.0944H77.1151Z" fill="white"/>
</g>
<defs>
<clipPath id="clip0_1196_685">
<rect width="249.378" height="40" fill="white"/>
</clipPath>
</defs>
</svg>
