<?xml version="1.0" encoding="iso-8859-1"?>
<!-- Generator: Adobe Illustrator 19.0.0, SVG Export Plug-In . SVG Version: 6.00 Build 0)  -->
<svg version="1.1" id="Capa_1" xmlns="http://www.w3.org/2000/svg" xmlns:xlink="http://www.w3.org/1999/xlink" x="0px" y="0px"
	 viewBox="0 0 511.999 511.999" style="enable-background:new 0 0 511.999 511.999;" xml:space="preserve">
<path style="fill:#FF5023;" d="M389.995,350.091H122.005c-45.612,0-85.331-31.14-96.215-75.435L9.564,208.625h492.873
	l-16.226,66.031C475.326,318.95,435.608,350.091,389.995,350.091z"/>
<path style="fill:#D80029;" d="M103.868,274.655l-16.226-66.031H9.564l16.226,66.031c10.884,44.295,50.603,75.435,96.215,75.435
	h78.079C154.471,350.091,114.752,318.95,103.868,274.655z"/>
<polygon style="fill:#FF5023;" points="359.425,449.329 152.575,449.329 183.931,350.091 328.069,350.091 "/>
<polygon style="fill:#D80029;" points="183.931,350.091 152.575,449.329 215.474,449.329 246.83,350.091 "/>
<polygon style="fill:#FEDA44;" points="326.926,208.624 185.074,208.624 206.577,62.669 305.423,62.669 "/>
<polygon style="fill:#FF9911;" points="206.577,62.669 185.074,208.624 231.09,208.624 252.593,62.669 "/>
<path d="M333.4,201.126L311.898,55.172H200.102L178.6,201.126H0l18.507,75.32c11.74,47.776,54.299,81.143,103.496,81.143h51.694
	l-31.356,99.238h227.316l-31.356-99.238h51.694c49.197,0,91.757-33.367,103.496-81.143l18.507-75.32L333.4,201.126L333.4,201.126z
	 M213.051,70.168h85.897l19.293,130.958h-98.578l4.984-33.825l-14.836-2.185l-5.306,36.011h-10.747L213.051,70.168z M349.193,441.83
	H162.807l3.213-10.168h41.386v-14.996h-36.648l18.666-59.078h15.588l-12.595,39.862l14.299,4.519l14.022-44.381h101.836
	L349.193,441.83z M478.93,272.867c-10.088,41.053-46.659,69.726-88.934,69.726H122.005c-42.275,0-78.846-28.673-88.934-69.726
	l-4.827-19.643h81.794v-14.996H24.559l-5.432-22.104h473.746L478.93,272.867z"/>
<g>
	<path style="fill:#FFFFFF;" d="M464.487,268.906l-14.562-3.579c-6.66,27.104-30.804,46.034-58.714,46.034v14.996
		C426.044,326.356,456.176,302.732,464.487,268.906z"/>
	
		<rect x="455.254" y="233.19" transform="matrix(-0.9711 -0.2387 0.2387 -0.9711 853.7604 592.4421)" style="fill:#FFFFFF;" width="14.996" height="22.672"/>
	
		<rect x="271.8" y="85.836" transform="matrix(-0.1458 -0.9893 0.9893 -0.1458 230.6336 385.802)" style="fill:#FFFFFF;" width="20.145" height="14.996"/>
	
		<rect x="282.443" y="116.108" transform="matrix(0.9893 -0.1457 0.1457 0.9893 -18.4888 43.8265)" style="fill:#FFFFFF;" width="14.996" height="64.042"/>
</g>
<path d="M435.41,179.419h14.996c0-7.295,2.448-10.563,5.837-15.089c3.935-5.253,8.832-11.79,8.832-24.078
	c0-12.289-4.897-18.826-8.832-24.079c-3.389-4.524-5.837-7.794-5.837-15.088c0-7.293,2.448-10.561,5.837-15.085
	c3.935-5.253,8.832-11.789,8.832-24.076h-14.996c0,7.293-2.448,10.56-5.837,15.084c-3.935,5.253-8.832,11.789-8.832,24.077
	s4.897,18.825,8.832,24.078c3.389,4.525,5.837,7.794,5.837,15.089c0,7.294-2.448,10.563-5.837,15.088
	C440.306,160.593,435.41,167.13,435.41,179.419z"/>
<path d="M387.297,111.157c-1.118-1.994-2.4-4.943-2.4-10.071c0-7.293,2.448-10.561,5.837-15.085
	c3.935-5.253,8.832-11.789,8.832-24.076H384.57c0,7.292-2.448,10.56-5.837,15.084c-3.936,5.253-8.833,11.789-8.833,24.077
	c0,6.618,1.371,12.148,4.314,17.402L387.297,111.157z"/>
<path d="M390.734,164.33c3.935-5.253,8.832-11.79,8.832-24.078c0-6.615-1.37-12.143-4.311-17.396l-13.085,7.326
	c1.117,1.994,2.398,4.942,2.398,10.069c0,7.294-2.448,10.562-5.837,15.087c-3.935,5.254-8.832,11.791-8.832,24.08h14.996
	C384.897,172.124,387.345,168.854,390.734,164.33z"/>
<path d="M112.433,179.419h14.996c0-7.295,2.448-10.563,5.839-15.089c3.935-5.253,8.832-11.79,8.832-24.078
	c0-12.289-4.897-18.826-8.832-24.08c-3.389-4.524-5.837-7.793-5.837-15.087c0-7.293,2.448-10.561,5.837-15.085
	c3.935-5.253,8.832-11.789,8.832-24.076h-14.996c0,7.293-2.448,10.56-5.837,15.084c-3.936,5.253-8.833,11.789-8.833,24.077
	s4.897,18.825,8.832,24.078c3.39,4.525,5.838,7.794,5.838,15.089c0,7.294-2.448,10.562-5.837,15.087
	C117.331,160.593,112.433,167.13,112.433,179.419z"/>
<path d="M64.321,111.158c-1.118-1.995-2.4-4.944-2.4-10.072c0-7.293,2.448-10.561,5.837-15.085
	c3.935-5.253,8.832-11.789,8.832-24.076H61.594c0,7.293-2.448,10.56-5.837,15.084c-3.935,5.253-8.832,11.789-8.832,24.077
	c0,6.618,1.371,12.147,4.313,17.401L64.321,111.158z"/>
<path d="M67.759,164.33c3.935-5.253,8.832-11.79,8.832-24.078c0-6.617-1.37-12.145-4.311-17.396l-13.085,7.327
	c1.117,1.993,2.398,4.94,2.398,10.068c0,7.294-2.448,10.563-5.837,15.088c-3.935,5.253-8.832,11.79-8.832,24.079H61.92
	C61.921,172.124,64.369,168.854,67.759,164.33z"/>
<g>
</g>
<g>
</g>
<g>
</g>
<g>
</g>
<g>
</g>
<g>
</g>
<g>
</g>
<g>
</g>
<g>
</g>
<g>
</g>
<g>
</g>
<g>
</g>
<g>
</g>
<g>
</g>
<g>
</g>
</svg>
