<svg id="Layer_1" data-name="Layer 1" xmlns="http://www.w3.org/2000/svg" viewBox="0 0 658.71 718.75"><title>lit</title><path d="M330,718.74q-142.24,0-284.49-.12a73.83,73.83,0,0,1-21.15-2.85C10,711.42,2.15,700.84.45,686.15c-.82-7.06-.32-14.3,0-21.44a18.18,18.18,0,0,1,2-7.14Q63.16,534.81,124,412.1q26-52.41,51.79-104.88c3.75-7.58,4.73-7.89,13.3-6.19,21.65,4.31,49.85,28,49.52,62-.37,38.83-.19,77.66,0,116.49.09,20.79,19.62,34.94,39.49,29,12.77-3.83,21.34-15.42,21.37-29.36.08-38.34,0-76.67.09-115a54,54,0,0,1,1.22-12.39c3.24-13.42,15.73-22.28,29.85-21.59s25.82,10.82,27.11,24.74c1.07,11.57.59,23.29.83,34.94.31,15.18,11.57,28,26,29.68,16,1.83,30-7.23,34-22.3a40.93,40.93,0,0,0,1-9.4c.28-11-.07-22,.71-33,1.77-24.84,25.78-50.3,50.47-54.16,7.14-1.11,8-.7,11.25,5.88q85.86,173.93,171.67,347.87c7.12,14.45,6.35,29.54,1,44.21-4.54,12.44-15,17.73-27.58,19.25a128.62,128.62,0,0,1-15.46.84Q470.75,718.79,330,718.74Z"/><path d="M418.53,133.39c3.07-1.22,4.91-1.87,6.69-2.67,23.56-10.56,47.08-21.21,70.67-31.71,19.34-8.61,38.6,1.64,42.2,22.5C540,132.4,535.6,141.09,527.47,148c-12.56,10.69-25.24,21.24-37.87,31.85Q459.74,204.94,429.87,230c-15.74,13.17-33.45,10.95-46.12-5.3-6.23-8-12.46-16.17-19.82-23.06-21.89-20.51-49-20.26-70.61.53-6.8,6.55-12.69,14.12-18.4,21.67-15.08,19.9-37.65,19.89-51.82-.47q-48.69-69.93-97.17-140c-11.75-17-5.94-37.57,12.8-45.07,12.09-4.84,22.75-1.71,32.07,7.2q30.88,29.54,62,58.86l28.28,26.84c5,4.73,5,4.74,9.41-.8q47.48-59.31,95-118.61C379.79-6.08,407-3.13,415.55,17.32c2.23,5.34,2.79,11.67,2.84,17.56.28,30.49.14,61,.14,91.47Z"/></svg>