<svg height="512pt" viewBox="0 -16 512 512" width="512pt" xmlns="http://www.w3.org/2000/svg"><path d="m8 40h496v400h-496zm0 0" fill="#fdf8ff"/><path d="m8 40h496v64h-496zm0 0" fill="#cf71fb"/><path d="m32 64h16v16h-16zm0 0"/><path d="m64 64h16v16h-16zm0 0"/><path d="m96 64h16v16h-16zm0 0"/><path d="m0 40v400c0 4.414062 3.574219 8 8 8h104v-16h-96v-320h96v-16h-96v-48h96v-16h-104c-4.425781 0-8 3.585938-8 8zm0 0"/><path d="m504 32h-104v16h96v48h-96v16h96v320h-96v16h104c4.425781 0 8-3.585938 8-8v-400c0-4.414062-3.574219-8-8-8zm0 0"/><path d="m432 64h48v16h-48zm0 0"/><path d="m376 16c0-4.414062-3.585938-8-8-8h-224c-4.414062 0-8 3.585938-8 8v448c0 4.414062 3.585938 8 8 8h224c4.414062 0 8-3.585938 8-8zm0 0" fill="#fddf81"/><path d="m368 480h-224c-8.824219 0-16-7.175781-16-16v-448c0-8.824219 7.175781-16 16-16h224c8.824219 0 16 7.175781 16 16v448c0 8.824219-7.175781 16-16 16zm0-464.007812-224 .007812v448h224zm0 0"/><path d="m216 216v-32c0-8.839844 7.160156-16 16-16h48c8.839844 0 16 7.160156 16 16v32zm0 0" fill="#fff7e0"/><path d="m304 216h-16v-32c0-4.40625-3.585938-8-8-8h-48c-4.414062 0-8 3.59375-8 8v32h-16v-32c0-13.230469 10.769531-24 24-24h48c13.230469 0 24 10.769531 24 24zm0 0"/><path d="m288 112c0 17.671875-14.328125 32-32 32s-32-14.328125-32-32 14.328125-32 32-32 32 14.328125 32 32zm0 0" fill="#fff7e0"/><path d="m256 152c-22.054688 0-40-17.945312-40-40s17.945312-40 40-40 40 17.945312 40 40-17.945312 40-40 40zm0-64c-13.230469 0-24 10.769531-24 24s10.769531 24 24 24 24-10.769531 24-24-10.769531-24-24-24zm0 0"/><path d="m216 288h-40c-4.414062 0-8-3.585938-8-8v-24c0-4.414062 3.585938-8 8-8h40zm0 0" fill="#f96437"/><path d="m336 288h-120v-40h120c4.414062 0 8 3.585938 8 8v24c0 4.414062-3.585938 8-8 8zm0 0" fill="#fcb099"/><path d="m336 240h-160c-8.824219 0-16 7.175781-16 16v24c0 8.824219 7.175781 16 16 16h160c8.824219 0 16-7.175781 16-16v-24c0-8.824219-7.175781-16-16-16zm-160 16h32v24h-32zm48 24v-24h112l.007812 24zm0 0"/><path d="m296 352h-80c-4.414062 0-8-3.585938-8-8v-16c0-4.414062 3.585938-8 8-8h80c4.414062 0 8 3.585938 8 8v16c0 4.414062-3.585938 8-8 8zm0 0" fill="#f96437"/><path d="m296 360h-80c-8.824219 0-16-7.175781-16-16v-16c0-8.824219 7.175781-16 16-16h80c8.824219 0 16 7.175781 16 16v16c0 8.824219-7.175781 16-16 16zm-80-32v16h80.007812l-.007812-16zm0 0"/><path d="m320 432h32v16h-32zm0 0"/><path d="m288 432h16v16h-16zm0 0"/><path d="m160 32h16v16h-16zm0 0"/><path d="m192 32h16v16h-16zm0 0"/><path d="m200 392h16v16h-16zm0 0"/><path d="m232 392h16v16h-16zm0 0"/><path d="m264 392h16v16h-16zm0 0"/><path d="m296 392h16v16h-16zm0 0"/><path d="m336 32h16v16h-16zm0 0"/><path d="m248 192h16v24h-16zm0 0"/></svg>