<?xml version="1.0" encoding="utf-8"?>
<!-- Generator: Adobe Illustrator 22.1.0, SVG Export Plug-In . SVG Version: 6.00 Build 0)  -->
<svg version="1.1" id="Layer_1" xmlns="http://www.w3.org/2000/svg" xmlns:xlink="http://www.w3.org/1999/xlink" x="0px" y="0px"
	 viewBox="0 0 231 223" style="enable-background:new 0 0 231 223;" xml:space="preserve">
<style type="text/css">
	.st0{fill:#FFDD57;}
	.st1{fill:#FFFFFF;}
</style>
<path class="st0" d="M51,62l-6-4c2-2,3-5,6-6l17-5c4-1,6-2,8-6l11-18C65,5,39-1,13,0l5,32c2,13-6,24-11,35l-2,4l-1,7h1l-5,8
	c10,7,21,11,31,16l1-1c4-9,4-9,13-5l4,1c18,1,33,8,47,18l14-20L88,79C77,72,63,68,51,62z M230,169l-2-9c-1-3-3-4-6-4
	c-19,3-35-5-50-16l-6-4l-3,2v1l-11,8h-3l-7-7h-1l-11-6c-3-1-1-3-1-3l2-2l2-2v-1h-4c-4,1-8,2-12,0v1l8,3l-8-3l6,4l1,1
	c6.7,5.7,13.3,11.3,20,17l13,9c8,6,18,11,27,15l32,15c6,2,7,2,11-3S232,175,230,169z M209,172v-5h5l2,6L209,172z"/>
<g>
	<path class="st1" d="M133,130c-1,1-1,2,1,3c2.7,1.4,5.3,2.7,8,4l2-1l14-16l1-2v-2l-6-7h-3l-5,6L133,130z M169,127l-5-6l-2-1l-1,1
		l-15,17v2l4,4h2l17-14V127z M115,102l8,3l3,1l1-1l1-2l5-7v-3l-7-6l-2-1l-2,1l-8,11v1C113,100,113,101,115,102z M130,108l5,3l2,3v6
		l1-1l9-12v-2l-8-8h-4l-6,10L130,108z"/>
	<path class="st1" d="M152,169l5-8l-3-2c-13.2-8.5-25.6-18.2-37-29l-5-2l-2-1l3-1c2-1,2-1,2-3l-2-4l1-1v1l3,3c2,2,4,2,7,2l7-1
		c2,0,3-1,3-2l1-5c0-2-1-3-3-3l-21-10c-2-1-2,0-4,1l-16,23v3l1,2l21,32c1,1,2,2,1,4l-3,27l-4,24c15.3,5,31.7,5,47,0l-2-21v-27V169z"
		/>
</g>
</svg>
