<?xml version="1.0" encoding="iso-8859-1"?>
<!-- Generator: Adobe Illustrator 19.0.0, SVG Export Plug-In . SVG Version: 6.00 Build 0)  -->
<svg version="1.1" id="Capa_1" xmlns="http://www.w3.org/2000/svg" xmlns:xlink="http://www.w3.org/1999/xlink" x="0px" y="0px"
	 viewBox="0 0 511.999 511.999" style="enable-background:new 0 0 511.999 511.999;" xml:space="preserve">
<path style="fill:#F26876;" d="M171.919,197.76l-71.974-16.659l99.58-99.58l112.938-0.01c0.01,0,0.01,0.01,0.01,0.01l99.58,99.58
	L340.08,197.76"/>
<path style="fill:#F48976;" d="M189.925,221.378v227.575c0,13.226-10.299,24.103-23.303,25.004
	c-14.735,1.023-26.827-10.887-26.827-25.652v-99.307c0-8.618-7.17-15.555-15.879-15.17c-8.193,0.365-14.502,7.443-14.502,15.646
	v98.527c0,31.911,26.493,57.978,58.363,56.327c29.227-1.529,52.529-25.784,52.529-55.375v-20.244
	c0-19.707,15.981-35.688,35.688-35.688h0.01c19.707,0,35.688,15.981,35.688,35.688v20.244c0,29.592,23.303,53.846,52.53,55.375
	c31.87,1.651,58.363-24.417,58.363-56.327v-98.527c0-8.203-6.309-15.282-14.502-15.646c-8.709-0.385-15.879,6.552-15.879,15.17
	v99.307c0,14.765-12.092,26.675-26.827,25.652c-13.003-0.901-23.303-11.778-23.303-25.004V221.378"/>
<g>
	<path style="fill:#F26876;" d="M388.083,333.828c-8.709-0.385-15.879,6.552-15.879,15.17v99.307
		c0,12.043-8.045,22.184-19.007,24.959c1.402,0.351,2.849,0.59,4.332,0.693c14.735,1.023,26.827-10.887,26.827-25.652v-99.307
		c0-6.211,3.733-11.532,9.073-13.885C391.783,334.374,389.987,333.913,388.083,333.828z"/>
	<path style="fill:#F26876;" d="M121.567,448.002v-98.527c0-6.296,3.724-11.917,9.156-14.361c-2.07-0.912-4.374-1.392-6.806-1.285
		c-8.193,0.365-14.502,7.443-14.502,15.646v98.527c0,31.911,26.493,57.978,58.363,56.327c1.074-0.057,2.138-0.153,3.196-0.269
		C143.246,500.948,121.567,476.868,121.567,448.002z"/>
	<path style="fill:#F26876;" d="M303.845,448.953v-20.244c0-19.707-15.981-35.688-35.688-35.688h-0.01
		c-2.071,0-4.097,0.186-6.071,0.526c16.815,2.884,29.617,17.526,29.617,35.162v20.244c0,29.592,23.303,53.846,52.53,55.375
		c3.041,0.158,6.032,0.059,8.956-0.269C325.469,501,303.845,477.457,303.845,448.953z"/>
	<path style="fill:#F26876;" d="M322.072,304.05v-82.668H202.077v-0.004h-12.153v0.004h-0.002v82.668h0.002v144.903
		c0,11.717-8.085,21.584-18.97,24.311c2.478,0.628,5.104,0.881,7.82,0.693c13.003-0.901,23.303-11.778,23.303-25.004v-52.52
		c0-51.022,41.361-92.384,92.384-92.384h27.611V304.05z"/>
</g>
<path style="fill:#F48976;" d="M332.64,293.918c19.664-60.439,5.56-195.007-44.013-250.078L256.001,7.595L223.375,43.84
	c-49.572,55.07-63.676,189.639-44.013,250.078H332.64z"/>
<path style="fill:#F26876;" d="M241.989,43.837c-21.277,55.071-27.333,189.641-18.897,250.08h-43.729
	c-19.667-60.439-5.56-195.008,44.013-250.08l32.63-36.245L241.989,43.837z"/>
<g>
	<circle style="fill:#FFE563;" cx="205.307" cy="342.014" r="26.203"/>
	<circle style="fill:#FFE563;" cx="306.7" cy="342.014" r="26.203"/>
</g>
<path d="M388.418,326.241c-6.29-0.273-12.245,1.958-16.779,6.295c-4.535,4.338-7.032,10.186-7.032,16.463v99.307
	c0,5.142-2.108,10.058-5.786,13.488c-3.526,3.291-8.114,4.917-12.92,4.587c-9.102-0.631-16.233-8.286-16.233-17.427v-55.932
	c0-4.195-3.401-7.595-7.595-7.595c-4.195,0-7.595,3.401-7.595,7.595v55.932c0,17.09,13.342,31.401,30.372,32.581
	c9.052,0.63,17.693-2.438,24.335-8.633c6.745-6.292,10.613-15.258,10.613-24.596v-99.307c0-2.092,0.832-4.041,2.342-5.487
	c1.51-1.444,3.503-2.192,5.603-2.095c3.994,0.177,7.244,3.793,7.244,8.058v98.527c0,13.43-5.584,26.434-15.32,35.679
	c-9.581,9.098-22.034,13.741-35.049,13.063c-25.42-1.33-45.331-22.322-45.331-47.79v-20.244c0-23.867-19.417-43.283-43.294-43.283
	c-23.867,0-43.283,19.417-43.283,43.283v20.244c0,25.468-19.912,46.46-45.327,47.79c-13.032,0.671-25.473-3.966-35.054-13.063
	c-9.736-9.245-15.32-22.25-15.32-35.679v-22.063c0-4.195-3.401-7.595-7.595-7.595c-4.195,0-7.595,3.401-7.595,7.595v22.063
	c0,17.575,7.309,34.595,20.052,46.695c12.633,11.995,29.077,18.107,46.303,17.217c33.492-1.752,59.728-29.408,59.728-62.96v-20.244
	c0-15.49,12.602-28.093,28.103-28.093c15.49,0,28.093,12.602,28.093,28.093v20.244c0,33.552,26.235,61.207,59.732,62.96
	c1.103,0.058,2.201,0.085,3.295,0.085c16.016,0,31.18-6.076,43.003-17.302c12.743-12.1,20.052-29.12,20.052-46.695v-98.527
	C410.18,336.989,400.622,326.784,388.418,326.241z"/>
<path d="M140.359,332.536c-4.534-4.338-10.49-6.574-16.781-6.295c-12.201,0.543-21.759,10.748-21.759,23.234v51.145
	c0,4.195,3.401,7.595,7.595,7.595s7.595-3.401,7.595-7.595v-51.145c0-4.266,3.25-7.881,7.242-8.058
	c2.104-0.098,4.095,0.651,5.605,2.096c1.511,1.445,2.342,3.394,2.342,5.486v99.307c0,9.338,3.869,18.303,10.613,24.596
	c6.072,5.666,13.817,8.713,22.019,8.713c0.768,0,1.54-0.026,2.315-0.081c17.032-1.18,30.373-15.491,30.373-32.581V393.02
	c0-4.195-3.401-7.595-7.595-7.595c-4.195,0-7.595,3.401-7.595,7.595v55.932c0,9.141-7.131,16.796-16.234,17.427
	c-4.806,0.334-9.392-1.295-12.919-4.587c-3.677-3.43-5.786-8.347-5.786-13.488v-99.307
	C147.391,342.722,144.894,336.874,140.359,332.536z"/>
<path d="M205.303,375.809c18.636,0,33.798-15.161,33.798-33.798s-15.161-33.798-33.798-33.798s-33.798,15.162-33.798,33.798
	C171.505,360.647,186.667,375.809,205.303,375.809z M205.303,323.404c10.26,0,18.608,8.348,18.608,18.608
	s-8.347,18.608-18.608,18.608c-7.554,0-14.056-4.531-16.97-11.012h16.97c4.195,0,7.595-3.401,7.595-7.595
	c0-4.195-3.401-7.595-7.595-7.595h-16.97C191.246,327.935,197.749,323.404,205.303,323.404z"/>
<path d="M340.494,342.012c0-18.636-15.162-33.798-33.798-33.798c-18.636,0-33.798,15.162-33.798,33.798
	c0,18.636,15.161,33.798,33.798,33.798C325.333,375.81,340.494,360.648,340.494,342.012z M288.088,342.012
	c0-10.26,8.347-18.608,18.608-18.608c7.554,0,14.056,4.532,16.97,11.012h-16.97c-4.195,0-7.595,3.401-7.595,7.595
	c0,4.195,3.401,7.595,7.595,7.595h16.97c-2.913,6.48-9.416,11.012-16.97,11.012C296.435,360.618,288.088,352.272,288.088,342.012z"
	/>
<path d="M417.424,175.73l-98.7-98.7c-6.928-14.781-15.071-27.851-24.451-38.271L261.646,2.514C260.205,0.913,258.153,0,256,0
	c-2.153,0-4.205,0.913-5.645,2.514l-32.627,36.245c-9.086,10.095-17.322,23.013-24.509,38.325L94.574,175.73
	c-1.951,1.952-2.691,4.809-1.931,7.463s2.899,4.686,5.589,5.308l65.693,15.205c-2.106,35.995,0.715,69.508,8.215,92.562
	c1.018,3.128,3.933,5.246,7.223,5.246h153.278c3.289,0,6.205-2.118,7.223-5.246c2.341-7.195,4.259-15.468,5.701-24.59
	c0.654-4.143-2.173-8.033-6.317-8.688c-4.143-0.652-8.033,2.173-8.688,6.317c-0.973,6.161-2.173,11.861-3.578,17.016H185.02
	c-7.996-29.259-8.839-73.932-2.07-118.553c0.63-4.148-2.223-8.02-6.37-8.649c-4.154-0.632-8.02,2.222-8.649,6.37
	c-1.16,7.643-2.1,15.299-2.828,22.896l-50.105-11.598l64.996-64.996c-1.726,5.618-3.342,11.428-4.841,17.426
	c-1.017,4.07,1.457,8.193,5.527,9.21c4.069,1.017,8.194-1.457,9.21-5.527c9.166-36.686,22.697-65.724,39.128-83.979l26.982-29.974
	l26.982,29.974c16.926,18.803,30.717,48.904,39.881,87.048c8.186,34.068,11.963,72.81,10.363,106.292
	c-0.199,4.191,3.035,7.749,7.225,7.95c0.124,0.005,0.246,0.008,0.369,0.008c4.029,0,7.387-3.167,7.581-7.233
	c0.593-12.438,0.489-25.68-0.318-39.285l65.684-15.203c2.689-0.622,4.829-2.654,5.589-5.308
	C420.117,180.539,419.376,177.682,417.424,175.73z M346.891,188.387c-2.489-25.805-7.451-52.309-14.942-76.649L397,176.789
	L346.891,188.387z"/>
<g>
</g>
<g>
</g>
<g>
</g>
<g>
</g>
<g>
</g>
<g>
</g>
<g>
</g>
<g>
</g>
<g>
</g>
<g>
</g>
<g>
</g>
<g>
</g>
<g>
</g>
<g>
</g>
<g>
</g>
</svg>
