<svg height="511pt" viewBox="-44 0 511 511.95" width="511pt" xmlns="http://www.w3.org/2000/svg"><path d="m31.675781 56.949219h361.199219c14.601562 0 26.199219 11.800781 26.199219 26.199219v348c0 14.601562-11.800781 26.203124-26.199219 26.203124h-361.199219c-14.601562 0-26.199219-11.800781-26.199219-26.203124v-348c0-14.398438 11.796876-26.199219 26.199219-26.199219zm0 0" fill="#acdef9"/><path d="m168.675781 399.351562c0 10.269532-8.328125 18.597657-18.601562 18.597657-10.273438 0-18.597657-8.328125-18.597657-18.597657 0-10.273437 8.324219-18.601562 18.597657-18.601562 10.273437 0 18.601562 8.328125 18.601562 18.601562zm0 0" fill="#6dcc6d"/><path d="m230.875 399.351562c0 10.269532-8.328125 18.597657-18.601562 18.597657-10.269532 0-18.597657-8.328125-18.597657-18.597657 0-10.273437 8.328125-18.601562 18.597657-18.601562 10.273437 0 18.601562 8.328125 18.601562 18.601562zm0 0" fill="#6dcc6d"/><path d="m293.074219 399.351562c0 10.269532-8.328125 18.597657-18.597657 18.597657-10.273437 0-18.601562-8.328125-18.601562-18.597657 0-10.273437 8.328125-18.601562 18.601562-18.601562 10.269532 0 18.597657 8.328125 18.597657 18.601562zm0 0" fill="#6dcc6d"/><path d="m392.875 56.949219h-361.199219c-14.402343 0-26.199219 11.800781-26.199219 26.199219v26.601562h413.597657v-26.601562c0-14.398438-11.800781-26.199219-26.199219-26.199219zm0 0" fill="#55acd5"/><path d="m294.273438 225.550781c0 45.285157-36.710938 82-82 82-45.285157 0-82-36.714843-82-82 0-45.289062 36.714843-82 82-82 45.289062 0 82 36.710938 82 82zm0 0" fill="#ffcd29"/><path d="m260.875 276.75-22-5.601562-13.199219-6.597657-4.402343 12.800781c-.199219.796876-1 1.199219-1.796876 1.199219h-13.601562c-.800781 0-1.398438-.402343-1.800781-1.199219l-4.398438-12.800781-13.199219 6.597657-22 5.601562c-4.203124 1-7.402343 4.398438-8.203124 8.800781 31.800781 29.597657 81.203124 29.398438 112.601562-.601562-1-4.199219-4-7.199219-8-8.199219zm0 0" fill="#e9e9ea"/><path d="m182.273438 207.550781c.601562 0 1.203124 0 1.800781.199219v-1.398438c0-.800781.601562-1.402343 1.601562-1.402343h.199219c5.199219 1 20.398438 2.800781 30.601562-10 .597657-.597657 1.398438-.800781 2.199219-.199219 0 0 0 0 .199219.199219 2.398438 2.402343 8.601562 7 20.199219 7.402343.800781 0 1.402343.597657 1.402343 1.398438v.398438 3.800781c3.597657-.597657 7.398438.601562 10 3.199219v-21.597657c0-8.800781-7.203124-16.199219-16.203124-16.199219-3 0-5.796876.796876-8.199219 2.398438-3-4.800781-8.199219-7.800781-13.800781-7.800781h-8.199219c-16 0-29 13-29.199219 29.199219v13c2-1.796876 4.601562-2.597657 7.398438-2.597657zm0 0" fill="#6d6c6b"/><path d="m242.273438 207.550781c-.597657 0-1.199219 0-1.796876.199219v2 19.398438 1.800781c6.398438 1 12.398438-3.398438 13.597657-9.800781 1-6.398438-3.398438-12.398438-9.800781-13.597657-.597657 0-1.398438 0-2 0zm0 0" fill="#f9d0b4"/><path d="m184.074219 228.949219v-19.398438c0-.601562 0-1.199219 0-2-6.398438-1-12.597657 3.199219-13.597657 9.597657-1 6.402343 3.199219 12.601562 9.597657 13.601562 1.402343.199219 2.601562.199219 4 0 0-.398438 0-1.199219 0-1.800781zm0 0" fill="#f9d0b4"/><path d="m216.476562 194.75c-10.402343 13-25.601562 11.199219-30.601562 10-.800781-.199219-1.601562.398438-1.800781 1.199219v.199219 22.800781c0 15.601562 12.601562 28.199219 28.199219 28.199219 15.601562 0 28.203124-12.597657 28.203124-28.199219v-25.199219c0-.199219 0-.199219 0-.398438 0-.800781-.601562-1.402343-1.402343-1.402343-11.800781-.398438-18-5-20.199219-7.398438-.800781-.601562-1.601562-.601562-2.398438.199219.199219-.199219 0 0 0 0zm0 0" fill="#f9d0b4"/><path d="m212.273438 257.148438c-4.398438 0-8.597657-1-12.597657-3v10.402343l4.398438 12.800781c.199219.796876 1 1.199219 1.800781 1.199219h13.601562c.796876 0 1.398438-.402343 1.796876-1.199219l4.402343-12.800781v-10.800781c-4 2.398438-8.800781 3.398438-13.402343 3.398438zm0 0" fill="#f9d0b4"/><path d="m151.476562 493.351562h-3.601562v-3.601562c0-2.800781-2.199219-5-5-5s-5 2.199219-5 5v3.601562h-3.601562c-2.796876 0-5 2.199219-5 5 0 2.796876 2.203124 5 5 5h3.601562v3.597657c0 2.800781 2.199219 5 5 5s5-2.199219 5-5v-3.597657h3.601562c2.796876 0 5-2.203124 5-5 0-2.800781-2.203124-5-5-5zm0 0" fill="#55acd5"/><path d="m342.875 3.949219c0-.398438-.199219-.597657-.199219-1-.199219-.199219-.199219-.597657-.402343-.800781-.199219-.199219-.398438-.597657-.597657-.796876-2-1.800781-5-1.800781-7 0-.199219.199219-.402343.398438-.601562.796876-.199219.203124-.398438.601562-.398438.800781-.199219.402343-.199219.601562-.199219 1 0 .402343-.203124.601562-.203124 1 0 .402343 0 .601562.203124 1 0 .402343.199219.601562.199219 1 .199219.402343.199219.601562.398438.800781s.402343.601562.601562.800781c2 2 5 2 7 0 .199219-.199219.398438-.402343.597657-.800781.203124-.199219.402343-.601562.402343-.800781.199219-.199219.199219-.597657.199219-1 0-.398438 0-.597657.199219-1-.199219-.398438-.199219-.800781-.199219-1zm0 0" fill="#ea4647"/><path d="m104.074219 482.550781c0-.402343-.199219-.601562-.199219-1-.199219-.199219-.199219-.601562-.398438-.800781-.203124-.199219-.402343-.601562-.601562-.800781-2-1.800781-5-1.800781-7 0-.199219.199219-.398438.402343-.601562.800781-.398438.601562-.597657 1.199219-.796876 1.800781-.203124.597657-.203124 1.398438 0 2 0 .398438.199219.597657.199219 1 .199219.398438.199219.597657.398438.800781.199219.199219.402343.597657.601562.796876 2 2 5 2 7 0 .199219-.199219.398438-.398438.597657-.796876.203124-.203124.402343-.601562.402343-.800781.199219-.199219.199219-.601562.199219-1 .199219-.601562.199219-1.402343.199219-2zm0 0" fill="#6dcc6d"/><path d="m304.476562 26.148438c-6.601562-1.199219-11.800781-6.398438-13.203124-13.199219 0-.199219-.199219-.199219-.398438-.199219s-.199219.199219-.199219.199219c-1.199219 6.601562-6.402343 11.800781-13.199219 13.199219-.203124 0-.203124.203124-.203124.402343s.203124.199219.203124.199219c6.597657 1.199219 11.796876 6.398438 13.199219 13.199219 0 .199219.199219.199219.398438.199219s.199219-.199219.199219-.199219c1.203124-6.597657 6.402343-11.800781 13.203124-13.199219.199219 0 .199219-.199219.199219-.398438.199219-.203124 0-.203124-.199219-.203124zm0 0" fill="#ffcd29"/><g fill="#231f20"><path d="m392.875 462.351562h-361.199219c-17.199219 0-31.199219-14-31.199219-31.203124v-348c0-17.199219 14-31.199219 31.199219-31.199219h361.199219c17.199219 0 31.199219 14 31.199219 31.199219v348c0 17.203124-14 31.203124-31.199219 31.203124zm-361.199219-400.402343c-11.800781 0-21.199219 9.601562-21.199219 21.199219v348c0 11.800781 9.597657 21.203124 21.199219 21.203124h361.199219c11.800781 0 21.199219-9.601562 21.199219-21.203124v-348c0-11.796876-9.597657-21.199219-21.199219-21.199219zm0 0"/><path d="m419.074219 114.75h-413.597657c-2.800781 0-5-2.199219-5-5v-26.601562c0-17.199219 14-31.199219 31.199219-31.199219h361.199219c17.199219 0 31.199219 14 31.199219 31.199219v26.601562c0 2.800781-2.199219 5-5 5zm-408.597657-10h403.597657v-21.601562c0-11.796876-9.597657-21.199219-21.199219-21.199219h-361.199219c-11.800781 0-21.199219 9.601562-21.199219 21.199219zm0 0"/><path d="m37.476562 88.351562c-2.800781 0-5-2.203124-5-5 0-.402343 0-.601562 0-1 .199219-.601562.398438-1.203124.796876-1.800781.203124-.199219.402343-.601562.601562-.800781 1.199219-1.199219 2.800781-1.601562 4.601562-1.398438.398438 0 .597657.199219 1 .199219.398438.199219.597657.199219.796876.398438.203124.199219.601562.402343.800781.601562s.402343.398438.601562.800781c.199219.199219.398438.597657.398438.796876.199219.402343.199219.601562.199219 1v1c0 1.402343-.597657 2.601562-1.398438 3.601562-.199219.199219-.398438.398438-.800781.601562-.199219.199219-.597657.398438-.800781.398438-.398438.199219-.597657.199219-1 .199219-.199219.402343-.398438.402343-.796876.402343zm0 0"/><path d="m56.675781 88.351562c-1.402343 0-2.601562-.601562-3.601562-1.402343-.199219-.199219-.398438-.398438-.597657-.800781-.203124-.199219-.402343-.597657-.402343-.796876-.199219-.203124-.199219-.601562-.199219-1 0-.402343 0-.601562 0-1 0-.402343 0-.601562 0-1 .199219-.601562.398438-1.203124.800781-1.800781.199219-.199219.398438-.601562.597657-.800781 1.203124-1.199219 2.800781-1.601562 4.601562-1.398438.398438 0 .601562.199219 1 .199219.398438.199219.601562.199219.800781.398438s.597657.402343.800781.601562c.199219.199219.398438.398438.597657.800781.199219.199219.402343.597657.402343.796876.199219.402343.199219.601562.199219 1 0 .402343 0 .601562.199219 1 0 .402343 0 .601562-.199219 1 0 .402343-.199219.601562-.199219 1-.203124.601562-.601562 1.203124-1 1.601562-.203124.199219-.402343.398438-.800781.601562-.199219.199219-.601562.398438-.800781.398438-.199219.199219-.601562.199219-1 .199219-.398438.402343-.800781.402343-1.199219.402343zm0 0"/><path d="m76.074219 88.351562c-1.398438 0-2.597657-.601562-3.597657-1.402343-.203124-.199219-.402343-.398438-.601562-.800781-.199219-.199219-.398438-.597657-.398438-.796876-.203124-.203124-.203124-.601562-.203124-1 0-.402343 0-.601562 0-1 0-.402343 0-.601562 0-1 0-.402343.203124-.601562.203124-1 .199219-.402343.199219-.601562.398438-.800781s.398438-.601562.601562-.800781c.199219-.199219.398438-.398438.796876-.601562.601562-.398438 1.203124-.597657 1.800781-.796876 1.601562-.402343 3.402343.199219 4.601562 1.398438.199219.199219.398438.398438.597657.800781.203124.199219.402343.597657.402343.800781.199219.398438.199219.597657.199219 1v1c.199219 2.796876-2 5-4.800781 5zm0 0"/><path d="m326.273438 88.351562h-191c-2.796876 0-5-2.203124-5-5 0-2.800781 2.203124-5 5-5h191c2.800781 0 5 2.199219 5 5 0 2.796876-2.199219 5-5 5zm0 0"/><path d="m240.476562 337.949219h-55.601562c-2.800781 0-5-2.199219-5-5s2.199219-5 5-5h55.601562c2.796876 0 5 2.199219 5 5s-2.203124 5-5 5zm0 0"/><path d="m267.875 360.550781h-111.398438c-2.800781 0-5-2.199219-5-5s2.199219-5 5-5h111.398438c2.800781 0 5 2.199219 5 5s-2.199219 5-5 5zm0 0"/><path d="m242.273438 236.148438c-.796876 0-1.796876 0-2.597657-.199219-2.601562-.398438-4.402343-2.597657-4.199219-5.199219 0-.601562 0-1 0-1.601562v-19.398438c0-.601562 0-1 0-1.601562-.203124-2.597657 1.597657-4.796876 4.199219-5.199219 9.199219-1.398438 17.800781 4.800781 19.199219 13.800781 1.398438 9.199219-4.800781 17.800781-13.800781 19.199219-1 0-1.800781.199219-2.800781.199219zm3.203124-22.796876v12c3.398438-1.800781 4.597657-5.800781 2.796876-9.203124-.597657-1.199219-1.597657-2.199219-2.796876-2.796876zm0 0"/><path d="m182.273438 236.148438c-9.199219 0-16.796876-7.398438-17-16.597657 0-9.199219 7.402343-16.800781 16.601562-17 1 0 2 0 3 .199219 2.601562.398438 4.398438 2.601562 4.199219 5.199219v1.601562 19.398438 1.601562c.199219 2.597657-1.597657 4.800781-4.199219 5.199219-.800781.199219-1.800781.199219-2.601562.398438zm-3.199219-22.796876c-3.398438 1.796876-4.597657 5.796876-2.800781 9.199219.601562 1.199219 1.601562 2.199219 2.800781 2.800781zm0 0"/><path d="m212.273438 262.148438c-18.398438 0-33.199219-14.796876-33.199219-33.199219v-22.800781c0-3.597657 3-6.597657 6.601562-6.597657.398438 0 .800781 0 1.398438.199219 5 1 17.199219 2.199219 25.800781-8.199219 1.199219-1.402343 2.800781-2.402343 4.800781-2.402343 1.800781 0 3.597657.601562 5 1.800781 1.800781 1.601562 6.800781 5.601562 17 5.800781 3.398438.199219 6.199219 3 6.398438 6.398438v25.800781c-.597657 18.402343-15.398438 33.199219-33.800781 33.199219zm-23.199219-51.796876v18.597657c0 12.800781 10.402343 23.199219 23.199219 23.199219 12.800781 0 23.203124-10.398438 23.203124-23.199219v-22.199219c-6.203124-.398438-12.203124-2.601562-17.402343-6.199219-9.597657 9.800781-22 10.398438-29 9.800781zm31.402343-12.402343"/><path d="m250.476562 215.75c-1.203124 0-2.601562-.601562-3.402343-1.398438-1.199219-1.203124-3-2-4.800781-2-.398438 0-.796876 0-1 0-2.796876.398438-5.199219-1.402343-5.796876-4.203124 0-.199219 0-.597657 0-.796876v-1c-6.203124-.402343-12.203124-2.601562-17.402343-6.203124-10 10.203124-22.800781 10.601562-29.800781 9.800781-.199219.402343-.597657.800781-1 1.199219-1.199219 1-2.597657 1.402343-4 1.203124-.398438 0-.796876 0-1 0-1.597657 0-3 .597657-4.199219 1.398438-2.199219 1.800781-5.398438 1.398438-7-.800781-.800781-.800781-1-2-1-3.199219v-13c0-18.800781 15.199219-34.199219 34.199219-34.199219h8.203124c5.796876 0 11.398438 2.398438 15.398438 6.597657 2.199219-.796876 4.398438-1.199219 6.601562-1.199219 11.597657 0 21.199219 9.402343 21.199219 21.199219v21.203124c-.199219 3.199219-2.402343 5.398438-5.199219 5.398438zm-5-13v-13.199219c0-6.199219-5-11.199219-11-11.199219-2 0-4 .597657-5.800781 1.597657-2.402343 1.402343-5.402343.601562-6.800781-1.800781-2-3.398438-5.601562-5.398438-9.601562-5.398438h-8.199219c-13.398438 0-24.199219 10.800781-24.199219 24.199219v5.601562h.398438c1.402343-2.199219 4.203124-3.199219 6.601562-2.601562 5 1 17.199219 2.199219 25.800781-8.199219 1.199219-1.398438 2.800781-2.398438 4.800781-2.398438 1.796876 0 3.597657.597657 5 1.796876 1.796876 1.601562 6.796876 5.601562 17 5.800781 3 0 5.597657 2.601562 6 5.800781zm0 0"/><path d="m219.476562 283.75h-13.601562c-3 0-5.601562-1.800781-6.398438-4.601562l-4.402343-12.796876c-.199219-.601562-.199219-1-.199219-1.601562v-10.398438c0-2.800781 2.199219-5 5-5 .800781 0 1.601562.199219 2.199219.597657 3.199219 1.601562 6.800781 2.402343 10.402343 2.402343 3.796876 0 7.597657-1 11-2.800781 2.398438-1.402343 5.398438-.402343 6.796876 2 .402343.800781.601562 1.597657.601562 2.398438v10.800781c0 .601562 0 1.199219-.199219 1.601562l-4.402343 12.796876c-1.199219 2.800781-3.796876 4.601562-6.796876 4.601562zm-11.402343-10h9.199219l3.402343-9.800781v-2.597657c-5.199219 1.398438-10.800781 1.398438-16 .199219v2.398438zm0 0"/><path d="m212.273438 312.550781c-48 0-87-39-87-87s39-87 87-87 87 39 87 87-39 86.800781-87 87zm0-164c-42.597657 0-77 34.398438-77 77 0 42.597657 34.402343 77 77 77 42.601562 0 77-34.402343 77-77 0-42.601562-34.398438-77-77-77zm0 0"/><path d="m212.273438 312.550781c-22 0-43.199219-8.402343-59.398438-23.402343-1.199219-1.199219-1.800781-3-1.601562-4.597657 1.203124-6.199219 5.800781-11 11.800781-12.601562l21.402343-5.398438 12.796876-6.199219c2.402343-1.203124 5.402343-.203124 6.601562 2.199219 0 .199219.199219.398438.199219.597657l3.800781 10.601562h9.199219l3.800781-10.601562c1-2.597657 3.800781-4 6.398438-3 .203124 0 .402343.203124.601562.203124l12.800781 6.199219 21.398438 5.398438c5.800781 1.402343 10.199219 6 11.601562 11.601562.398438 1.800781 0 3.597657-1.402343 4.800781-16.199219 15.597657-37.597657 24.199219-60 24.199219zm-50-28.601562c29 24.800781 71.800781 24.601562 100.601562-.398438-.800781-1-2-1.601562-3.199219-2l-22-5.601562c-.402343 0-.601562-.199219-1-.398438l-8.199219-4-2.601562 7.398438c-1 2.800781-3.601562 4.601562-6.398438 4.601562h-13.601562c-3 0-5.601562-1.800781-6.398438-4.601562l-2.601562-7.398438-8.199219 4c-.402343.199219-.601562.199219-1 .398438l-22 5.601562c-1.402343.398438-2.601562 1.199219-3.402343 2.398438zm0 0"/><path d="m150.074219 422.949219c-13 0-23.597657-10.597657-23.597657-23.597657s10.597657-23.601562 23.597657-23.601562 23.601562 10.601562 23.601562 23.601562c-.199219 13-10.800781 23.597657-23.601562 23.597657zm0-37c-7.398438 0-13.597657 6-13.597657 13.601562 0 7.398438 6 13.597657 13.597657 13.597657 7.402343 0 13.601562-6 13.601562-13.597657-.199219-7.601562-6.199219-13.601562-13.601562-13.601562zm0 0"/><path d="m212.273438 422.949219c-13 0-23.597657-10.597657-23.597657-23.597657s10.597657-23.601562 23.597657-23.601562 23.601562 10.601562 23.601562 23.601562c-.199219 13-10.601562 23.597657-23.601562 23.597657zm0-37c-7.398438 0-13.597657 6-13.597657 13.601562 0 7.398438 6 13.597657 13.597657 13.597657 7.402343 0 13.601562-6 13.601562-13.597657-.199219-7.601562-6.199219-13.601562-13.601562-13.601562zm0 0"/><path d="m274.476562 422.949219c-13 0-23.601562-10.597657-23.601562-23.597657s10.601562-23.601562 23.601562-23.601562 23.597657 10.601562 23.597657 23.601562-10.597657 23.597657-23.597657 23.597657zm0-37c-7.402343 0-13.601562 6-13.601562 13.601562 0 7.597657 6 13.597657 13.601562 13.597657 7.398438 0 13.597657-6 13.597657-13.597657 0-7.601562-6-13.601562-13.597657-13.601562zm0 0"/></g></svg>