<svg height="512" viewBox="0 0 57 58" width="512" xmlns="http://www.w3.org/2000/svg"><g id="027---Lego" fill="none"><path id="Shape" d="m38 8.51-19 8-19-8 6-2.53 4.65-1.95 4.37-1.84h7.96l4.37 1.84 4.65 1.95z" fill="#3b97d3"/><path id="Shape" d="m57 33.51-.18.07-18.82 7.93-19-8 6-2.53 4.65-1.95 4.37-1.84h7.96l4.37 1.84 4.65 1.95z" fill="#955ba5"/><path id="Shape" d="m38 41.51v16.49l-38-16v-16l.18-.42 18.82 7.93z" fill="#b49aca"/><path id="Shape" d="m19 16.51v17l-18.82-7.93-.18-.07v-17z" fill="#84b5cb"/><path id="Shape" d="m38 8.51v18.68h-3.98l-4.37 1.84-4.65 1.95-6 2.53v-17z" fill="#2980ba"/><path id="Shape" d="m23 4.5c0 1.1-1.79 2-4 2s-4-.9-4-2c.0569754-.54098151.3899247-1.01392084.88-1.25.9537862-.52562426 2.0315216-.78469525 3.12-.75 1.0884784-.03469525 2.1662138.22437574 3.12.75.4900753.23607916.8230246.70901849.88 1.25z" fill="#84b5cb"/><path id="Shape" d="m14 8.5c0 1.1-1.79 2-4 2s-4-.9-4-2c.05697539-.54098151.38992468-1.01392084.88-1.25.95378624-.52562426 2.03152157-.78469525 3.12-.75 1.0884784-.03469525 2.1662138.22437574 3.12.75.4900753.23607916.8230246.70901849.88 1.25z" fill="#84b5cb"/><path id="Shape" d="m23 12.5c0 1.1-1.79 2-4 2s-4-.9-4-2c.0569754-.5409815.3899247-1.0139208.88-1.25.9537862-.5256243 2.0315216-.7846952 3.12-.75 1.0884784-.0346952 2.1662138.2243757 3.12.75.4900753.2360792.8230246.7090185.88 1.25z" fill="#84b5cb"/><path id="Shape" d="m32 8.5c0 1.1-1.79 2-4 2s-4-.9-4-2c.0569754-.54098151.3899247-1.01392084.88-1.25.9537862-.52562426 2.0315216-.78469525 3.12-.75 1.0884784-.03469525 2.1662138.22437574 3.12.75.4900753.23607916.8230246.70901849.88 1.25z" fill="#84b5cb"/><path id="Shape" d="m57 34v16l-19 8v-16.49l18.82-7.93z" fill="#894b9d"/><path id="Shape" d="m34 53c-.1376895.0007996-.273996-.027484-.4-.083l-22-9.529c-.3365679-.1360669-.5729588-.4438509-.6176028-.8041273-.0446441-.3602764.1094716-.7164506.4026479-.9305529.2931764-.2141023.6793593-.2525003 1.0089549-.1003198l22 9.53c.4336189.1886053.6758622.6551541.5806652 1.1183331-.0951969.4631791-.50181.7963688-.9746652.7986669z" fill="#894b9d"/><path id="Shape" d="m7 41.3c-.13762421.000153-.27379861-.0281032-.4-.083l-3-1.3c-.32761255-.1429062-.55409945-.4497363-.5941453-.8049102-.04004584-.3551739.1124333-.7047323.4-.917.28756671-.2122676.66653275-.254996.9941453-.1120898l3 1.3c.43463696.1890626.67684542.657277.58003087 1.1212607-.09681455.4639838-.50605443.7962674-.98003087.7957393z" fill="#894b9d"/><path id="Shape" d="m23 2v2.5c0 1.1-1.79 2-4 2s-4-.9-4-2v-2.5c0-1.1 1.79-2 4-2s4 .9 4 2z" fill="#2980ba"/><path id="Shape" d="m32 6v2.5c0 1.1-1.79 2-4 2s-4-.9-4-2v-2.5c0-1.1 1.79-2 4-2s4 .9 4 2z" fill="#2980ba"/><path id="Shape" d="m14 6v2.5c0 1.1-1.79 2-4 2s-4-.9-4-2v-2.5c0-1.1 1.79-2 4-2s4 .9 4 2z" fill="#2980ba"/><path id="Shape" d="m23 10v2.5c0 1.1-1.79 2-4 2s-4-.9-4-2v-2.5c0-1.1 1.79-2 4-2s4 .9 4 2z" fill="#2980ba"/><path id="Shape" d="m23 2c-.0569754.54098151-.3899247 1.01392084-.88 1.25-.9537862.52562426-2.0315216.78469525-3.12.75-1.0884784.03469525-2.1662138-.22437574-3.12-.75-.4900753-.23607916-.8230246-.70901849-.88-1.25 0-1.1 1.79-2 4-2s4 .9 4 2z" fill="#84b5cb"/><path id="Shape" d="m14 6c-.0569754.54098151-.3899247 1.01392084-.88 1.25-.9537862.52562426-2.0315216.78469525-3.12.75-1.08847843.03469525-2.16621376-.22437574-3.12-.75-.49007532-.23607916-.82302461-.70901849-.88-1.25 0-1.1 1.79-2 4-2s4 .9 4 2z" fill="#84b5cb"/><path id="Shape" d="m23 10c-.0569754.5409815-.3899247 1.0139208-.88 1.25-.9537862.5256243-2.0315216.7846952-3.12.75-1.0884784.0346952-2.1662138-.2243757-3.12-.75-.4900753-.2360792-.8230246-.7090185-.88-1.25 0-1.1 1.79-2 4-2s4 .9 4 2z" fill="#84b5cb"/><path id="Shape" d="m32 6c-.0569754.54098151-.3899247 1.01392084-.88 1.25-.9537862.52562426-2.0315216.78469525-3.12.75-1.0884784.03469525-2.1662138-.22437574-3.12-.75-.4900753-.23607916-.8230246-.70901849-.88-1.25 0-1.1 1.79-2 4-2s4 .9 4 2z" fill="#84b5cb"/><path id="Shape" d="m42 26.5v2.5c0 1.1-1.79 2-4 2s-4-.9-4-2v-2.5c0-1.1 1.79-2 4-2s4 .9 4 2z" fill="#894b9d"/><path id="Shape" d="m51 30.5v2.5c0 1.1-1.79 2-4 2s-4-.9-4-2v-2.5c0-1.1 1.79-2 4-2s4 .9 4 2z" fill="#894b9d"/><path id="Shape" d="m33 30.5v2.5c0 1.1-1.79 2-4 2s-4-.9-4-2v-2.5c0-1.1 1.79-2 4-2s4 .9 4 2z" fill="#894b9d"/><path id="Shape" d="m42 34.5v2.5c0 1.1-1.79 2-4 2s-4-.9-4-2v-2.5c0-1.1 1.79-2 4-2s4 .9 4 2z" fill="#894b9d"/><g fill="#b49aca"><path id="Shape" d="m42 26.5c-.0569754.5409815-.3899247 1.0139208-.88 1.25-1.9598234.9999346-4.2801766.9999346-6.24 0-.4900753-.2360792-.8230246-.7090185-.88-1.25 0-1.1 1.79-2 4-2s4 .9 4 2z"/><path id="Shape" d="m33 30.5c-.0569754.5409815-.3899247 1.0139208-.88 1.25-.9537862.5256243-2.0315216.7846952-3.12.75-1.0884784.0346952-2.1662138-.2243757-3.12-.75-.4900753-.2360792-.8230246-.7090185-.88-1.25 0-1.1 1.79-2 4-2s4 .9 4 2z"/><path id="Shape" d="m42 34.5c-.0569754.5409815-.3899247 1.0139208-.88 1.25-1.9598234.9999346-4.2801766.9999346-6.24 0-.4900753-.2360792-.8230246-.7090185-.88-1.25 0-1.1 1.79-2 4-2s4 .9 4 2z"/><path id="Shape" d="m51 30.5c-.0569754.5409815-.3899247 1.0139208-.88 1.25-1.9598234.9999346-4.2801766.9999346-6.24 0-.4900753-.2360792-.8230246-.7090185-.88-1.25 0-1.1 1.79-2 4-2s4 .9 4 2z"/></g></g></svg>