<svg id="Flat" height="512" viewBox="0 0 64 64" width="512" xmlns="http://www.w3.org/2000/svg"><path d="m43 48h18v11h-18z" fill="#b72c4b"/><path d="m59 39v-4h-4v4h-12v10h18v-10z" fill="#7dd491"/><path d="m49 29v-4h-4v4h-22v10h28v-10z" fill="#f89c5b"/><path d="m29 19v-4h-4v4h-6v-4h-4v4h-2v10h28v-10z" fill="#03b3e2"/><path d="m13 19h26a0 0 0 0 1 0 0 8 8 0 0 1 -8 8h-18a0 0 0 0 1 0 0v-8a0 0 0 0 1 0 0z" fill="#35d7fd"/><path d="m43 39h16a0 0 0 0 1 0 0 8 8 0 0 1 -8 8h-8a0 0 0 0 1 0 0v-8a0 0 0 0 1 0 0z" fill="#58a066"/><path d="m49 9v-4h-4v4h-6v-4h-4v4h-2v10h18v-10z" fill="#ffd257"/><path d="m33 9h16a0 0 0 0 1 0 0 8 8 0 0 1 -8 8h-8a0 0 0 0 1 0 0v-8a0 0 0 0 1 0 0z" fill="#ffe8ae"/><path d="m23 29v8h18a8 8 0 0 0 8-8z" fill="#ffd257"/><path d="m19 39v-4h-4v4h-6v-4h-4v4h-2v20h6a8 8 0 0 1 16 0h6v-20z" fill="#c6ec6b"/><g fill="#7dd491"><path d="m18 49h-15v10h6a8 8 0 0 1 16 0h6v-20h-3a10 10 0 0 1 -10 10z"/><path d="m3 42h19v2h-19z"/><path d="m24 42h2v2h-2z"/></g><path d="m43 49h16a0 0 0 0 1 0 0 8 8 0 0 1 -8 8h-8a0 0 0 0 1 0 0v-8a0 0 0 0 1 0 0z" fill="#e94561"/></svg>