<?xml version="1.0" ?><svg data-name="Layer 1" id="Layer_1" viewBox="0 0 96 96" xmlns="http://www.w3.org/2000/svg"><defs><style>.cls-1{fill:#7f5c41;}.cls-2{fill:#d1976b;}.cls-3{fill:none;stroke:#231f20;stroke-linecap:round;stroke-linejoin:round;stroke-width:2px;}</style></defs><title/><path class="cls-1" d="M39.43,72.63a11.81,11.81,0,0,0-1.21-23.57H82.09a11.81,11.81,0,0,1,1,23.58v0l-24.32,0H58.71l-20.49,0a11.4,11.4,0,0,0,1.16-.06h0Z"/><path class="cls-1" d="M71.45,25.31a11.81,11.81,0,0,1,0,23.62H27.58a11.81,11.81,0,0,0,0-23.62h19l-2.12-2H52l2.14,2h17.3Z"/><path class="cls-2" d="M38.22,49.06a11.81,11.81,0,0,1,1.21,23.57H37.14A11.81,11.81,0,0,1,38.22,49.06Z"/><path class="cls-1" d="M37.74,49.06h0.48A11.82,11.82,0,0,0,26.41,60.88h-0.7A11.82,11.82,0,0,0,13.9,49.06H37.74Z"/><path class="cls-1" d="M37.14,72.64l-23.24,0A11.81,11.81,0,0,0,25.71,60.88h0.7A11.81,11.81,0,0,0,37.14,72.64Z"/><circle class="cls-2" cx="27.58" cy="37.12" r="11.81"/><ellipse class="cls-2" cx="13.9" cy="60.88" rx="11.81" ry="11.81"/><circle class="cls-3" cx="27.58" cy="37.12" r="11.81"/><path class="cls-3" d="M27.09,25.31H46.53l-2.12-2H52l2.14,2H71.75"/><path class="cls-3" d="M71.45,48.93a11.81,11.81,0,0,0,0-23.62"/><line class="cls-3" x1="27.58" x2="71.45" y1="48.93" y2="48.93"/><ellipse class="cls-3" cx="13.9" cy="60.88" rx="11.81" ry="11.81"/><polyline class="cls-3" points="13.41 49.06 13.9 49.06 37.74 49.05 58.07 49.05"/><line class="cls-3" x1="39.43" x2="58.76" y1="72.63" y2="72.59"/><polyline class="cls-3" points="13.9 72.69 37.14 72.64 39.38 72.63"/><path class="cls-3" d="M58.71,72.64a7.42,7.42,0,0,1-.93,0"/><path class="cls-3" d="M38.22,49.06a11.81,11.81,0,0,1,1.21,23.57h0a11.4,11.4,0,0,1-1.16.06c-0.36,0-.73,0-1.08,0A11.81,11.81,0,0,1,38.22,49.06Z"/><polyline class="cls-3" points="37.74 49.06 38.22 49.06 82.09 49.05 82.39 49.05"/><path class="cls-3" d="M82.09,72.69a8.38,8.38,0,0,0,1,0,11.81,11.81,0,0,0-1-23.58"/><polyline class="cls-3" points="38.22 72.69 58.71 72.64 58.77 72.64 83.09 72.59"/><line class="cls-3" x1="45.2" x2="59.8" y1="34.63" y2="34.63"/><line class="cls-3" x1="58.83" x2="68.56" y1="38.52" y2="38.52"/><line class="cls-3" x1="53.96" x2="68.56" y1="54.1" y2="54.1"/><line class="cls-3" x1="67.59" x2="77.32" y1="57.99" y2="57.99"/><line class="cls-3" x1="57.85" x2="67.59" y1="66.75" y2="66.75"/><path class="cls-3" d="M22.16,36A5.07,5.07,0,0,1,27.23,31"/><path class="cls-3" d="M20.26,61.15a6.46,6.46,0,0,1-6.45,6.45"/><path class="cls-3" d="M38.75,67.37A6.34,6.34,0,0,1,32.43,61"/><path class="cls-3" d="M19,57a6.85,6.85,0,0,0-3.69-2.43"/></svg>
