<?xml version="1.0" encoding="UTF-8" standalone="no"?>
<!DOCTYPE svg PUBLIC "-//W3C//DTD SVG 1.1//EN" "http://www.w3.org/Graphics/SVG/1.1/DTD/svg11.dtd">
<svg width="100%" height="100%" viewBox="0 0 766 937" version="1.1" xmlns="http://www.w3.org/2000/svg" xmlns:xlink="http://www.w3.org/1999/xlink" xml:space="preserve" xmlns:serif="http://www.serif.com/" style="fill-rule:evenodd;clip-rule:evenodd;stroke-linejoin:round;stroke-miterlimit:2;">
    <g transform="matrix(1,0,0,1,-117.080425,-51.605933)">
        <g id="Background">
            <path d="M694.553,978.121C679.971,976.112 680.027,975.848 512.474,951.664C501.108,950.023 385.984,933.406 370.439,930.889C357.244,928.753 184.649,904.115 179.53,903.307C147.772,898.29 133.936,899.528 123.575,885.444C109.024,865.662 120.907,849.934 139.649,795.553C155.106,750.701 186.715,661.281 190.839,649.616C230.518,537.366 228.607,536.621 233.828,527.694C239.887,517.334 249.284,513.576 249.426,513.424C252.348,510.311 222.431,493.956 213.927,456.402C207.188,426.644 215.595,360.075 223.738,326.557C224.553,323.201 220.713,321.199 215.43,313.55C187.778,273.503 157.498,252.47 175.829,182.588C194.933,109.758 216.902,104.965 222.25,102.042C267.492,77.314 342.541,16.198 382.866,79.258C395.206,98.555 392.504,102.554 397.538,101.781C422.547,97.94 430.18,97.717 474.476,102.698C505.143,106.147 507.95,108.69 509.404,108.19C527.055,102.12 580.32,97.019 613.516,100.357C623.207,101.331 625.686,104.918 627.715,98.563C645.652,42.394 709.193,40.394 770.183,80.97C804.62,103.88 831.88,121.897 846.136,176.585C864.374,246.548 824.354,297.739 820.973,302.818C804.666,327.31 792.267,329.997 790.675,330.812C789.403,331.463 789.8,331.781 780.834,345.722C777.526,350.867 785.302,358.949 789.179,387.543C798.497,456.273 777.961,484.119 767.174,499.273C752.387,520.043 703.088,563.839 686.64,574.72C683.551,576.764 684.505,580.72 685.628,581.226C685.982,581.386 832.683,604.436 836.579,605.019C844.499,606.204 877.173,606.737 882.094,635.567C883.069,641.278 883.489,643.744 867.532,706.508C803.064,960.075 805.443,961.33 797.012,973.125C779.848,997.138 759.892,986.423 694.553,978.121Z" style="fill:rgb(253,252,253);"/>
            <path d="M223.956,381.534C227.172,350.956 229.839,338.947 234.074,324.377C235.151,320.673 230.051,318.961 219.982,304.171C194.047,266.076 159.065,246.182 195.608,151.543C211.16,111.265 218.798,116.491 257.783,91.956C340.411,39.953 366.635,57.346 388.528,110.487C389.953,113.945 397.319,111.107 404.563,109.901C411.591,108.732 431.136,105.479 493.514,114.393C506.749,116.284 506.277,120.323 509.588,118.7C514.957,116.069 514.695,114.51 547.55,110.986C617.472,103.486 629.06,114.445 633.354,113.08C634.66,112.665 637.024,85.691 655.766,72.877C660.966,69.323 685.871,52.296 734.484,71.541C751.879,78.427 784.869,101.88 796.192,110.895C837.562,143.832 842.878,198.618 841.075,224.462C837.893,270.096 804.295,317.607 787.415,322.166C780.393,324.062 783.195,327.245 770.916,343.814C767.224,348.796 772.657,354.744 775.218,365.574C794.552,447.324 774.828,487.948 722.935,531.988C699.045,552.263 698.037,557.836 677.629,568.729C674.982,570.142 675.666,574.06 675.564,585.5C675.521,590.332 681.282,589.787 684.528,590.31C759.952,602.469 759.979,602.225 766.534,603.302C854.548,617.763 855.786,615.263 864.089,621.999C880.896,635.635 870.306,653.443 859.978,697.611C855.487,716.815 804.14,920.325 800.566,933.518C795.754,951.278 792.472,980.488 766.52,979.09C761.572,978.824 674.458,965.986 666.459,964.807C378.932,922.434 210.352,898.593 182.523,894.349C150.916,889.53 137.059,890.94 129.77,878.338C122.591,865.923 127.356,857.189 129.381,851.456C132.442,842.795 152.493,786.051 168.022,743.326C204.717,642.365 202.293,641.578 238.401,540.465C249.071,510.587 268.329,521.805 271.421,520.291C273.634,519.207 271.384,518.886 267.955,516.005C213.327,470.126 217.925,444.981 223.956,381.534Z" style="fill:rgb(53,31,29);"/>
            <path d="M252.159,248.63C251.633,248.651 248.818,247.128 248.578,251.53C248.202,258.433 235.759,268.475 228.17,282.338C228.041,282.573 228.012,282.53 226.04,284.921C214.548,269.058 197.701,254.44 195.971,226.462C194.248,198.595 212.039,136.374 230.717,125.882C252.488,113.654 252.346,113.617 273.704,100.837C354.631,52.411 362.38,91.621 375.916,121.314C382.385,135.506 387.157,127.978 409.567,124.975C438.123,121.149 494.423,129.465 497.381,131.67C502.479,135.469 503.233,157.232 506.389,192.508C506.467,193.387 507.897,209.367 510.752,202.634C512.262,199.072 511.51,198.898 515.01,154.462C516.458,136.078 513.745,131.018 528.567,128.968C595.951,119.648 618.852,125.83 626.409,127.87C650.103,134.266 657.27,145.193 654.474,138.507C653.635,136.501 648.64,124.557 650.872,111.57C658.631,66.426 705.708,79.396 714.51,81.459C720.746,82.921 740.616,87.578 784.168,120.938C820.817,149.012 826.699,198.822 825.107,222.469C822.29,264.328 793.434,298.07 788.249,303.244C780.543,310.934 786.55,299.372 788.219,294.407C812.653,221.69 789.301,196.248 780.919,182.264C758.934,145.589 766.336,122.691 741.268,105.853C729.382,97.868 682.293,82.298 675.296,115.459C670.539,138.004 691.658,179.253 695.338,176.282C695.377,176.25 705.631,148.904 711.664,146.93C715.673,145.617 710.428,158.969 709.955,160.627C702.252,187.628 725.064,199.593 722.103,219.452C719.674,235.74 721.303,236.582 743.102,263.825C751.045,273.752 753.95,282.972 760.06,276.077C781.214,252.204 768.046,219.325 768.108,218.465C768.139,218.032 770.152,213.766 773.061,220.68C784.15,247.033 793.478,283.543 757.056,335.189C753.046,340.874 748.604,326.94 745.818,330.751C743.258,334.251 780.062,391.109 760.641,458.551C759.097,457.173 757.916,457.468 758.711,455.514C762.626,445.892 759.897,414.146 758.568,412.376C754.591,407.081 765.113,431.145 738.059,471.201C719.257,499.039 682.806,526.962 682.5,526.848C681.872,526.614 681.683,525.683 681.055,525.449C687.155,483.383 695.012,467.719 693.925,462.414C693.193,458.839 686.511,462.632 685.335,463.056C651.997,475.056 643.434,458.526 629.368,444.633C616.519,431.941 598.448,427.878 608.874,417.894C623.589,403.803 650.9,415.321 666.517,413.712C692.454,411.039 684.576,397.534 713.208,377.104C718.708,373.18 721.15,357.404 714.529,357.176C697.859,356.604 698.048,355.66 681.528,353.31C642.569,347.769 628.485,390.171 599.452,385.807C576.907,382.418 574.283,355.778 574.231,355.605C572.309,349.134 564.68,363.33 564.942,379.506C565.523,415.436 585.631,404.554 604.029,429.841C606.957,433.865 633.736,485.003 646.847,525.394C646.211,526.299 645.809,525.667 645.224,526.5C645.178,526.566 645.113,526.659 645.368,527.5C647.636,534.972 662.585,610.186 635.022,650.137C632.178,654.26 614.368,680.073 573.333,660.871C528.448,639.869 534.486,615.852 533.401,612.5C533.242,612.009 532.475,611.886 532.316,611.395C539.481,601.49 539.908,601.93 546.989,591.848C554.021,581.834 553.794,580.981 565.383,577.165C606.302,563.691 590.632,529.039 586.147,522.762C581.691,516.526 568.433,497.97 492.503,502.553C487.934,502.828 452.65,504.958 446.44,536.487C440.176,568.293 465.576,576.103 467.7,577.044C477.768,581.502 477.217,582.353 493.869,596.082C493.879,597.012 491.765,597.239 493.906,599.5C494.931,600.582 503.555,612.596 501.754,622.542C496.369,652.288 435.507,694.78 409.991,656.177C407.975,653.127 398.011,638.052 393.786,613.454C388.713,583.917 393.611,576.845 389.005,571.459C391.216,552.72 394.159,534.162 409.059,503.285C418.698,483.313 417.696,482.717 416.292,467.52C415.473,458.667 420.789,450.041 415.346,452.002C400.501,457.351 382.096,476.064 379.596,478.606C375.959,477.405 372.988,479.068 366.546,478.186C350.075,475.928 337.853,465.19 337.5,465.207C336.762,465.243 336.862,466.91 336.124,466.945C313.181,445.325 316.77,425.773 316.485,411.5C316.337,404.068 308.15,374.557 317.507,373.561C331.149,372.109 341.383,419.132 385.433,411.137C413.958,405.959 417.25,407.47 432.371,431.596C434.211,434.531 437.727,429.555 438.011,429.153C456.048,403.625 473.17,405.402 479.276,400.232C495.472,386.518 488.726,348.874 487.93,344.427C477.182,284.448 484.233,274.656 481.861,272.05C476.459,266.112 478.847,296.732 469.945,330.622C464.637,350.831 473.855,367.398 464.099,381.223C443.735,410.08 413.323,372.857 413.237,372.772C386.521,346.497 357.321,350.729 336.481,349.814C283.566,347.489 308.621,311.239 309.328,291.494C310.023,272.089 297.179,280.258 291.356,282.017C272.347,287.761 286.555,269.847 304.12,235.298C306.633,230.355 320.857,202.377 313.208,166.572C312.2,161.85 306.118,149.032 311.144,152.999C321.949,161.527 327.572,185.07 329.54,184.983C331.61,184.891 345.845,154.021 349.104,139.405C360.941,86.309 313.759,93.518 276.196,119.06C241.505,142.65 240.994,150.744 239.955,157.573C234.532,193.215 226.642,197.169 224.276,223.482C222.655,241.509 231.731,266.309 233.298,253.474C237.841,216.266 257.061,192.097 259.531,192.331C266.092,192.953 241.695,217.407 252.159,248.63Z" style="fill:rgb(253,253,253);"/>
            <path d="M307.539,544.681C312.857,544.064 336.923,551.232 354.467,553.599C354.639,553.622 354.623,553.638 356.576,554.128C343.376,560.043 312.585,575.053 312.492,575.497C312.112,577.313 319.357,577.923 331.455,579.79C339.41,581.018 340.049,581.309 362.436,584.83L363.64,585.098C363.816,588.759 350.021,708.889 427.488,716.652C469.654,720.877 510.102,677.639 517.447,676.218C531.78,673.445 544.168,695.711 587.599,708.146C641.364,723.54 669.056,688.21 676.614,647.521C676.933,645.804 678.941,633.523 679.506,633.048C679.772,632.824 680.273,633.414 680.539,633.19C691.69,634.919 692.072,635.866 702.274,631.011C732.908,616.432 733.026,616.364 735.584,614.873C739.749,614.005 739.772,614.922 784.549,621.397C782.964,623.702 782.373,623.006 753.34,637.168C752.936,637.365 742.21,640.895 749.412,641.906C799.999,649.006 800.434,650.976 806.682,647.859C819.029,641.701 819.106,641.973 839.638,631.87C852.534,627.332 861.73,638.681 854.297,651.306C851.516,652.599 821.785,666.418 819.649,667.734C817.658,668.96 817.287,669.189 810.55,695.513C806.856,709.952 804.544,716.025 808.459,714.39C840.492,701.009 839.984,698.358 842.792,699.405C842.106,702.698 835.237,735.665 832.017,740.05C831.761,740.145 831.703,739.971 796.677,755.889C789.956,758.944 790.706,760.258 785.798,778.578C778.016,807.623 776.991,809.321 779.507,809.42C780.196,809.447 807.44,796.62 817.548,791.619C819.753,790.528 819.754,791.441 820.028,791.489C813.943,812.045 811.889,828.201 808.074,834.051C805.247,835.106 770.451,851.288 768.962,852.925C766.852,855.244 756.599,899.477 756.599,899.486C756.554,901.778 758.355,900.822 783.284,889.038C795.867,883.09 795.532,881.937 796.614,882.432C796.927,882.575 796.487,883.304 796.8,883.447C791.081,902.095 790.195,915.559 786.189,919.088C757.487,931.673 758.273,933.584 752.49,934.282C717.544,928.766 717.471,928.787 714.538,929.656C706.761,931.959 677.533,947.56 674.38,949.244C668.323,951.368 668.196,949.445 639.331,945.928C639.183,945.91 639.198,945.893 637.539,945.453C638.091,945.106 638.241,944.298 638.793,943.951C639.534,943.485 669.9,929.008 672.609,927.716C675.266,926.45 681.714,924.276 680.28,922.728C680.158,922.596 646.184,917.765 633.465,915.719C619.274,913.436 619.526,916.435 606.733,922.952C585.146,933.95 583.357,935.009 581.389,936.174C578.136,937.122 578.005,937.071 539.347,930.991C539.666,930.778 539.498,930.153 539.817,929.94C540.522,929.469 541.433,929.417 542.211,929.08C548.868,926.196 566.199,917.13 568.264,916.05C582.135,908.794 583.095,908.697 582.379,907.593C581.629,906.436 536.444,900.505 532.437,899.979C525.96,899.129 525.698,899.713 483.413,922.089C477.911,922.652 458.989,919.098 444.564,917.378C444.87,915.659 445.259,915.693 463.591,906.683C488.646,894.369 491.092,894.288 489.268,892.833C489.087,892.689 460.08,888.589 457.54,888.23C447.483,886.809 447.597,886.719 437.525,885.317C431.944,884.541 431.748,885.177 396.647,902.789C395.976,903.125 396.084,903.105 388.357,907.186C384.57,908.763 384.4,908.448 342.517,902.366C351.591,898.08 351.595,898.218 360.501,893.502C383.704,881.217 395.405,878.347 386.4,876.992C335.917,869.394 335.925,869.05 331.575,869.851C328.338,870.448 293.177,888.362 284.405,893.172C279.608,893.93 264.86,890.524 241.252,887.875C242.209,886.387 242.141,886.317 242.286,886.268C245.307,885.238 245.205,885.017 278.267,869.024C281.103,867.652 289.993,864.64 282.459,863.712C278.209,863.188 218.152,854.601 214.533,854.205C210.871,853.805 210.71,853.99 163.456,876.153C162.409,876.132 159.416,876.07 150.459,874.687C139.145,872.94 141.569,859.21 145.904,854.876C146.861,854.629 197.985,833.121 200.002,829.218C201.534,826.254 201.099,826.097 215.469,790.488C215.618,790.12 219.03,784.37 213.292,787.018C211.035,788.06 190.645,797.031 188.674,797.898C163.352,809.04 163.424,809.309 161.417,809.508C176.5,766.483 176.689,766.167 178.738,762.743C182.594,761.155 226.852,741.344 229.566,739.592C232.263,737.851 248.216,694.59 247.285,693.729C245.916,692.463 201.289,713.701 194.138,716.596C194.92,713.618 207.065,679.61 208.211,676.401C209.355,673.196 208.751,672.906 211.698,669.77C212.639,669.377 251.3,651.93 253.417,650.381C257.724,647.23 272.426,603.771 272.326,603.595C271.514,602.171 268.324,604.669 254.596,610.716C241.718,616.389 228.09,623.193 227.504,623.121C227.211,623.085 227.145,622.558 226.852,622.522C236.726,595.355 240.798,580.085 243.73,575.705C251.877,572.252 303.869,546.511 307.539,544.681Z" style="fill:rgb(252,251,245);"/>
            <path d="M423.455,850.855C413.531,849.324 258.869,827.16 244.556,825.109C234.622,823.686 228.519,826.096 231.617,816.539C241.381,786.421 241.036,785.757 243.602,784.898C245.251,784.346 445.851,814.768 446.293,814.993C448.834,816.283 448.203,817.497 437.622,849.545C436.278,853.616 430.724,851.885 423.455,850.855Z" style="fill:rgb(28,86,163);"/>
            <path d="M398.448,799.875C357.94,793.853 358.099,793.47 317.478,787.657C311.782,786.842 248.316,777.759 246.418,776.598C244.991,775.724 247.411,768.24 247.636,767.545C255.889,742.025 256.17,741.589 258.402,741.104C260.113,740.732 459.053,772.329 459.448,772.583C461.659,774.006 460.676,774.902 451.179,804.393C449.78,808.737 447.771,807.209 398.448,799.875Z" style="fill:rgb(240,16,43);"/>
            <path d="M363.64,585.098C367.782,585.82 367.762,585.638 371.388,586.623C375.096,595.24 365.672,692.926 427.551,700.021C454.717,703.136 483.731,682.005 487.862,678.996C514.251,659.778 511.85,657.155 519.641,649.697C521.6,647.822 525.782,660.148 553.786,678.045C559.997,682.015 601.74,705.635 630.484,694.458C659.62,683.127 664.677,650.841 668.629,631.572C672.087,631.258 674.32,632.038 680.539,633.19C680.273,633.414 679.772,632.824 679.506,633.048C678.941,633.523 676.933,645.804 676.614,647.521C669.056,688.21 641.364,723.54 587.599,708.146C544.168,695.711 531.78,673.445 517.447,676.218C510.102,677.639 469.654,720.877 427.488,716.652C350.021,708.889 363.816,588.759 363.64,585.098Z" style="fill:rgb(214,210,208);"/>
            <path d="M646.847,525.394C649.854,534.933 649.909,534.866 652.028,544.597C660.721,584.517 656.293,629.762 647.469,654.489C625.156,717.013 548.31,656.344 547.446,655.564C533.596,643.066 519.673,629.152 532.316,611.395C532.475,611.886 533.242,612.009 533.401,612.5C534.486,615.852 528.448,639.869 573.333,660.871C614.368,680.073 632.178,654.26 635.022,650.137C662.585,610.186 647.636,534.972 645.368,527.5C645.113,526.659 645.178,526.566 645.224,526.5C645.809,525.667 646.211,526.299 646.847,525.394Z" style="fill:rgb(225,221,219);"/>
            <path d="M389.005,571.459C393.611,576.845 388.713,583.917 393.786,613.454C398.011,638.052 407.975,653.127 409.991,656.177C435.507,694.78 496.369,652.288 501.754,622.542C503.555,612.596 494.931,600.582 493.906,599.5C491.765,597.239 493.879,597.012 493.869,596.082C503.997,604.113 512.668,612.188 513.204,622.522C514.253,642.778 472.886,683.433 432.499,685.454C389.195,687.621 385.316,609.09 389.005,571.459Z" style="fill:rgb(226,222,221);"/>
            <path d="M163.456,876.153C210.71,853.99 210.871,853.805 214.533,854.205C218.152,854.601 278.209,863.188 282.459,863.712C289.993,864.64 281.103,867.652 278.267,869.024C245.205,885.017 245.307,885.238 242.286,886.268C242.141,886.317 242.209,886.387 241.252,887.875C206.803,882.555 167.347,877.841 163.456,876.153Z" style="fill:rgb(28,87,164);"/>
            <path d="M194.138,716.596C201.289,713.701 245.916,692.463 247.285,693.729C248.216,694.59 232.263,737.851 229.566,739.592C226.852,741.344 182.594,761.155 178.738,762.743C178.781,759.92 179.168,759.976 193.026,719.342C193.52,717.895 193.571,717.998 194.138,716.596Z" style="fill:rgb(27,85,163);"/>
            <path d="M161.417,809.508C163.424,809.309 163.352,809.04 188.674,797.898C190.645,797.031 211.035,788.06 213.292,787.018C219.03,784.37 215.618,790.12 215.469,790.488C201.099,826.097 201.534,826.254 200.002,829.218C197.985,833.121 146.861,854.629 145.904,854.876C146.386,851.07 146.629,849.155 161.417,809.508Z" style="fill:rgb(240,16,42);"/>
            <path d="M832.017,740.05C832.484,744.249 832.321,744.309 820.028,791.489C819.754,791.441 819.753,790.528 817.548,791.619C807.44,796.62 780.196,809.447 779.507,809.42C776.991,809.321 778.016,807.623 785.798,778.578C790.706,760.258 789.956,758.944 796.677,755.889C831.703,739.971 831.761,740.145 832.017,740.05Z" style="fill:rgb(26,84,162);"/>
            <path d="M284.405,893.172C293.177,888.362 328.338,870.448 331.575,869.851C335.925,869.05 335.917,869.394 386.4,876.992C395.405,878.347 383.704,881.217 360.501,893.502C351.595,898.218 351.591,898.08 342.517,902.366C287.832,894.253 287.661,894.743 284.405,893.172Z" style="fill:rgb(240,16,41);"/>
            <path d="M760.641,458.551C749.171,486.291 742.175,494.468 682.143,547.03C677.088,551.456 679.669,536.498 681.055,525.449C681.683,525.683 681.872,526.614 682.5,526.848C682.806,526.962 719.257,499.039 738.059,471.201C765.113,431.145 754.591,407.081 758.568,412.376C759.897,414.146 762.626,445.892 758.711,455.514C757.916,457.468 759.097,457.173 760.641,458.551Z" style="fill:rgb(224,220,219);"/>
            <path d="M226.852,622.522C227.145,622.558 227.211,623.085 227.504,623.121C228.09,623.193 241.718,616.389 254.596,610.716C268.324,604.669 271.514,602.171 272.326,603.595C272.426,603.771 257.724,647.23 253.417,650.381C251.3,651.93 212.639,669.377 211.698,669.77C211.191,665.313 213.469,662.457 226.852,622.522Z" style="fill:rgb(240,15,41);"/>
            <path d="M241.882,454.403C237.99,435.603 238.471,432.202 241.896,405.549C246.511,369.641 244.046,368.424 246.786,366.947C254.298,362.898 247.484,400.436 253.353,435.525C260.866,480.439 303.635,512.485 305.286,518.536C306.398,522.615 299.186,517.457 298.752,517.146C243.899,477.92 243.532,459.203 241.882,454.403Z" style="fill:rgb(253,253,253);"/>
            <path d="M388.357,907.186C396.084,903.105 395.976,903.125 396.647,902.789C431.748,885.177 431.944,884.541 437.525,885.317C447.597,886.719 447.483,886.809 457.54,888.23C460.08,888.589 489.087,892.689 489.268,892.833C491.092,894.288 488.646,894.369 463.591,906.683C445.259,915.693 444.87,915.659 444.564,917.378C443.932,917.126 399.352,910.792 394.583,910.034C390.922,909.452 390.256,910.357 388.357,907.186Z" style="fill:rgb(27,87,165);"/>
            <path d="M808.074,834.051C808.919,838.015 807.103,837.847 796.8,883.447C796.487,883.304 796.927,882.575 796.614,882.432C795.532,881.937 795.867,883.09 783.284,889.038C758.355,900.822 756.554,901.778 756.599,899.486C756.599,899.477 766.852,855.244 768.962,852.925C770.451,851.288 805.247,835.106 808.074,834.051Z" style="fill:rgb(239,16,42);"/>
            <path d="M483.413,922.089C525.698,899.713 525.96,899.129 532.437,899.979C536.444,900.505 581.629,906.436 582.379,907.593C583.095,908.697 582.135,908.794 568.264,916.05C566.199,917.13 548.868,926.196 542.211,929.08C541.433,929.417 540.522,929.469 539.817,929.94C539.498,930.153 539.666,930.778 539.347,930.991C538.251,930.858 538.254,930.891 511.573,927.022C484.823,923.143 484.933,922.794 483.413,922.089Z" style="fill:rgb(240,17,43);"/>
            <path d="M581.389,936.174C583.357,935.009 585.146,933.95 606.733,922.952C619.526,916.435 619.274,913.436 633.465,915.719C646.184,917.765 680.158,922.596 680.28,922.728C681.714,924.276 675.266,926.45 672.609,927.716C669.9,929.008 639.534,943.485 638.793,943.951C638.241,944.298 638.091,945.106 637.539,945.453C616.916,942.562 584.102,937.725 583.499,937.511C583.31,937.445 583.342,937.412 581.389,936.174Z" style="fill:rgb(27,87,166);"/>
            <path d="M854.297,651.306C854.699,655.597 849.137,673.9 843.359,697.466C843.109,698.488 843.094,698.374 842.792,699.405C839.984,698.358 840.492,701.009 808.459,714.39C804.544,716.025 806.856,709.952 810.55,695.513C817.287,669.189 817.658,668.96 819.649,667.734C821.785,666.418 851.516,652.599 854.297,651.306Z" style="fill:rgb(239,15,41);"/>
            <path d="M784.549,621.397C815.164,626.714 837.999,629.608 838.443,629.919C839.068,630.356 839.013,631.433 839.638,631.87C819.106,641.973 819.029,641.701 806.682,647.859C800.434,650.976 799.999,649.006 749.412,641.906C742.21,640.895 752.936,637.365 753.34,637.168C782.373,623.006 782.964,623.702 784.549,621.397Z" style="fill:rgb(240,16,42);"/>
            <path d="M585.182,543.65C585.069,543.431 583.088,538.915 580.067,534.836C575.993,529.335 563.599,512.6 496.497,516.446C492.209,516.692 459.455,518.57 450.957,544.867C447.035,557.005 446.999,535.07 460.603,520.595C481.951,497.879 547.267,508.681 556.449,510.787C595.899,519.834 589.354,559.281 587.406,551.585C586.379,547.526 586.675,547.518 585.182,543.65Z" style="fill:rgb(94,71,69);"/>
            <path d="M735.584,614.873C733.026,616.364 732.908,616.432 702.274,631.011C692.072,635.866 691.69,634.919 680.539,633.19C674.32,632.038 672.087,631.258 668.629,631.572C668.776,629.477 669.639,617.163 671.216,605.444C671.648,602.235 673.505,603.601 711.437,609.896C732.617,613.41 732.798,613.089 735.584,614.873Z" style="fill:rgb(25,86,165);"/>
            <path d="M752.49,934.282C750.56,937.528 750.366,937.327 748.989,940.825C737.822,948.497 725.591,953.922 721.458,957.652C702.623,954.823 680.439,951.847 676.552,951.103C676.552,951.103 674.554,949.392 674.38,949.244C677.533,947.56 706.761,931.959 714.538,929.656C717.471,928.787 717.544,928.766 752.49,934.282Z" style="fill:rgb(241,17,42);"/>
            <path d="M307.539,544.681C303.869,546.511 251.877,572.252 243.73,575.705C244.389,570.868 244.683,571.014 246.279,566.426C249.732,556.497 249.539,556.528 252.989,546.664C258.002,532.329 261.84,533.768 276.584,537.141C278.893,537.67 300.036,542.507 305.494,543.537C306.711,543.766 306.481,544.089 307.539,544.681Z" style="fill:rgb(27,86,164);"/>
            <path d="M786.189,919.088C786.395,919.599 786.982,919.893 787.189,920.403C787.577,921.364 780.673,946.154 780.053,948.38C774.311,968.999 767.643,964.424 746.539,961.255C745.798,960.87 745.058,960.484 744.317,960.099C748.646,946.422 748.892,942.408 748.989,940.825C750.366,937.327 750.56,937.528 752.49,934.282C758.273,933.584 757.487,931.673 786.189,919.088Z" style="fill:rgb(27,88,167);"/>
            <path d="M356.576,554.128C360.24,554.82 363.904,555.512 367.568,556.204C366.966,556.526 366.483,555.611 365.154,557.5C364.534,558.38 363.969,581.094 363.97,582.531C363.97,583.889 364.469,584.068 363.376,584.975C363.132,585.177 362.68,584.627 362.436,584.83C340.049,581.309 339.41,581.018 331.455,579.79C319.357,577.923 312.112,577.313 312.492,575.497C312.585,575.053 343.376,560.043 356.576,554.128Z" style="fill:rgb(242,15,42);"/>
            <path d="M252.159,248.63C257.037,260.596 257.333,261.508 250.834,272.695C249.655,274.724 241.604,288.584 241.464,300.498C241.358,309.61 237.585,299.977 226.04,284.921C228.012,282.53 228.041,282.573 228.17,282.338C235.759,268.475 248.202,258.433 248.578,251.53C248.818,247.128 251.633,248.651 252.159,248.63Z" style="fill:rgb(219,214,213);"/>
            <path d="M367.568,556.204C373.884,557.654 374.371,557.182 374.621,558.471C374.738,559.072 373.373,568.01 373.315,568.475C371.86,580.035 373.49,581.81 371.388,586.623C367.762,585.638 367.782,585.82 363.64,585.098L362.436,584.83C362.68,584.627 363.132,585.177 363.376,584.975C364.469,584.068 363.97,583.889 363.97,582.531C363.969,581.094 364.534,558.38 365.154,557.5C366.483,555.611 366.966,556.526 367.568,556.204Z" style="fill:rgb(212,17,39);"/>
            <path d="M748.989,940.825C748.892,942.408 748.646,946.422 744.317,960.099C742.508,960.427 739.426,960.985 721.458,957.652C725.591,953.922 737.822,948.497 748.989,940.825Z" style="fill:rgb(252,250,246);"/>
            <path d="M336.124,466.945C336.862,466.91 336.762,465.243 337.5,465.207C337.853,465.19 350.075,475.928 366.546,478.186C372.988,479.068 375.959,477.405 379.596,478.606C378.511,479.696 373.949,484.284 360.472,480.611C346.014,476.67 337.779,468.246 336.124,466.945Z" style="fill:rgb(226,222,222);"/>
        </g>
    </g>
</svg>
