<?xml version="1.0" encoding="iso-8859-1"?>
<!-- Generator: Adobe Illustrator 19.0.0, SVG Export Plug-In . SVG Version: 6.00 Build 0)  -->
<svg version="1.1" id="Capa_1" xmlns="http://www.w3.org/2000/svg" xmlns:xlink="http://www.w3.org/1999/xlink" x="0px" y="0px"
	 viewBox="0 0 512 512" style="enable-background:new 0 0 512 512;" xml:space="preserve">
<g>
	<path style="fill:#FFA000;" d="M309.333,0H202.667c-17.673,0-32,14.327-32,32v64c0,5.891,4.776,10.667,10.667,10.667h149.333
		c5.891,0,10.667-4.776,10.667-10.667V32C341.333,14.327,327.006,0,309.333,0z"/>
	<path style="fill:#FFA000;" d="M138.667,426.667h234.667c5.891,0,10.667,4.776,10.667,10.667v64
		c0,5.891-4.776,10.667-10.667,10.667H138.667c-5.891,0-10.667-4.776-10.667-10.667v-64
		C128,431.442,132.776,426.667,138.667,426.667z"/>
</g>
<path style="fill:#FFC107;" d="M138.667,85.333h234.667c53.019,0,96,42.981,96,96V352c0,53.019-42.981,96-96,96H138.667
	c-53.019,0-96-42.981-96-96V181.333C42.667,128.314,85.647,85.333,138.667,85.333z"/>
<g>
	<path style="fill:#455A64;" d="M256,362.667c-28.3,0.08-55.456-11.167-75.413-31.232c-4.092-4.237-3.975-10.99,0.262-15.083
		c4.134-3.992,10.687-3.992,14.82,0c33.783,32.183,86.879,32.183,120.661,0c4.237-4.092,10.99-3.975,15.083,0.262
		c3.992,4.134,3.992,10.687,0,14.82C311.456,351.5,284.3,362.747,256,362.667z"/>
	<path style="fill:#455A64;" d="M192,256c-11.782,0-21.333-9.551-21.333-21.333s9.551-21.333,21.333-21.333
		c11.782,0,21.333,9.551,21.333,21.333S203.782,256,192,256z"/>
	<path style="fill:#455A64;" d="M320,256c-11.782,0-21.333-9.551-21.333-21.333s9.551-21.333,21.333-21.333
		c11.782,0,21.333,9.551,21.333,21.333S331.782,256,320,256z"/>
</g>
<g>
</g>
<g>
</g>
<g>
</g>
<g>
</g>
<g>
</g>
<g>
</g>
<g>
</g>
<g>
</g>
<g>
</g>
<g>
</g>
<g>
</g>
<g>
</g>
<g>
</g>
<g>
</g>
<g>
</g>
</svg>
