<?xml version="1.0" encoding="UTF-8" standalone="no"?>
<!DOCTYPE svg PUBLIC "-//W3C//DTD SVG 1.1//EN" "http://www.w3.org/Graphics/SVG/1.1/DTD/svg11.dtd">
<svg width="100%" height="100%" viewBox="0 0 567 506" version="1.1" xmlns="http://www.w3.org/2000/svg" xmlns:xlink="http://www.w3.org/1999/xlink" xml:space="preserve" xmlns:serif="http://www.serif.com/" style="fill-rule:evenodd;clip-rule:evenodd;stroke-linejoin:round;stroke-miterlimit:2;">
    <g transform="matrix(1,0,0,1,-5.200611,-44.033242)">
        <g id="Background" transform="matrix(1.024197,0,0,1.024197,-1.865981,-24.444011)">
            <path d="M63.021,315.486C63.576,318.516 63.406,318.446 63.635,321.49C64.055,327.07 65.799,326.869 90.368,334.864C90.378,335.018 90.5,336.788 90.5,336.788C90.628,337.171 91.402,337.111 91.475,337.508C92.101,340.923 86.643,356.792 102.423,362.713C133.404,374.339 133.465,373.982 164.491,385.524C217.089,405.092 217.359,404.388 221.638,406.725C214.688,410.943 214.292,410.036 207.213,414.024C206.199,414.6 206.252,414.549 205.334,415.262C203.797,417.211 203.932,417.419 203.94,432.499C203.981,512.854 202.94,513.021 204.582,517.392C196.771,516.207 197.009,515.599 90.611,479.166C17.565,454.153 17.566,454.358 11.608,451.289C5.417,448.099 7.164,446.033 7.05,375.501C7.014,353.052 6.391,349.788 7.978,344.753C14.472,337.533 57.388,321.473 63.021,315.486Z" style="fill:rgb(254,216,13);fill-opacity:1;"/>
            <path d="M558.726,311.341C560.947,314.882 559.609,318.929 560.112,418.508C560.154,426.735 554.235,426.449 511.367,449.249C504.826,452.728 502.761,452.115 502.915,459.493C503.198,473.041 503.519,474.276 497.397,477.301C461.172,495.201 341.869,559.842 338.571,560.84C339.593,555.237 339.11,555.25 339.1,549.504C338.952,469.206 339.782,469.081 338.161,464.081C339.43,463.296 436.794,414.539 445.375,410.241C449.637,408.107 449.561,408.138 473.742,395.921C499.849,382.732 503.351,382.263 500.343,379.697C500.02,379.421 499.986,379.535 495.5,377.499C495.922,377.124 496.446,376.876 496.868,376.5C497.969,375.518 496.524,375.968 495.114,375.5C493.147,374.847 493.556,374.166 491.47,373.628C489.38,373.09 489.544,374.024 489.384,373.969C488.895,373.801 488.845,373.041 488.408,372.766C486.794,371.751 478.698,370.614 478.434,368.514C478.376,368.052 478.339,357.575 478.35,357.492C478.449,356.79 479.365,356.381 479.463,355.679C481.098,355.336 481.091,355.561 482.613,354.72C488.539,351.451 554.027,315.322 556.628,313.745C557.967,312.819 557.802,312.773 558.726,311.341Z" style="fill:rgb(0,114,216);fill-opacity:1;"/>
            <path d="M206.225,124.225C206.953,124.719 207.682,125.213 208.411,125.707C248.016,137.012 378.316,177.36 390.359,180.013C391.184,179.626 392.009,179.239 392.834,178.852C399.686,176.251 410.207,172.256 476.27,141.016C476.755,140.787 476.725,140.76 482.295,138.062C484.999,136.752 484.785,136.506 485.722,135.207C489.027,138.726 488.613,139.325 488.034,195.501C487.585,239.03 490.076,241.728 481.338,246.186C478.845,247.459 462.459,255.452 455.367,259.142C417.762,276.567 414.325,279.716 411.47,280.54C401.118,271.476 383.427,268.711 367.432,267.708C352.42,231.627 353.875,231.09 346.718,216.386C341.521,210.977 322.529,208.185 301.572,199.261C299.81,197.147 300.163,197.026 299.292,194.437C300.027,191.579 303.727,177.199 270.532,171.331C231.844,164.492 208.576,179.309 204.029,182.205C203.957,177.75 203.178,129.765 204.523,126.511C205.037,125.269 205.18,125.428 206.225,124.225Z" style="fill:rgb(225,34,37);fill-opacity:1;"/>
            <path d="M153.349,227.501C153.806,227.612 244.663,260.168 251.472,261.375C251.366,261.836 250.714,262.039 250.608,262.5C250.381,263.488 244.132,380.264 243.584,390.505C243.008,401.259 242.737,401.24 243.598,404.722C242.343,405.107 241.285,406.693 230.485,405.937C229.81,405.3 230.448,404.637 228.337,403.907C223.266,402.155 223.363,402.131 194.414,391.744C109.245,361.187 108.935,362.094 101.605,359.238C89.759,354.624 97.434,344.808 99.533,337.573C103.007,334.474 104.755,327.562 127.898,281.673C128.122,281.292 128.345,280.911 128.569,280.53C132.335,271.892 132.861,272.206 136.476,263.485C140.604,255.73 152.04,230.399 153.349,227.501Z" style="fill:rgb(254,222,16);fill-opacity:1;"/>
            <path d="M205.334,415.262C206.539,416.252 205.923,417.215 211.641,419.083C244.247,429.735 327.271,461.272 338.161,464.081C339.782,469.081 338.952,469.206 339.1,549.504C339.11,555.25 339.593,555.237 338.571,560.84C330.513,560.55 330.711,559.517 234.578,528.288C207.466,519.481 206.65,518.89 204.582,517.392C202.94,513.021 203.981,512.854 203.94,432.499C203.932,417.419 203.797,417.211 205.334,415.262Z" style="fill:rgb(23,162,246);fill-opacity:1;"/>
            <path d="M346.718,216.386C353.875,231.09 352.42,231.627 367.432,267.708C346.187,269.314 328.038,272.642 323.823,288.539C323.628,292.016 323.715,291.929 323.044,295.313C322.358,295.635 322.441,295.626 321.746,295.922C321.604,295.983 321.5,296.111 321.362,296.179C282.045,315.556 281.894,315.559 279.474,318.485C279.248,319.174 279.023,319.863 278.797,320.552L278.602,321.515C269.531,317.904 270.345,330.608 265.973,363.558C263.067,385.463 262.919,387.45 262.764,389.539C262.664,390.881 262.119,391.464 262.144,391.5C262.27,391.685 262.329,391.593 264.651,392.75C258.234,396.259 253.569,399.491 243.598,404.722C242.737,401.24 243.008,401.259 243.584,390.505C244.132,380.264 250.381,263.488 250.608,262.5C250.714,262.039 251.366,261.836 251.472,261.375C254.295,260.884 255.338,260.703 284.319,247.109C303.276,238.217 305.886,236.907 307.74,235.976C321.433,229.1 343.828,219.896 346.718,216.386Z" style="fill:rgb(246,180,0);fill-opacity:1;"/>
            <path d="M278.797,320.552C280.538,323.466 285.204,324.122 287.376,324.834C317.321,334.652 360.985,352.036 370.165,353.059C371.024,373.567 370.38,422.276 370.316,422.38C370.235,422.512 370.286,422.447 367.58,424.12C360.098,422.015 353.571,419.313 352.381,418.821C343.857,415.749 341.425,414.917 340.468,414.59C338.393,413.786 335.805,412.913 335.397,412.776C322.851,407.771 281.818,394.81 279.901,391.261C279.659,390.812 279.775,390.805 278.195,385.115C279.205,381.744 277.856,332.086 278.602,321.515L278.797,320.552Z" style="fill:rgb(62,187,78);fill-opacity:1;"/>
            <path d="M284.533,396.417C284.178,396.809 283.727,397.107 283.372,397.5C282.84,398.088 283.073,398.785 292.353,401.831C302.492,405.16 322.851,412.556 325.494,413.515C351.315,422.896 351.614,421.965 353.738,423.05C358.796,425.633 371.606,427.914 373.433,427.394C374.934,426.965 375.286,428.009 375.431,428.065C375.947,428.262 379.109,427.569 379.38,427.663C380.136,427.924 379.813,432.365 387.149,430.226C391.403,428.985 390.321,427.796 390.441,427.453C391.143,425.444 391.476,425.68 391.457,425.505C391.093,422.221 394.024,424.772 396.274,422.33C397.173,421.354 396.297,420.546 396.302,420.528C396.642,419.514 396.967,419.817 400.483,418.441C406.241,416.187 419.025,410.474 420.627,409.758C466.393,389.305 464.886,386.255 485.53,377.706C488.303,376.558 497.167,380.637 497.263,380.713C498.603,381.768 472.82,393.724 435.568,412.662C423.601,418.746 423.973,419.319 423.515,419.548C423.19,419.71 422.787,419.262 422.439,419.367C420.092,420.073 410.631,425.18 409.623,425.724C406.92,427.183 406.508,427.405 375.412,443.167C353.323,454.364 353.318,454.324 351.414,455.329C340.802,460.93 340.128,460.358 339.345,459.694C336.898,457.619 222.754,418.561 212.583,415.08C211.55,415.254 210.517,415.428 209.484,415.602C208.727,415.076 207.97,414.55 207.213,414.024C214.292,410.036 214.688,410.943 221.638,406.725L222.373,406.264C223.477,406.808 223.279,407.016 224.5,407.312C231.873,409.096 238.087,412.858 250.372,406.263C271.007,395.185 276.287,399.113 278.144,396.045C279.245,394.226 282.641,395.914 284.533,396.417Z" style="fill:rgb(74,194,253);fill-opacity:1;"/>
            <path d="M455.12,313.864C457.24,317.257 456.721,319.149 456.778,331.501C456.846,337.145 456.913,342.789 456.981,348.432C457.062,356.014 456.946,355.931 457.062,363.462C457.155,377.297 458.491,379.123 453.259,382.073C441.535,388.686 397.474,411.99 376.426,422.3C372.035,423.686 372.158,423.914 367.58,424.12C370.286,422.447 370.235,422.512 370.316,422.38C370.38,422.276 371.024,373.567 370.165,353.059C381.976,347.545 441.839,320.863 455.12,313.864Z" style="fill:rgb(24,135,53);fill-opacity:1;"/>
            <path d="M349.12,84.532C349.711,102.758 348.926,103.242 350.442,104.183L349.414,105.45C348.867,106.673 341.473,115.027 359.642,123.201C373.125,129.267 393.307,129.674 399.449,129.238C413.509,128.24 424.318,124.02 426.374,123.217C427.612,122.586 437.156,117.722 440.044,112.509C440.131,116.575 438.649,117.171 441.663,120.002C441.518,120.675 440.396,120.836 440.25,121.51C440.25,121.51 440.522,128.858 440.545,129.497C440.775,139.069 441.053,139.08 439.288,144.363C434.822,154.621 391.212,163.552 360.66,152.051C342.732,145.302 347.174,140.297 345.89,121.161C346.349,118.338 347.491,115.246 345.846,117.58C344.842,119.004 344.925,118.953 344.582,120.626C320.552,138.567 259.211,128.841 258.329,113.517C257.834,104.915 259.444,104.098 257.403,99.381C257.672,98.863 258.395,98.978 258.639,86.512C260.564,88.843 263.724,95.734 285.492,100.538C310.929,106.15 344.101,98.35 347.924,87.635C348.014,87.384 348.841,85.066 349.12,84.532Z" style="fill:rgb(232,31,37);fill-opacity:1;"/>
            <path d="M257.403,99.381C259.444,104.098 257.834,104.915 258.329,113.517C259.211,128.841 320.552,138.567 344.582,120.626C345.018,120.805 345.454,120.983 345.89,121.161C347.174,140.297 342.732,145.302 360.66,152.051C391.212,163.552 434.822,154.621 439.288,144.363C439.839,144.631 440.049,145.383 440.6,145.651C441.598,146.137 453.414,138.56 450.223,132.611C447.735,127.97 445.65,129.208 444.514,128.476C442.468,127.157 442.212,127.694 440.545,129.497C440.522,128.858 440.25,121.51 440.25,121.51C440.396,120.836 441.518,120.675 441.663,120.002C461.376,126.731 482.628,133.291 485.722,135.207C484.785,136.506 484.999,136.752 482.295,138.062C476.725,140.76 476.755,140.787 476.27,141.016C410.207,172.256 399.686,176.251 392.834,178.852C392.434,178.361 391.942,177.95 391.541,177.459C390.07,175.655 214.476,121.706 210.5,124.763C210.054,125.106 209.812,125.718 209.299,125.95C209.019,126.076 208.69,125.58 208.411,125.707C207.682,125.213 206.953,124.719 206.225,124.225C215.434,117.55 240.964,107.794 257.403,99.381Z" style="fill:rgb(254,101,82);fill-opacity:1;"/>
            <path d="M301.572,199.261C322.529,208.185 341.521,210.977 346.718,216.386C343.828,219.896 321.433,229.1 307.74,235.976C305.886,236.907 303.276,238.217 284.319,247.109C255.338,260.703 254.295,260.884 251.472,261.375C244.663,260.168 153.806,227.612 153.349,227.501C153.461,226.917 153.573,226.334 153.685,225.75C155.362,224.135 155.389,224.309 157.274,223.063C168.197,216.658 192.169,207.365 198.4,202.437C203.455,214.069 188.769,226.315 218.61,235.056C236.341,240.25 265.573,240.445 282.578,234.735C292.711,231.333 295.695,229.195 301.807,224.891C311.651,221.439 311.864,212.294 312.118,209.465C312.361,206.756 313.249,205.866 310.662,205.212C303.922,203.509 303.227,201.516 301.016,204.53C300.827,204.788 301.146,205.23 300.956,205.488C301.161,203.412 301.367,201.337 301.572,199.261Z" style="fill:rgb(254,244,73);fill-opacity:1;"/>
            <path d="M64.246,260.276C70.739,262.783 117.886,278.778 125.446,280.975L127.898,281.673C104.755,327.562 103.007,334.474 99.533,337.573C96.263,337.006 95.083,336.291 90.368,334.864C65.799,326.869 64.055,327.07 63.635,321.49C63.406,318.446 63.576,318.516 63.021,315.486C62.872,297.166 62.986,263.82 63.139,262.429C63.277,261.166 63.501,261.323 64.246,260.276Z" style="fill:rgb(49,180,71);fill-opacity:1;"/>
            <path d="M204.029,182.205C208.576,179.309 231.844,164.492 270.532,171.331C303.727,177.199 300.027,191.579 299.292,194.437C292.843,199.758 281.692,211.776 242.51,210.208C237.943,210.025 211.043,207.451 202.771,197.265C202.313,196.701 201.835,196.148 201.431,195.543C201.216,195.222 201.31,194.507 200.924,194.5C200.207,194.487 199.735,195.512 199.019,195.499C198.754,188.023 198.949,187.756 204.029,182.205Z" style="fill:rgb(254,243,72);fill-opacity:1;"/>
            <path d="M299.292,194.437C300.163,197.026 299.81,197.147 301.572,199.261C301.367,201.337 301.161,203.412 300.956,205.488C301.267,215.252 301.21,215.187 301.807,224.891C295.695,229.195 292.711,231.333 282.578,234.735C265.573,240.445 236.341,240.25 218.61,235.056C188.769,226.315 203.455,214.069 198.4,202.437C199.317,200.005 199.041,200.026 198.461,197.459C198.647,196.805 198.833,196.152 199.019,195.499C199.735,195.512 200.207,194.487 200.924,194.5C201.31,194.507 201.216,195.222 201.431,195.543C201.835,196.148 202.313,196.701 202.771,197.265C211.043,207.451 237.943,210.025 242.51,210.208C281.692,211.776 292.843,199.758 299.292,194.437Z" style="fill:rgb(249,193,2);fill-opacity:1;"/>
            <path d="M367.432,267.708C383.427,268.711 401.118,271.476 411.47,280.54C416.466,287.252 414.328,288.841 413.41,291.457C391.7,316.721 332.016,305.311 325.826,292.313C325.679,292.004 324.53,289.592 323.823,288.539C328.038,272.642 346.187,269.314 367.432,267.708Z" style="fill:rgb(131,225,96);fill-opacity:1;"/>
            <path d="M323.823,288.539C324.53,289.592 325.679,292.004 325.826,292.313C332.016,305.311 391.7,316.721 413.41,291.457C415.08,294.643 413.628,295.158 415.524,298.171C414.72,299.74 414.945,299.749 414.922,301.483C415.093,319.156 418.187,324.479 398.515,330.548C366.483,340.429 324.225,330.772 323.421,317.507C322.748,306.399 323.356,306.455 323.044,295.313C323.715,291.929 323.628,292.016 323.823,288.539Z" style="fill:rgb(36,160,61);fill-opacity:1;"/>
            <path d="M470.637,266.267C476.486,268.627 506.335,263.469 520.967,282.25C521.723,283.892 521.63,283.858 522.122,285.53C520.947,298.374 490.129,306.717 471.476,304.716C442.379,301.594 438.124,292.325 435.684,289.456C435.347,288.009 433.47,279.972 445.666,273.791C461.144,265.948 464.721,270.133 470.637,266.267Z" style="fill:rgb(95,207,254);fill-opacity:1;"/>
            <path d="M259.989,81.779C278.098,59.019 344.883,64.197 349.12,84.532C348.841,85.066 348.014,87.384 347.924,87.635C344.101,98.35 310.929,106.15 285.492,100.538C263.724,95.734 260.564,88.843 258.639,86.512C259.14,84.033 259.208,84.146 259.989,81.779Z" style="fill:rgb(254,107,89);fill-opacity:1;"/>
            <path d="M323.044,295.313C323.356,306.455 322.748,306.399 323.421,317.507C324.225,330.772 366.483,340.429 398.515,330.548C418.187,324.479 415.093,319.156 414.922,301.483C414.945,299.749 414.72,299.74 415.524,298.171C422.81,301.188 422.793,301.042 432.448,304.642C441.436,308.176 441.453,307.969 450.453,311.62C449.46,315.212 448.528,314.592 433.503,321.507C383.826,344.367 372.19,350.318 369.538,349.374C334.301,336.834 280.11,321.004 279.125,319.369C278.962,319.097 279.637,318.756 279.474,318.485C281.894,315.559 282.045,315.556 321.362,296.179C321.5,296.111 321.604,295.983 321.746,295.922C322.441,295.626 322.358,295.635 323.044,295.313Z" style="fill:rgb(125,220,89);fill-opacity:1;"/>
            <path d="M350.442,104.183C365.324,95.528 368.98,92.259 403.531,93.093C411.464,93.285 421.962,96.944 423.507,97.483C440.224,103.311 439.59,109.417 440.044,112.509C437.156,117.722 427.612,122.586 426.374,123.217C424.703,121.678 424.557,121.578 422.483,122.439C416.422,124.955 412.386,125.271 411.478,125.342C409.153,125.524 409.331,125.906 407.5,126.976C406.562,127.524 406.288,125.689 402.517,126.414C400.392,126.823 394.514,127.954 375.508,125.008C354.415,121.738 347.98,113.027 350.523,108.503C351.475,106.809 350.789,106.768 349.414,105.45L350.442,104.183Z" style="fill:rgb(254,104,86);fill-opacity:1;"/>
            <path d="M522.122,285.53C522.223,297.078 522.39,297.175 523.62,298.273C523.543,298.782 522.745,298.979 522.668,299.488C521.673,306.043 527.136,317.943 517.28,324.127C497.789,336.355 468.936,334.834 456.778,331.501C456.721,319.149 457.24,317.257 455.12,313.864C452.85,312.492 452.83,312.672 450.453,311.62C441.453,307.969 441.436,308.176 432.448,304.642C432.733,304.5 433.063,305.101 433.348,304.959C436.692,303.297 434.713,302.249 434.66,298.498C434.608,294.903 434.614,294.993 434.789,291.487C434.849,290.302 435.226,290.495 435.684,289.456C438.124,292.325 442.379,301.594 471.476,304.716C490.129,306.717 520.947,298.374 522.122,285.53Z" style="fill:rgb(6,121,219);fill-opacity:1;"/>
            <path d="M198.461,197.459C199.041,200.026 199.317,200.005 198.4,202.437C192.169,207.365 168.197,216.658 157.274,223.063C155.389,224.309 155.362,224.135 153.685,225.75C152.029,225.353 152.195,225.003 150.44,224.971C139.6,224.776 107.073,217.303 111.406,208.5C112.272,206.74 111.583,206.727 110.238,205.3C120.162,193.917 152.85,181.405 195.648,197.099C197.006,197.597 197.01,197.273 198.461,197.459Z" style="fill:rgb(128,222,90);fill-opacity:1;"/>
            <path d="M485.494,374.877C490.664,375.448 490.5,375.797 495.5,377.499C499.986,379.535 500.02,379.421 500.343,379.697C503.351,382.263 499.849,382.732 473.742,395.921C449.561,408.138 449.637,408.107 445.375,410.241C436.794,414.539 339.43,463.296 338.161,464.081C327.271,461.272 244.247,429.735 211.641,419.083C205.923,417.215 206.539,416.252 205.334,415.262C206.252,414.549 206.199,414.6 207.213,414.024C207.97,414.55 208.727,415.076 209.484,415.602C211.376,416.342 211.369,416.482 211.523,416.399C212.02,416.132 212.086,415.347 212.583,415.08C222.754,418.561 336.898,457.619 339.345,459.694C340.128,460.358 340.802,460.93 351.414,455.329C353.318,454.324 353.323,454.364 375.412,443.167C406.508,427.405 406.92,427.183 409.623,425.724C410.631,425.18 420.092,420.073 422.439,419.367C422.787,419.262 423.19,419.71 423.515,419.548C423.973,419.319 423.601,418.746 435.568,412.662C472.82,393.724 498.603,381.768 497.263,380.713C497.167,380.637 488.303,376.558 485.53,377.706C464.886,386.255 466.393,389.305 420.627,409.758C419.025,410.474 406.241,416.187 400.483,418.441C396.967,419.817 396.642,419.514 396.302,420.528C396.297,420.546 397.173,421.354 396.274,422.33C394.024,424.772 391.093,422.221 391.457,425.505C391.476,425.68 391.143,425.444 390.441,427.453C390.321,427.796 391.403,428.985 387.149,430.226C379.813,432.365 380.136,427.924 379.38,427.663C379.109,427.569 375.947,428.262 375.431,428.065C375.286,428.009 374.934,426.965 373.433,427.394C371.606,427.914 358.796,425.633 353.738,423.05C351.614,421.965 351.315,422.896 325.494,413.515C322.851,412.556 302.492,405.16 292.353,401.831C283.073,398.785 282.84,398.088 283.372,397.5C283.727,397.107 284.178,396.809 284.533,396.417C285.879,396.936 297.61,401.466 301.518,402.455C302.162,402.618 328.555,412.743 333.593,413.22C335.504,414.117 335.276,415.115 339.669,415.028C342.632,416.831 342.5,416.967 343.618,417.154C344.024,417.222 348.543,417.979 348.687,418.023C349.44,418.253 349.112,419.288 351.627,419.087C351.893,419.066 352.115,418.842 352.381,418.821C353.571,419.313 360.098,422.015 367.58,424.12C372.158,423.914 372.035,423.686 376.426,422.3C376.946,422.586 376.98,423.433 377.5,423.719C377.65,423.801 379.704,422.855 380.541,422.645C409.7,415.346 466.384,384.484 485.494,374.877Z" style="fill:rgb(131,223,254);fill-opacity:1;"/>
            <path d="M523.62,298.273C555.949,308.788 556.52,309.313 558.726,311.341C557.802,312.773 557.967,312.819 556.628,313.745C554.027,315.322 488.539,351.451 482.613,354.72C481.091,355.561 481.098,355.336 479.463,355.679C471.729,354.199 462.108,349.897 456.981,348.432C456.913,342.789 456.846,337.145 456.778,331.501C468.936,334.834 497.789,336.355 517.28,324.127C527.136,317.943 521.673,306.043 522.668,299.488C522.745,298.979 523.543,298.782 523.62,298.273Z" style="fill:rgb(88,199,251);fill-opacity:1;"/>
            <path d="M108.501,212.5C111.086,215.263 122.899,227.894 153.349,227.501C152.04,230.399 140.604,255.73 136.476,263.485C131.973,262.333 132.066,262.322 127.548,261.283C101.53,255.302 109.731,246.161 108.635,239.498C108.534,238.881 107.391,238.81 107.29,238.193C109.402,234.985 108.112,234.621 108.501,212.5Z" style="fill:rgb(45,176,68);fill-opacity:1;"/>
            <path d="M107.29,238.193C107.391,238.81 108.534,238.881 108.635,239.498C109.731,246.161 101.53,255.302 127.548,261.283C132.066,262.322 131.973,262.333 136.476,263.485C132.861,272.206 132.335,271.892 128.569,280.53C128.157,279.937 127.744,279.343 127.332,278.749C122.833,277.16 104.418,270.653 70.68,260.089C67.411,259.065 67.805,258.479 67.326,258.148C72.221,255.405 92.077,246.239 107.29,238.193Z" style="fill:rgb(129,223,90);fill-opacity:1;"/>
            <path d="M9.579,346.168C9.807,346.018 12.437,344.296 12.437,344.296C22.452,342.974 187.333,404.187 199.299,408.966C203.171,410.512 204.546,410.347 203.813,414.5C203.443,416.599 200.298,414.614 183.562,408.341C177.731,406.156 141.198,392.462 110.417,381.741C86.116,373.276 18.464,347.505 9.579,346.168Z" style="fill:rgb(254,251,140);fill-opacity:1;"/>
            <path d="M457.062,363.462C466.566,366.457 481.785,372.985 483.512,373.466C484.764,373.815 484.481,374.156 485.494,374.877C466.384,384.484 409.7,415.346 380.541,422.645C379.704,422.855 377.65,423.801 377.5,423.719C376.98,423.433 376.946,422.586 376.426,422.3C397.474,411.99 441.535,388.686 453.259,382.073C458.491,379.123 457.155,377.297 457.062,363.462Z" style="fill:rgb(14,134,228);fill-opacity:1;"/>
            <path d="M455.367,259.142C455.639,259.362 455.414,259.922 455.686,260.142C458.235,262.204 460.861,260.458 470.637,266.267C464.721,270.133 461.144,265.948 445.666,273.791C433.47,279.972 435.347,288.009 435.684,289.456C435.226,290.495 434.849,290.302 434.789,291.487C434.614,294.993 434.608,294.903 434.66,298.498C434.713,302.249 436.692,303.297 433.348,304.959C433.063,305.101 432.733,304.5 432.448,304.642C422.793,301.042 422.81,301.188 415.524,298.171C413.628,295.158 415.08,294.643 413.41,291.457C414.328,288.841 416.466,287.252 411.47,280.54C414.325,279.716 417.762,276.567 455.367,259.142Z" style="fill:rgb(6,77,174);fill-opacity:1;"/>
            <path d="M278.602,321.515C277.856,332.086 279.205,381.744 278.195,385.115C272.651,388.88 272.499,388.411 264.651,392.75C262.329,391.593 262.27,391.685 262.144,391.5C262.119,391.464 262.664,390.881 262.764,389.539C262.919,387.45 263.067,385.463 265.973,363.558C270.345,330.608 269.531,317.904 278.602,321.515Z" style="fill:rgb(228,151,0);fill-opacity:1;"/>
            <path d="M208.411,125.707C208.69,125.58 209.019,126.076 209.299,125.95C209.812,125.718 210.054,125.106 210.5,124.763C214.476,121.706 390.07,175.655 391.541,177.459C391.942,177.95 392.434,178.361 392.834,178.852C392.009,179.239 391.184,179.626 390.359,180.013C378.316,177.36 248.016,137.012 208.411,125.707Z" style="fill:rgb(254,172,145);fill-opacity:1;"/>
            <path d="M90.368,334.864C95.083,336.291 96.263,337.006 99.533,337.573C97.434,344.808 89.759,354.624 101.605,359.238C108.935,362.094 109.245,361.187 194.414,391.744C223.363,402.131 223.266,402.155 228.337,403.907C230.448,404.637 229.81,405.3 230.485,405.937C226.372,405.768 226.376,405.281 222.373,406.264L221.638,406.725C217.359,404.388 217.089,405.092 164.491,385.524C133.465,373.982 133.404,374.339 102.423,362.713C86.643,356.792 92.101,340.923 91.475,337.508C91.402,337.111 90.628,337.171 90.5,336.788C90.5,336.788 90.378,335.018 90.368,334.864Z" style="fill:rgb(235,152,4);fill-opacity:1;"/>
            <path d="M450.453,311.62C452.83,312.672 452.85,312.492 455.12,313.864C441.839,320.863 381.976,347.545 370.165,353.059C360.985,352.036 317.321,334.652 287.376,324.834C285.204,324.122 280.538,323.466 278.797,320.552C279.023,319.863 279.248,319.174 279.474,318.485C279.637,318.756 278.962,319.097 279.125,319.369C280.11,321.004 334.301,336.834 369.538,349.374C372.19,350.318 383.826,344.367 433.503,321.507C448.528,314.592 449.46,315.212 450.453,311.62Z" style="fill:rgb(191,246,144);fill-opacity:1;"/>
            <path d="M278.195,385.115C279.775,390.805 279.659,390.812 279.901,391.261C281.818,394.81 322.851,407.771 335.397,412.776C334.796,412.924 334.195,413.072 333.593,413.22C328.555,412.743 302.162,402.618 301.518,402.455C297.61,401.466 285.879,396.936 284.533,396.417C282.641,395.914 279.245,394.226 278.144,396.045C276.287,399.113 271.007,395.185 250.372,406.263C238.087,412.858 231.873,409.096 224.5,407.312C223.279,407.016 223.477,406.808 222.373,406.264C226.376,405.281 226.372,405.768 230.485,405.937C241.285,406.693 242.343,405.107 243.598,404.722C253.569,399.491 258.234,396.259 264.651,392.75C272.499,388.411 272.651,388.88 278.195,385.115Z" style="fill:rgb(25,127,213);fill-opacity:1;"/>
            <path d="M456.981,348.432C462.108,349.897 471.729,354.199 479.463,355.679C479.365,356.381 478.449,356.79 478.35,357.492C478.339,357.575 478.376,368.052 478.434,368.514C478.698,370.614 486.794,371.751 488.408,372.766C488.845,373.041 488.895,373.801 489.384,373.969C489.544,374.024 489.38,373.09 491.47,373.628C493.556,374.166 493.147,374.847 495.114,375.5C496.524,375.968 497.969,375.518 496.868,376.5C496.446,376.876 495.922,377.124 495.5,377.499C490.5,375.797 490.664,375.448 485.494,374.877C484.481,374.156 484.764,373.815 483.512,373.466C481.785,372.985 466.566,366.457 457.062,363.462C456.946,355.931 457.062,356.014 456.981,348.432Z" style="fill:rgb(0,56,161);fill-opacity:1;"/>
            <path d="M349.414,105.45C350.789,106.768 351.475,106.809 350.523,108.503C347.98,113.027 354.415,121.738 375.508,125.008C394.514,127.954 400.392,126.823 402.517,126.414C406.288,125.689 406.562,127.524 407.5,126.976C409.331,125.906 409.153,125.524 411.478,125.342C412.386,125.271 416.422,124.955 422.483,122.439C424.557,121.578 424.703,121.678 426.374,123.217C424.318,124.02 413.509,128.24 399.449,129.238C393.307,129.674 373.125,129.267 359.642,123.201C341.473,115.027 348.867,106.673 349.414,105.45Z" style="fill:rgb(254,149,126);fill-opacity:1;"/>
            <path d="M300.956,205.488C301.146,205.23 300.827,204.788 301.016,204.53C303.227,201.516 303.922,203.509 310.662,205.212C313.249,205.866 312.361,206.756 312.118,209.465C311.864,212.294 311.651,221.439 301.807,224.891C301.21,215.187 301.267,215.252 300.956,205.488Z" style="fill:rgb(232,193,39);fill-opacity:1;"/>
            <path d="M67.326,258.148C67.805,258.479 67.411,259.065 70.68,260.089C104.418,270.653 122.833,277.16 127.332,278.749C126.626,280.696 126.691,280.721 126.57,280.852C126.313,281.128 125.702,280.698 125.446,280.975C117.886,278.778 70.739,262.783 64.246,260.276C65.685,259.048 65.663,259.145 67.326,258.148Z" style="fill:rgb(208,250,160);fill-opacity:1;"/>
            <path d="M110.238,205.3C111.583,206.727 112.272,206.74 111.406,208.5C107.073,217.303 139.6,224.776 150.44,224.971C152.195,225.003 152.029,225.353 153.685,225.75C153.573,226.334 153.461,226.917 153.349,227.501C122.899,227.894 111.086,215.263 108.501,212.5C108.748,208.627 108.041,208.427 110.238,205.3Z" style="fill:rgb(183,243,134);fill-opacity:1;"/>
            <path d="M440.545,129.497C442.212,127.694 442.468,127.157 444.514,128.476C445.65,129.208 447.735,127.97 450.223,132.611C453.414,138.56 441.598,146.137 440.6,145.651C440.049,145.383 439.839,144.631 439.288,144.363C441.053,139.08 440.775,139.069 440.545,129.497Z" style="fill:rgb(230,73,62);fill-opacity:1;"/>
            <path d="M462.644,342.019C480.542,349.328 481.471,347.794 483.703,350.723C478.109,354.508 477.54,353.625 471.32,350.965C471.02,350.836 471.071,350.917 467.476,349.573C462.874,347.853 459.258,346.76 459.288,346.603C459.395,346.034 460.262,345.814 460.369,345.245C461.656,345.351 462.353,345.789 462.148,344.47C461.942,343.154 462.39,343.275 462.644,342.019Z" style="fill:rgb(53,161,231);fill-opacity:1;"/>
            <path d="M462.644,342.019C462.39,343.275 461.942,343.154 462.148,344.47C462.353,345.789 461.656,345.351 460.369,345.245C460.052,344.812 459.327,344.814 459.009,344.381C458.914,344.251 458.996,344.237 458.326,342.5C457.21,339.602 462.326,341.878 462.644,342.019Z" style="fill:rgb(64,168,242);fill-opacity:0.99;"/>
            <path d="M340.468,414.59C341.425,414.917 343.857,415.749 352.381,418.821C352.115,418.842 351.893,419.066 351.627,419.087C349.112,419.288 349.44,418.253 348.687,418.023C348.543,417.979 344.024,417.222 343.618,417.154C342.5,416.967 342.632,416.831 339.669,415.028L340.468,414.59Z" style="fill:rgb(25,138,207);fill-opacity:1;"/>
            <path d="M335.397,412.776C335.805,412.913 338.393,413.786 340.468,414.59L339.669,415.028C335.276,415.115 335.504,414.117 333.593,413.22C334.195,413.072 334.796,412.924 335.397,412.776Z" style="fill:rgb(20,138,214);fill-opacity:0.99;"/>
            <path d="M293.521,196.577C293.536,196.077 292.905,195.702 292.92,195.202C292.926,195.01 292.978,193.323 294.373,193.287C296.713,193.228 293.709,196.38 293.521,196.577Z" style="fill:rgb(254,241,63);fill-opacity:1;"/>
            <path d="M344.582,120.626C344.925,118.953 344.842,119.004 345.846,117.58C347.491,115.246 346.349,118.338 345.89,121.161C345.454,120.983 345.018,120.805 344.582,120.626Z" style="fill:rgb(231,52,50);fill-opacity:1;"/>
            <path d="M127.332,278.749C127.744,279.343 128.157,279.937 128.569,280.53C128.345,280.911 128.122,281.292 127.898,281.673L125.446,280.975C125.702,280.698 126.313,281.128 126.57,280.852C126.691,280.721 126.626,280.696 127.332,278.749Z" style="fill:rgb(129,219,139);fill-opacity:0.99;"/>
            <path d="M209.484,415.602C210.517,415.428 211.55,415.254 212.583,415.08C212.086,415.347 212.02,416.132 211.523,416.399C211.369,416.482 211.376,416.342 209.484,415.602Z" style="fill:rgb(119,215,254);fill-opacity:0.99;"/>
            <path d="M476.798,272.083C477.037,272.142 477.234,271.725 477.473,271.784C477.876,271.883 478.46,272.086 478.491,272.5C478.586,273.736 478.02,272.383 476.798,272.083Z" style="fill:rgb(88,203,252);fill-opacity:0.99;"/>
        </g>
    </g>
</svg>
