<?xml version="1.0" encoding="UTF-8" standalone="no"?>
<!DOCTYPE svg PUBLIC "-//W3C//DTD SVG 1.1//EN" "http://www.w3.org/Graphics/SVG/1.1/DTD/svg11.dtd">
<svg width="100%" height="100%" viewBox="0 0 577 594" version="1.1" xmlns="http://www.w3.org/2000/svg" xmlns:xlink="http://www.w3.org/1999/xlink" xml:space="preserve" xmlns:serif="http://www.serif.com/" style="fill-rule:evenodd;clip-rule:evenodd;stroke-linejoin:round;stroke-miterlimit:2;">
    <g id="Background" transform="matrix(0.870855,0,0,0.870855,-163.954831,-107.770701)">
        <path d="M200.24,477.202C200.858,477.763 201.477,478.324 202.096,478.885C205.25,481.177 256.761,499.098 288.38,510.807C300.937,515.458 405.153,554.054 445.445,568.652C540.127,602.954 544.372,606.728 555.424,607.221C556.821,611.56 555.8,611.667 556.083,686.501C556.302,744.587 557.045,744.7 555.623,749.539C554.575,753.104 553.448,752.143 550.494,754.52C544.134,752.342 355.463,683.016 339.401,676.757C332.256,673.973 332.05,674.857 249.378,643.824C208.189,628.363 198.644,628.357 198.466,616.501C198.315,606.422 198.603,606.43 198.341,490.5C198.32,481.304 198.388,481.29 200.24,477.202Z" style="fill:rgb(32,159,244);"/>
        <path d="M835.866,446.037C838.243,449.532 837.098,449.979 838.453,510.501C839.737,567.869 840.682,568.264 838.056,572.147C834.325,577.664 766.257,610.379 765.372,612.435C762.676,618.69 770.42,637.931 758.325,644.152C757.681,644.483 634.278,711.914 619.63,719.741C601.021,729.685 577.044,743.17 573.36,745.242C559.036,753.096 556.925,755.603 550.494,754.52C553.448,752.143 554.575,753.104 555.623,749.539C557.045,744.7 556.302,744.587 556.083,686.501C555.8,611.667 556.821,611.56 555.424,607.221C563.915,605.542 748.538,510.682 761.585,505.751C765.66,504.21 763.329,502.568 759.64,500.191C746.781,495.339 744.489,495.844 745.965,493.822C747.192,492.141 822.06,454.302 828.715,450.939C832.649,448.95 832.619,449.014 835.866,446.037Z" style="fill:rgb(0,112,219);"/>
        <path d="M437.104,239.123C437.808,239.518 437.884,239.071 438.647,239.5C438.796,239.584 438.77,239.601 440.305,240.865C446.266,242.704 446.574,241.473 515.467,261.628C521.373,263.355 521.436,262.819 589.533,282.384C646.219,298.67 646.416,298.062 647.764,297.993C655.288,297.034 653.725,293.194 733.711,257.982C742.402,254.156 742.031,253.502 750.924,250.099C751.145,250.429 752.697,252.74 753.034,254.598C753.818,258.92 753.915,354.765 753.909,356.505C753.856,372.122 743.269,370.874 699.522,393.523C694.907,396.883 694.208,395.478 688.328,399.336C686.908,400.11 686.002,400.052 680.681,402.809C678.983,403.689 663.131,411.903 659.638,414.139C649.979,409.867 649.935,410.194 639.576,408.063C639.463,405.686 638.141,405.99 638.136,405.985C633.902,401.519 623.207,376.335 622.079,373.679C614.995,356.996 617.278,354.319 601.241,345.81C599.403,344.835 599.49,346.507 599.299,346.583C598.127,344.279 598.409,344.194 596.709,342.346C594.104,340.225 593.252,339.531 557.615,327.006C554.966,326.007 552.316,325.009 549.667,324.011C547.407,321.07 548.64,320.442 546.417,317.482C551.862,289.948 444.859,286.909 444.902,318.449C444.23,322.516 444.994,322.598 443.46,326.438C440.075,328.609 440.135,328.506 436.417,330.101C434.556,328.138 434.662,328.098 433.759,325.596C434.474,316.826 434.148,316.867 434.271,293.5C434.535,243.401 434.862,242.857 437.104,239.123Z" style="fill:rgb(206,31,29);"/>
        <path d="M298.4,429.475C298.254,434.983 298.299,434.91 298.036,440.465C297.924,443.958 296.069,451.446 301.386,453.735C314.256,459.278 314.41,458.672 327.526,463.427C334.87,466.09 335.831,464.904 337.758,468.595C331.086,483.829 333.832,487.016 349.495,492.514C372.533,500.599 372.949,499.195 425.67,519.075C476.742,538.333 486.033,537.776 491.49,537.449C499.207,535.422 498.58,534.051 531.527,516.555C533.74,519.504 532.86,519.776 533.574,523.479C534.199,526.724 534.951,526.281 537.694,528.146C537.623,529.174 535.749,529.999 538.615,531.346C544.16,533.951 546.971,542.22 593.506,553.473C600.137,555.076 600.275,554.22 605.5,555.823C606.302,556.07 606.437,555.962 606.5,555.912C607.39,555.204 606.794,554.794 607.664,554.103C613.649,556.836 618.522,557.353 619.501,557.457C624.817,556.919 624.678,556.614 629.378,554.244C629.888,554.556 629.991,555.329 630.5,555.641C631.625,556.33 657.206,545.455 659.493,544.483C688.44,532.177 697.027,525.129 713.206,516.01C728.945,507.139 726.177,494.479 728.685,488.751C729.228,487.074 729.509,486.782 728.04,485.849C724.869,483.833 724.784,483.215 726.409,478.485C727.655,474.861 725.536,471.691 728.507,471.998C756.099,474.853 770.627,469.64 786.547,464.616C788.02,464.342 804.815,460.173 807.966,442.576C809.091,436.29 809.565,435.721 809.753,435.06C820.438,438.865 831.731,441.55 835.866,446.037C832.619,449.014 832.649,448.95 828.715,450.939C822.06,454.302 747.192,492.141 745.965,493.822C744.489,495.844 746.781,495.339 759.64,500.191C759.543,500.783 758.598,500.991 758.5,501.582C758.435,501.974 759.086,502.143 759.259,502.5C759.37,502.728 759.498,503.084 759.315,503.26C758.778,503.776 715.41,524.864 711.583,526.725C579.499,590.952 559.117,604.508 552.49,603.588C548.778,603.073 245.232,490.944 226.583,484.302C203.943,476.24 203.144,475.839 202.088,477.575C201.861,477.948 202.323,478.512 202.096,478.885C201.477,478.324 200.858,477.763 200.24,477.202C202.48,473.244 204.457,474.013 264.278,445.063C295.499,429.953 295.402,429.61 298.4,429.475Z" style="fill:rgb(82,196,249);"/>
        <path d="M392.556,351.53C392.754,351.691 392.204,352.503 396.655,354.012C481.879,382.902 481.778,388.451 494.387,389.253C496.216,395.023 494.264,448.353 494.076,453.489C492.977,483.504 493.511,528.971 491.454,534.481C490.919,535.917 491.472,535.911 491.49,537.449C486.033,537.776 476.742,538.333 425.67,519.075C372.949,499.195 372.533,500.599 349.495,492.514C333.832,487.016 331.086,483.829 337.758,468.595C346.644,447.956 358.196,426.497 362.666,414.494C365.621,409.24 365.68,409.363 367.799,403.76C373.187,393.738 383.254,369.068 391.299,353.455C391.718,352.813 392.137,352.172 392.556,351.53Z" style="fill:rgb(253,212,34);"/>
        <path d="M596.709,342.346C598.409,344.194 598.127,344.279 599.299,346.583C612.016,376.437 611.811,376.462 624.716,406.21C618.816,408.86 600.198,405.614 583.678,415.761C576.03,420.46 576.284,425.08 576.105,426.483C575.918,427.162 575.587,427.128 575.24,438.448C571.085,440.002 571.252,440.126 567.292,442.094C535.417,457.931 535.14,458.371 534.34,461.316C532.929,463.155 532.864,463.132 532.84,465.524C532.352,513.936 533.063,514.209 531.527,516.555C498.58,534.051 499.207,535.422 491.49,537.449C491.472,535.911 490.919,535.917 491.454,534.481C493.511,528.971 492.977,483.504 494.076,453.489C494.264,448.353 496.216,395.023 494.387,389.253C499.679,387.701 499.517,387.302 557.293,361.047C560.358,359.654 595.382,343.738 595.592,343.611C596.074,343.321 596.227,342.637 596.709,342.346Z" style="fill:rgb(239,176,2);"/>
        <path d="M599.661,209.064C607.678,211.52 607.697,211.363 609.421,211.217C602.848,217.735 601.755,217.422 601.765,222.419C601.615,222.676 602.088,223.037 601.939,223.294C601.619,223.845 600.94,224.094 600.517,224.569C599.693,225.493 599.431,230.017 599.403,230.499C598.79,241.042 599.655,240.963 599.299,251.501C598.748,267.804 648.481,282.961 691.639,264.775C693.141,264.374 694.44,263.925 694.68,263.842C719.086,255.396 709.453,237.615 713.5,237.267C714.937,237.143 714.624,236.666 715.634,236.127C743.981,246.157 746.41,244.792 750.924,250.099C742.031,253.502 742.402,254.156 733.711,257.982C653.725,293.194 655.288,297.034 647.764,297.993C647.297,296.194 647.712,295.829 646.495,295.509C633.633,292.134 634.007,290.845 486.596,250.118C448.404,239.566 447.029,239.447 443.483,239.14C441.487,238.968 441.68,239.501 440.305,240.865C438.77,239.601 438.796,239.584 438.647,239.5C437.884,239.071 437.808,239.518 437.104,239.123C443.437,232.91 445.812,235.428 493.185,213.073C493.309,213.268 494.709,213.534 494.775,216.49C494.888,221.564 494.692,221.453 494.418,226.499C493.577,242.013 541.676,251.176 568.432,244.188C603.381,235.06 597.746,222.336 597.992,212.504C598.072,209.304 599.28,209.849 599.661,209.064Z" style="fill:rgb(251,88,79);"/>
        <path d="M534.34,461.316C539.584,463.456 539.683,462.89 600.683,486.028C614.946,491.438 619.863,491.744 621.596,491.852C622.705,495.666 622.799,495.991 622.366,541.499C622.358,542.376 622.29,549.491 622.025,552.463C621.76,555.438 621.705,555.505 619.501,557.457C618.522,557.353 613.649,556.836 607.664,554.103C590.819,547.105 538.505,528.418 537.694,528.146C534.951,526.281 534.199,526.724 533.574,523.479C532.86,519.776 533.74,519.504 531.527,516.555C533.063,514.209 532.352,513.936 532.84,465.524C532.864,463.132 532.929,463.155 534.34,461.316Z" style="fill:rgb(54,178,42);"/>
        <path d="M710.479,447.518C712.98,451.727 712.09,453.792 712.379,469.489C712.398,476.907 712.396,476.86 712.4,477.501C712.42,480.578 712.45,480.5 712.47,483.499C712.425,506.12 712.893,506.293 711.58,508.555C709.099,512.829 657.834,537.704 629.378,554.244C624.678,556.614 624.817,556.919 619.501,557.457C621.705,555.505 621.76,555.438 622.025,552.463C622.29,549.491 622.358,542.376 622.366,541.499C622.799,495.991 622.705,495.666 621.596,491.852C623.324,491.254 623.752,492.13 700.628,452.756C707.255,449.362 706.774,448.736 709.951,447.04C710.161,446.928 710.27,447.629 710.479,447.518Z" style="fill:rgb(32,142,35);"/>
        <path d="M443.46,326.438C447.038,336.517 435.142,353.719 461.633,362.083C498.852,373.835 538.535,360.977 544.39,353.356C544.846,353.546 544.985,354.212 545.442,354.402C546.441,354.818 557.141,347.649 558.435,339.489C558.952,336.232 557.638,327.092 557.615,327.006C593.252,339.531 594.104,340.225 596.709,342.346C596.227,342.637 596.074,343.321 595.592,343.611C595.382,343.738 560.358,359.654 557.293,361.047C499.517,387.302 499.679,387.701 494.387,389.253C481.778,388.451 481.879,382.902 396.655,354.012C392.204,352.503 392.754,351.691 392.556,351.53C397.704,345.132 426.461,335.783 434.441,331.381C435.241,330.939 434.78,330.579 435.512,330.105C435.936,329.831 435.961,330.397 436.417,330.101C440.135,328.506 440.075,328.609 443.46,326.438Z" style="fill:rgb(253,237,111);"/>
        <path d="M597.176,192.622C599.013,204.208 595.467,205.432 599.661,209.064C599.28,209.849 598.072,209.304 597.992,212.504C597.746,222.336 603.381,235.06 568.432,244.188C541.676,251.176 493.577,242.013 494.418,226.499C494.692,221.453 494.888,221.564 494.775,216.49C494.709,213.534 493.309,213.268 493.185,213.073C496.283,209.48 493.856,208.821 495.123,196.4C499.818,199.475 497.47,204.962 513.256,209.99C517.375,211.332 537.593,217.919 567.375,212.003C593.124,206.888 595.178,195.339 597.176,192.622Z" style="fill:rgb(202,28,26);"/>
        <path d="M702.315,219.571C704.653,229.129 701.275,231.062 705.426,232.721C697.689,240.105 710.988,249.34 695.799,260.909C695.403,261.211 694.803,261.743 694.718,261.818C693.727,262.696 693.472,262.175 692.5,263.092C692.042,263.525 692.097,264.343 691.639,264.775C648.481,282.961 598.748,267.804 599.299,251.501C599.655,240.963 598.79,241.042 599.403,230.499C599.431,230.017 599.693,225.493 600.517,224.569C600.94,224.094 601.619,223.845 601.939,223.294C602.088,223.037 601.615,222.676 601.765,222.419C602.666,224.846 602.625,231.999 623.635,238.056C648.322,245.172 697.614,238.715 700.622,222.572C701.005,220.521 701.381,220.799 702.315,219.571Z" style="fill:rgb(200,28,25);"/>
        <path d="M546.417,317.482C548.64,320.442 547.407,321.07 549.667,324.011C546.098,335.684 553.509,342.793 544.39,353.356C538.535,360.977 498.852,373.835 461.633,362.083C435.142,353.719 447.038,336.517 443.46,326.438C444.994,322.598 444.23,322.516 444.902,318.449C446.803,320.466 446.888,320.309 448.622,322.396C457.114,332.618 483.268,336.676 501.553,334.966C528.478,332.448 538.366,327.815 546.417,317.482Z" style="fill:rgb(243,182,4);"/>
        <path d="M721.584,402.426C725.966,402.825 754.833,395.853 781.391,405.804C798.383,412.17 797.608,421.093 797.675,421.386C794.121,422.411 796.185,426.393 787.362,431.264C758.678,447.097 719.253,437.895 713.483,436.549C711.518,435.911 690.475,429.085 694.888,418.646C700.029,406.483 715.559,407.137 721.584,402.426Z" style="fill:rgb(152,228,252);"/>
        <path d="M301.058,391.097C306.629,395.075 326.684,400.525 354.368,410.829C361.706,413.56 361.757,413.171 362.311,413.55C362.588,413.74 362.389,414.304 362.666,414.494C358.196,426.497 346.644,447.956 337.758,468.595C335.831,464.904 334.87,466.09 327.526,463.427C314.41,458.672 314.256,459.278 301.386,453.735C296.069,451.446 297.924,443.958 298.036,440.465C298.299,434.91 298.254,434.983 298.4,429.475C300.717,395.891 299.005,395.582 301.058,391.097Z" style="fill:rgb(52,174,41);"/>
        <path d="M546.417,317.482C538.366,327.815 528.478,332.448 501.553,334.966C483.268,336.676 457.114,332.618 448.622,322.396C446.888,320.309 446.803,320.466 444.902,318.449C444.859,286.909 551.862,289.948 546.417,317.482Z" style="fill:rgb(253,239,121);"/>
        <path d="M597.176,192.622C595.178,195.339 593.124,206.888 567.375,212.003C537.593,217.919 517.375,211.332 513.256,209.99C497.47,204.962 499.818,199.475 495.123,196.4C496.313,190.888 497.764,187.476 508.694,181.884C525.35,173.362 584.744,167.753 597.176,192.622Z" style="fill:rgb(252,101,90);"/>
        <path d="M609.421,211.217C638.877,194.221 693.24,200.149 702.315,219.571C701.381,220.799 701.005,220.521 700.622,222.572C697.614,238.715 648.322,245.172 623.635,238.056C602.625,231.999 602.666,224.846 601.765,222.419C601.755,217.422 602.848,217.735 609.421,211.217Z" style="fill:rgb(252,100,89);"/>
        <path d="M677.541,435.366C678.54,435.701 679.539,436.035 680.538,436.37C706.328,444.473 708.418,446.006 710.479,447.518C710.27,447.629 710.161,446.928 709.951,447.04C706.774,448.736 707.255,449.362 700.628,452.756C623.752,492.13 623.324,491.254 621.596,491.852C619.863,491.744 614.946,491.438 600.683,486.028C539.683,462.89 539.584,463.456 534.34,461.316C535.14,458.371 535.417,457.931 567.292,442.094C571.252,440.126 571.085,440.002 575.24,438.448C576.116,452.571 570.818,457.183 586.696,465.095C606.206,474.818 650.192,473.375 664.484,459.481C665.387,459.793 664.599,460.532 665.5,460.843C665.591,460.874 665.643,460.892 666.5,460.176C667.311,459.499 667.215,459.533 668.198,459.051C671.378,457.495 679.197,449.581 677.541,435.366Z" style="fill:rgb(124,220,89);"/>
        <path d="M797.675,421.386C798.479,427.774 796.442,429.081 800.621,431.225C799.848,431.631 800.328,432.037 799.5,432.472C798.23,433.138 798.214,432.398 798.191,432.5C797.75,434.447 798.153,436.493 798.136,438.49C798.046,449.491 798.138,449.482 798.119,450.437C798.001,456.432 789.652,460.054 786.547,464.616C770.627,469.64 756.099,474.853 728.507,471.998C725.536,471.691 727.655,474.861 726.409,478.485C724.784,483.215 724.869,483.833 728.04,485.849C729.509,486.782 729.228,487.074 728.685,488.751C727.325,488.645 721.203,488.169 712.47,483.499C712.45,480.5 712.42,480.578 712.4,477.501C712.396,476.86 712.398,476.907 712.379,469.489C724.532,471.336 727.573,472.797 726.298,469.543C725.503,467.516 718.151,448.751 715.088,444.741C713.811,443.069 714.421,442.674 712.744,441.329C711.684,440.48 711.829,439.408 711.806,439.358C711.653,439.013 710.929,438.852 711.066,438.5C711.155,438.268 711.243,438.357 713.483,436.549C719.253,437.895 758.678,447.097 787.362,431.264C796.185,426.393 794.121,422.411 797.675,421.386Z" style="fill:rgb(8,130,235);"/>
        <path d="M576.105,426.483C576.605,427.228 583.551,445.638 628.505,442.585C658.156,440.571 665.406,430.149 667.309,427.412C669.947,429.104 669.015,429.783 670.49,432.516C670.312,432.935 669.721,433.081 669.543,433.5C667.932,437.299 673.471,449.553 664.484,459.481C650.192,473.375 606.206,474.818 586.696,465.095C570.818,457.183 576.116,452.571 575.24,438.448C575.587,427.128 575.918,427.162 576.105,426.483Z" style="fill:rgb(41,158,37);"/>
        <path d="M624.716,406.21C628.362,407.961 628.468,407.131 632.51,407.275C633.822,407.322 633.717,407.357 639.576,408.063C649.935,410.194 649.979,409.867 659.638,414.139C668.823,419.617 669.223,422.095 667.309,427.412C665.406,430.149 658.156,440.571 628.505,442.585C583.551,445.638 576.605,427.228 576.105,426.483C576.284,425.08 576.03,420.46 583.678,415.761C600.198,405.614 618.816,408.86 624.716,406.21Z" style="fill:rgb(134,224,94);"/>
        <path d="M433.759,325.596C434.662,328.098 434.556,328.138 436.417,330.101C435.961,330.397 435.936,329.831 435.512,330.105C434.78,330.579 435.241,330.939 434.441,331.381C426.461,335.783 397.704,345.132 392.556,351.53C392.137,352.172 391.718,352.813 391.299,353.455C388.236,352.382 357.962,354.651 344.931,341.113C344.184,340.337 343.313,338.105 341.647,335.565C342.694,333.18 347.062,323.229 369.56,318.797C409.268,310.973 427.781,325.506 433.759,325.596Z" style="fill:rgb(132,223,94);"/>
        <path d="M202.096,478.885C202.323,478.512 201.861,477.948 202.088,477.575C203.144,475.839 203.943,476.24 226.583,484.302C245.232,490.944 548.778,603.073 552.49,603.588C559.117,604.508 579.499,590.952 711.583,526.725C715.41,524.864 758.778,503.776 759.315,503.26C759.498,503.084 759.37,502.728 759.259,502.5C759.086,502.143 758.435,501.974 758.5,501.582C758.598,500.991 759.543,500.783 759.64,500.191C763.329,502.568 765.66,504.21 761.585,505.751C748.538,510.682 563.915,605.542 555.424,607.221C544.372,606.728 540.127,602.954 445.445,568.652C405.153,554.054 300.937,515.458 288.38,510.807C256.761,499.098 205.25,481.177 202.096,478.885Z" style="fill:rgb(139,223,252);"/>
        <path d="M341.647,335.565C343.313,338.105 344.184,340.337 344.931,341.113C357.962,354.651 388.236,352.382 391.299,353.455C383.254,369.068 373.187,393.738 367.799,403.76C350.914,399.834 344.481,395.405 342.712,394.187C338.909,390.396 338.924,390.379 336.747,385.521C338.647,373.94 337.336,373.48 337.308,373.319C340.486,366.795 339.018,348.607 341.647,335.565Z" style="fill:rgb(45,164,37);"/>
        <path d="M699.522,393.523C701.163,395.72 701.603,395.022 716.563,400.319C719.146,401.233 719.159,401.064 721.584,402.426C715.559,407.137 700.029,406.483 694.888,418.646C690.475,429.085 711.518,435.911 713.483,436.549C711.243,438.357 711.155,438.268 711.066,438.5C710.929,438.852 711.653,439.013 711.806,439.358C711.829,439.408 711.684,440.48 712.744,441.329C714.421,442.674 713.811,443.069 715.088,444.741C718.151,448.751 725.503,467.516 726.298,469.543C727.573,472.797 724.532,471.336 712.379,469.489C712.09,453.792 712.98,451.727 710.479,447.518C708.418,446.006 706.328,444.473 680.538,436.37C681.047,435.941 681.23,435.203 681.74,434.774C682.112,434.461 690.285,432.032 689.691,426.489C688.237,412.915 689.861,412.871 688.328,399.336C694.208,395.478 694.907,396.883 699.522,393.523Z" style="fill:rgb(8,127,231);"/>
        <path d="M337.308,373.319C337.336,373.48 338.647,373.94 336.747,385.521C336.531,385.857 334.864,385.158 335.615,388.461C336.424,392.019 341.174,395.195 341.677,395.208C342.161,395.221 342.227,394.174 342.712,394.187C344.481,395.405 350.914,399.834 367.799,403.76C365.68,409.363 365.621,409.24 362.666,414.494C362.389,414.304 362.588,413.74 362.311,413.55C361.757,413.171 361.706,413.56 354.368,410.829C326.684,400.525 306.629,395.075 301.058,391.097C303.277,387.653 308.418,386.289 313.361,384.195C325.5,379.052 325.226,378.58 337.308,373.319Z" style="fill:rgb(125,219,90);"/>
        <path d="M712.47,483.499C721.203,488.169 727.325,488.645 728.685,488.751C726.177,494.479 728.945,507.139 713.206,516.01C697.027,525.129 688.44,532.177 659.493,544.483C657.206,545.455 631.625,556.33 630.5,555.641C629.991,555.329 629.888,554.556 629.378,554.244C657.834,537.704 709.099,512.829 711.58,508.555C712.893,506.293 712.425,506.12 712.47,483.499Z" style="fill:rgb(46,155,232);"/>
        <path d="M599.299,346.583C599.49,346.507 599.403,344.835 601.241,345.81C617.278,354.319 614.995,356.996 622.079,373.679C623.207,376.335 633.902,401.519 638.136,405.985C638.141,405.99 639.463,405.686 639.576,408.063C633.717,407.357 633.822,407.322 632.51,407.275C628.468,407.131 628.362,407.961 624.716,406.21C611.811,376.462 612.016,376.437 599.299,346.583Z" style="fill:rgb(186,26,19);"/>
        <path d="M440.305,240.865C441.68,239.501 441.487,238.968 443.483,239.14C447.029,239.447 448.404,239.566 486.596,250.118C634.007,290.845 633.633,292.134 646.495,295.509C647.712,295.829 647.297,296.194 647.764,297.993C646.416,298.062 646.219,298.67 589.533,282.384C521.436,262.819 521.373,263.355 515.467,261.628C446.574,241.473 446.266,242.704 440.305,240.865Z" style="fill:rgb(252,131,120);"/>
        <path d="M688.328,399.336C689.861,412.871 688.237,412.915 689.691,426.489C690.285,432.032 682.112,434.461 681.74,434.774C681.23,435.203 681.047,435.941 680.538,436.37C679.539,436.035 678.54,435.701 677.541,435.366C673.929,433.946 673.997,433.988 670.49,432.516C669.015,429.783 669.947,429.104 667.309,427.412C669.223,422.095 668.823,419.617 659.638,414.139C663.131,411.903 678.983,403.689 680.681,402.809C686.002,400.052 686.908,400.11 688.328,399.336Z" style="fill:rgb(6,117,122);"/>
        <path d="M537.694,528.146C538.505,528.418 590.819,547.105 607.664,554.103C606.794,554.794 607.39,555.204 606.5,555.912C606.437,555.962 606.302,556.07 605.5,555.823C600.275,554.22 600.137,555.076 593.506,553.473C546.971,542.22 544.16,533.951 538.615,531.346C535.749,529.999 537.623,529.174 537.694,528.146Z" style="fill:rgb(25,136,215);"/>
        <path d="M800.621,431.225C803.665,432.504 806.709,433.782 809.753,435.06C809.565,435.721 809.091,436.29 807.966,442.576C804.815,460.173 788.02,464.342 786.547,464.616C789.652,460.054 798.001,456.432 798.119,450.437C798.138,449.482 798.046,449.491 798.136,438.49C798.153,436.493 797.75,434.447 798.191,432.5C798.214,432.398 798.23,433.138 799.5,432.472C800.328,432.037 799.848,431.631 800.621,431.225Z" style="fill:rgb(12,135,238);"/>
        <path d="M705.426,232.721C708.829,233.856 712.232,234.991 715.634,236.127C714.624,236.666 714.937,237.143 713.5,237.267C709.453,237.615 719.086,255.396 694.68,263.842C694.44,263.925 693.141,264.374 691.639,264.775C692.097,264.343 692.042,263.525 692.5,263.092C693.472,262.175 693.727,262.696 694.718,261.818C694.803,261.743 695.403,261.211 695.799,260.909C710.988,249.34 697.689,240.105 705.426,232.721Z" style="fill:rgb(224,50,45);"/>
        <path d="M549.667,324.011C552.316,325.009 554.966,326.007 557.615,327.006C557.638,327.092 558.952,336.232 558.435,339.489C557.141,347.649 546.441,354.818 545.442,354.402C544.985,354.212 544.846,353.546 544.39,353.356C553.509,342.793 546.098,335.684 549.667,324.011Z" style="fill:rgb(249,199,29);"/>
        <path d="M670.49,432.516C673.997,433.988 673.929,433.946 677.541,435.366C679.197,449.581 671.378,457.495 668.198,459.051C667.215,459.533 667.311,459.499 666.5,460.176C665.643,460.892 665.591,460.874 665.5,460.843C664.599,460.532 665.387,459.793 664.484,459.481C673.471,449.553 667.932,437.299 669.543,433.5C669.721,433.081 670.312,432.935 670.49,432.516Z" style="fill:rgb(69,183,51);"/>
        <path d="M336.747,385.521C338.924,390.379 338.909,390.396 342.712,394.187C342.227,394.174 342.161,395.221 341.677,395.208C341.174,395.195 336.424,392.019 335.615,388.461C334.864,385.158 336.531,385.857 336.747,385.521Z" style="fill:rgb(82,196,63);"/>
    </g>
</svg>
