<?xml version="1.0" encoding="UTF-8" standalone="no"?>
<!DOCTYPE svg PUBLIC "-//W3C//DTD SVG 1.1//EN" "http://www.w3.org/Graphics/SVG/1.1/DTD/svg11.dtd">
<svg width="100%" height="100%" viewBox="0 0 577 594" version="1.1" xmlns="http://www.w3.org/2000/svg" xmlns:xlink="http://www.w3.org/1999/xlink" xml:space="preserve" xmlns:serif="http://www.serif.com/" style="fill-rule:evenodd;clip-rule:evenodd;stroke-linejoin:round;stroke-miterlimit:2;">
    <g id="home" transform="matrix(1.333333,0,0,1.333333,0.470151,42.780067)">
        <g transform="matrix(1.794675,0,0,1.794675,-348.257312,-380.915981)">
            <path d="M210.355,308.341C275.855,249.727 275.162,248.981 280.918,243.954C305.1,222.834 310.802,213.333 318.33,217.825C323.042,220.636 322.697,221.093 369.226,263.798C426.31,316.19 430.534,317.924 430.773,323.489C431.29,335.56 413.281,332.262 402.499,332.491C400.733,332.528 400.556,333.104 392.898,358.596C380.845,398.723 380.55,401.843 378.505,401.675C376.823,401.537 365.35,400.594 357.56,399.192C355.367,398.797 355.242,393.712 352.024,386.71C332.969,345.244 286.383,348.554 270.374,390.451C267.921,396.869 268.455,397.266 268.045,398.34C267.255,400.403 249.31,401.77 248.689,401.281C247.62,400.438 228.551,334.742 228.042,333.741C226.304,330.328 206.094,335.176 200.636,330.342C191.415,322.174 206.316,312.066 210.355,308.341ZM265.453,375.113C288.419,368.861 281.113,335.412 264.601,329.229C239.416,319.797 234.102,374.735 265.453,375.113ZM351.041,319.502C350.867,318.163 350.903,316.802 350.729,315.463C347.807,292.987 321.193,295.166 315.921,318.597C308.668,350.829 348.514,356.754 351.041,319.502ZM295.473,344.126C317.534,339.446 310.779,305.882 295.509,301.474C271.745,294.615 268.819,343.457 295.473,344.126ZM372.584,329.103C350.461,326.372 339.006,361.227 354.642,372.296C375.329,386.941 400.716,337.446 372.584,329.103Z" style="fill:rgb(129,85,82);"/>
        </g>
        <g transform="matrix(1.794675,0,0,1.794675,-348.257312,-380.915981)">
            <path d="M420.26,418.698C419.98,419.19 419.7,419.683 419.419,420.176C413.915,419.664 413.93,419.72 251.5,419.72C208.798,419.72 208.765,419.858 208.391,419.553C207.387,418.735 210.378,417.814 210.596,417.747C287.795,393.975 390.081,406.467 420.26,418.698Z" style="fill:rgb(226,147,2);"/>
        </g>
    </g>
</svg>
