<svg xmlns="http://www.w3.org/2000/svg" width="100%" viewBox="0 0 544 360" fill="none" style="display:block; color:#6E1375">
  <!-- ICON: scaled up and dropped a bit, like in the PNG -->
  <!-- PNG measurements: top padding (~13px), icon height, tiny gap, text -->
  <g transform="translate(180 0) scale(2.2)">
    <path
      d="M24.2209 60.7107C14.1843 50.3422 14.5304 33.4071 24.913 23.3842L13.4922 11.2877C-3.8122 27.8772 -4.15829 55.1808 12.4539 72.4616C29.0661 89.7423 56.407 90.0879 73.7113 73.4984L61.9444 61.4019C51.2157 71.7703 34.6035 71.4247 24.2209 60.7107Z"
      fill="currentColor"/>
    <path
      d="M43.2609 69.0075C28.7252 69.0075 16.6122 57.2566 16.6122 42.3951H0C0 66.2426 19.3809 85.597 43.2609 85.597C67.1409 85.597 86.5218 66.2426 86.5218 42.3951H69.9096C69.9096 56.911 58.1426 69.0075 43.2609 69.0075Z"
      fill="currentColor"/>
    <path d="M81.3269 25.8091L74.7513 25.4635L71.6365 30.9933L74.4052 36.5232H80.9808L84.0956 31.339L81.3269 25.8091Z"
      fill="#E0246C"/>
    <path d="M52.6071 0.228638H41.8784V10.9427H52.6071V0.228638Z" fill="#FBBC04"/>
    <path
      d="M71.9848 11.2958C71.9848 9.91329 71.2927 8.87644 69.9083 8.53083L64.0248 7.8396C62.6405 7.8396 61.6022 8.53083 61.2561 9.91329L60.564 15.7887C60.564 17.1712 61.2561 18.2081 62.6405 18.5537L68.524 19.2449C69.9083 19.2449 70.9466 18.5537 71.2927 17.1712L71.9848 11.2958Z"
      fill="#06BEFE"/>
    <path
      d="M21.8083 9.21441C21.8083 12.3249 24.231 14.7443 27.3457 14.7443C30.4605 14.7443 32.8831 12.3249 32.8831 9.21441C32.8831 6.10388 30.4605 3.68457 27.3457 3.68457C24.231 3.68457 21.8083 6.10388 21.8083 9.21441Z"
      fill="#72F2EB"/>
  </g>

  <!-- TEXT: original wordmark, moved down so there's a small gap under the icon -->
  <!-- we shift x by -121 to “start” the text at 0, then the whole svg is 544 wide -->
  <g transform="translate(-121 235)">
    <path
      d="M146.172 52.1837C138.904 52.1837 134.059 47.3451 134.059 40.4328C134.059 33.5205 138.904 28.6819 146.172 28.6819C153.44 28.6819 158.285 33.5205 158.285 40.4328C158.285 47.3451 153.44 52.1837 146.172 52.1837ZM158.285 18.659V24.8801L156.901 23.4976C153.786 19.6959 149.287 17.6222 143.75 17.6222C131.29 17.6222 121.254 27.645 121.254 40.7784C121.254 53.9118 130.944 63.9346 143.75 63.9346C149.287 63.9346 153.786 61.8609 156.901 58.0591L158.285 56.6767V62.8978C158.285 69.8101 154.132 73.6118 146.864 73.6118C140.289 73.6118 137.52 70.8469 135.79 68.082L125.061 74.3031C129.214 80.8697 136.828 84.6715 146.518 84.6715C153.094 84.6715 158.977 82.9434 163.13 79.4873C167.976 75.6855 170.744 69.8101 170.744 62.8978V18.659H158.285Z"
      fill="currentColor"/>
    <path
      d="M485.33 53.9118C478.063 53.9118 473.563 49.0732 473.563 41.8152C473.563 34.5573 478.409 29.7187 485.33 29.7187C492.598 29.7187 497.097 34.5573 497.097 41.8152C497.097 48.7275 492.598 53.9118 485.33 53.9118ZM488.099 17.6222C482.216 17.6222 477.716 19.3503 474.602 23.152L473.217 24.5345V18.659H460.412V82.9434H473.217V58.4048L474.602 59.7872C477.716 63.589 482.216 65.3171 488.099 65.3171C500.212 65.3171 509.903 54.603 509.903 41.124C509.903 27.9906 500.212 17.6222 488.099 17.6222Z"
      fill="currentColor"/>
    <path
      d="M630.341 37.3235L630.687 36.2867C632.071 31.1024 635.878 28.3375 641.761 28.3375C647.299 28.3375 651.106 31.1024 652.49 36.2867L652.836 37.3235H630.341ZM664.603 41.4709C664.603 27.6463 654.567 17.2778 641.415 17.2778C627.226 17.2778 617.189 27.3007 617.189 41.4709C617.189 55.6411 627.572 65.6639 642.454 65.6639C650.76 65.6639 657.335 62.5534 661.834 57.0236L651.798 51.1481C649.721 53.2218 646.261 54.6043 642.8 54.6043C636.57 54.6043 632.417 52.185 630.687 47.692L630.341 46.6551H664.257C664.603 44.927 664.603 43.199 664.603 41.4709Z"
      fill="currentColor"/>
    <path
      d="M594.355 65.6639C580.511 65.6639 570.129 55.2955 570.129 41.4709C570.129 27.6463 580.511 17.2778 594.355 17.2778C602.661 17.2778 610.621 21.4252 614.774 28.3375L603.699 34.9042C601.969 31.7937 598.508 30.0656 594.355 30.0656C587.779 30.0656 582.934 34.9042 582.934 41.8165C582.934 48.3832 587.779 53.5674 594.355 53.5674C598.508 53.5674 601.969 51.8393 603.699 48.7288L614.774 54.9499C610.621 61.5166 602.661 65.6639 594.355 65.6639Z"
      fill="currentColor"/>
    <path
      d="M538.645 53.913C531.377 53.913 526.878 49.0744 526.878 41.8165C526.878 34.5586 531.723 29.72 538.645 29.72C545.913 29.72 550.412 34.5586 550.412 41.8165C550.758 48.7288 545.913 53.913 538.645 53.913ZM550.758 18.6603V24.1901L549.374 22.8077C546.259 19.0059 541.76 17.2778 535.876 17.2778C523.763 17.2778 514.073 27.9919 514.073 41.4709C514.073 54.9499 523.763 65.6639 535.876 65.6639C541.76 65.6639 546.259 63.9359 549.374 60.1341L550.758 58.7516V64.2815H563.563V18.6603H550.758Z"
      fill="currentColor"/>
    <path
      d="M435.857 65.6639C426.512 65.6639 419.937 62.2078 416.476 55.2955L427.551 49.0744C428.935 52.5306 432.05 54.2586 435.857 54.2586C441.048 54.2586 441.74 51.8393 441.74 50.8025C441.74 48.3832 438.625 47.3463 434.472 46.3095C427.897 44.5814 418.552 41.8165 418.552 32.1393C418.552 22.1164 427.551 17.2778 436.203 17.2778C443.471 17.2778 449.7 20.734 453.507 26.2638L442.778 32.1393C441.048 29.3744 438.971 28.3375 436.203 28.3375C433.434 28.3375 431.704 29.72 431.704 31.7937C431.704 34.213 434.818 35.2498 438.971 36.2867C445.547 38.0147 454.892 40.434 454.892 51.1481C454.545 61.8622 444.855 65.6639 435.857 65.6639Z"
      fill="currentColor"/>
    <path
      d="M232.697 53.5662C226.121 53.5662 221.276 48.7275 221.276 41.8152C221.276 34.9029 226.121 30.0643 232.697 30.0643C239.272 30.0643 244.117 34.9029 244.117 41.8152C244.117 48.3819 239.272 53.5662 232.697 53.5662ZM232.697 17.6222C219.199 17.6222 208.47 28.3363 208.47 41.8152C208.47 55.2942 219.199 66.0083 232.697 66.0083C246.194 66.0083 256.923 55.2942 256.923 41.8152C256.923 27.9906 246.194 17.6222 232.697 17.6222Z"
      fill="currentColor"/>
    <path
      d="M352.083 64.9737C345.507 64.9737 340.662 63.5912 337.893 60.8263C334.779 58.407 333.394 54.2596 333.394 48.3841V10.0209L346.2 6.21912V19.0069H357.62V31.1034H346.2V48.3841C346.2 52.8771 351.391 53.2228 355.198 53.2228C355.89 53.2228 356.928 53.2228 357.966 53.2228V64.6281C355.544 64.9737 353.813 64.9737 352.083 64.9737Z"
      fill="currentColor"/>
    <path
      d="M397.441 64.2856V38.3645C397.441 31.4522 392.942 29.0329 388.443 29.0329C382.559 29.0329 379.098 32.8346 379.098 39.4013V64.2856H366.293V0.0012207H379.098V24.5399L380.483 22.8118C382.905 19.3557 387.751 17.282 393.288 17.282C401.594 17.282 410.246 23.1574 410.246 35.9452V63.94H397.441V64.2856Z"
      fill="currentColor"/>
    <path
      d="M300.184 64.291L292.224 37.6786L284.264 64.291H271.804L257.269 18.6698H270.766L278.38 45.9734L285.994 18.6698H298.107L306.067 45.9734L313.335 18.6698H326.832L312.297 64.291H300.184Z"
      fill="currentColor"/>
    <path
      d="M178.339 64.2815V35.5954C178.339 23.1533 188.03 17.2778 197.72 17.2778C201.181 17.2778 204.642 17.9691 207.065 19.0059L204.296 29.3744C202.912 28.6831 201.181 28.3375 199.797 28.3375C195.99 28.3375 191.837 30.4112 191.837 36.6323V63.5903H178.339V64.2815Z"
      fill="currentColor"/>
  </g>
</svg>
